<svg width="25" height="25" viewBox="0 0 25 25" fill="none" xmlns="http://www.w3.org/2000/svg">
<path d="M5.20831 20.3125C3.87984 20.3125 2.7663 19.8635 1.86769 18.9656C0.969771 18.067 0.520813 16.9535 0.520813 15.625C0.520813 14.3229 0.978452 13.2094 1.89373 12.2844C2.8097 11.3601 3.91456 10.8979 5.20831 10.8979C6.3979 10.8979 7.43852 11.3007 8.33019 12.1062C9.22185 12.9111 9.73574 13.9104 9.87185 15.1042H11.7104L9.47498 8.85417H7.81248V7.8125H11.9791V8.85417H10.5937L11.3177 10.8979H17.4802L15.7291 6.08958C15.6889 5.96944 15.6222 5.87917 15.5291 5.81875C15.4354 5.75903 15.3285 5.72917 15.2083 5.72917H13.0208V4.6875H15.2083C15.5396 4.6875 15.843 4.77882 16.1187 4.96146C16.3944 5.14479 16.5903 5.39826 16.7062 5.72187L18.5979 10.8854H19.7916C21.0854 10.8854 22.1903 11.3431 23.1062 12.2583C24.0215 13.1743 24.4791 14.2792 24.4791 15.5729C24.4791 16.8715 24.0225 17.9792 23.1094 18.8958C22.1955 19.8139 21.0896 20.2729 19.7916 20.2729C18.5951 20.2729 17.5604 19.8788 16.6875 19.0906C15.8146 18.3024 15.2948 17.3208 15.1281 16.1458H9.87185C9.73574 17.3437 9.2156 18.3378 8.31144 19.1281C7.40727 19.9184 6.3729 20.3132 5.20831 20.3125ZM5.20831 19.2708C6.08053 19.2708 6.84929 18.9955 7.51456 18.4448C8.17984 17.8941 8.6104 17.1278 8.80623 16.1458H5.72915V15.1042H8.80623C8.61178 14.1181 8.18123 13.3507 7.51456 12.8021C6.84929 12.2535 6.08053 11.9792 5.20831 11.9792C4.17567 11.9792 3.31005 12.3288 2.61144 13.0281C1.91213 13.7267 1.56248 14.5924 1.56248 15.625C1.56248 16.6264 1.91213 17.4844 2.61144 18.199C3.31005 18.9135 4.17567 19.2708 5.20831 19.2708ZM12.8687 15.1042H15.1291C15.1889 14.625 15.366 14.0615 15.6604 13.4135C15.9548 12.7656 16.3837 12.2743 16.9469 11.9396H11.6864L12.8687 15.1042ZM19.7916 19.2708C20.8243 19.2708 21.6899 18.9135 22.3885 18.199C23.0878 17.4844 23.4375 16.6264 23.4375 15.625C23.4375 14.5924 23.0878 13.7267 22.3885 13.0281C21.6899 12.3288 20.8243 11.9792 19.7916 11.9792C19.6368 11.9792 19.4927 11.9826 19.3594 11.9896C19.2253 11.9965 19.0944 12.0198 18.9666 12.0594L20.0479 14.9396L19.0708 15.3083L18.0406 12.4281C17.4399 12.7628 16.9739 13.2236 16.6427 13.8104C16.3114 14.3965 16.1458 15.0014 16.1458 15.625C16.1458 16.6264 16.4955 17.4844 17.1948 18.199C17.8934 18.9135 18.759 19.2708 19.7916 19.2708Z" fill="black"/>
</svg>
