<svg width="25" height="25" viewBox="0 0 25 25" fill="none" xmlns="http://www.w3.org/2000/svg">
<path d="M5.72917 2.86459C5.72917 2.65739 5.64686 2.45868 5.50034 2.31217C5.35383 2.16565 5.15512 2.08334 4.94792 2.08334C4.74072 2.08334 4.542 2.16565 4.39549 2.31217C4.24898 2.45868 4.16667 2.65739 4.16667 2.86459C4.16667 4.18751 5.13333 4.86147 5.73542 5.28126L5.80208 5.32709C6.51042 5.82293 6.77083 6.06147 6.77083 6.51043C6.77083 6.71763 6.85314 6.91634 6.99966 7.06285C7.14617 7.20937 7.34488 7.29168 7.55208 7.29168C7.75928 7.29168 7.958 7.20937 8.10451 7.06285C8.25102 6.91634 8.33333 6.71763 8.33333 6.51043C8.33333 5.18751 7.36667 4.51355 6.76458 4.09376L6.69792 4.04793C5.98958 3.55209 5.72917 3.31251 5.72917 2.86459ZM3.125 10.2302C3.12486 9.98108 3.17383 9.73435 3.26911 9.50415C3.36439 9.27395 3.50411 9.06479 3.68028 8.88862C3.85645 8.71245 4.06561 8.57273 4.29581 8.47746C4.52601 8.38218 4.77274 8.33321 5.02188 8.33334H17.8958C18.1449 8.33334 18.3915 8.38241 18.6216 8.47775C18.8517 8.57309 19.0607 8.71283 19.2368 8.88899C19.4128 9.06514 19.5524 9.27426 19.6477 9.50439C19.7429 9.73453 19.7918 9.98117 19.7917 10.2302V10.9375H20.5729C21.4708 10.9375 22.3319 11.2942 22.9668 11.9291C23.6017 12.564 23.9583 13.4251 23.9583 14.3229C23.9583 15.2208 23.6017 16.0819 22.9668 16.7168C22.3319 17.3517 21.4708 17.7083 20.5729 17.7083H19.1865C18.4597 19.4997 17.1331 20.9828 15.4334 21.9039C13.7338 22.825 11.7669 23.1267 9.86933 22.7575C7.97175 22.3883 6.26147 21.3711 5.03117 19.88C3.80087 18.3889 3.12705 16.5165 3.125 14.5833V10.2302ZM18.2292 10.2302C18.2292 10.1415 18.1939 10.0565 18.1312 9.99378C18.0685 9.93107 17.9835 9.89584 17.8948 9.89584H5.02083C4.93215 9.89584 4.8471 9.93107 4.78439 9.99378C4.72169 10.0565 4.68646 10.1415 4.68646 10.2302V14.5833C4.68646 16.3791 5.39981 18.1013 6.66959 19.371C7.93937 20.6408 9.66155 21.3542 11.4573 21.3542C13.253 21.3542 14.9752 20.6408 16.245 19.371C17.5148 18.1013 18.2281 16.3791 18.2281 14.5833L18.2292 10.2302ZM20.5729 12.5H19.7917V14.5833C19.7921 15.1076 19.7432 15.6307 19.6458 16.1458H20.5729C20.8123 16.1458 21.0494 16.0987 21.2705 16.0071C21.4917 15.9155 21.6926 15.7812 21.8619 15.6119C22.0312 15.4426 22.1655 15.2417 22.2571 15.0205C22.3487 14.7994 22.3958 14.5623 22.3958 14.3229C22.3958 14.0835 22.3487 13.8465 22.2571 13.6253C22.1655 13.4042 22.0312 13.2032 21.8619 13.0339C21.6926 12.8647 21.4917 12.7304 21.2705 12.6388C21.0494 12.5472 20.8123 12.5 20.5729 12.5ZM9.11458 2.08334C9.32178 2.08334 9.5205 2.16565 9.66701 2.31217C9.81352 2.45868 9.89583 2.65739 9.89583 2.86459C9.89583 3.31355 10.1563 3.55209 10.8646 4.04793L10.9313 4.09376C11.5333 4.51355 12.5 5.18751 12.5 6.51043C12.5 6.71763 12.4177 6.91634 12.2712 7.06285C12.1247 7.20937 11.926 7.29168 11.7188 7.29168C11.5115 7.29168 11.3128 7.20937 11.1663 7.06285C11.0198 6.91634 10.9375 6.71763 10.9375 6.51043C10.9375 6.06147 10.6771 5.82293 9.96875 5.32709L9.90208 5.28126C9.3 4.86147 8.33333 4.18751 8.33333 2.86459C8.33333 2.65739 8.41564 2.45868 8.56216 2.31217C8.70867 2.16565 8.90738 2.08334 9.11458 2.08334ZM14.0625 2.86459C14.0625 2.65739 13.9802 2.45868 13.8337 2.31217C13.6872 2.16565 13.4885 2.08334 13.2812 2.08334C13.074 2.08334 12.8753 2.16565 12.7288 2.31217C12.5823 2.45868 12.5 2.65739 12.5 2.86459C12.5 4.18751 13.4667 4.86147 14.0687 5.28126L14.1354 5.32709C14.8437 5.82293 15.1042 6.06147 15.1042 6.51043C15.1042 6.71763 15.1865 6.91634 15.333 7.06285C15.4795 7.20937 15.6782 7.29168 15.8854 7.29168C16.0926 7.29168 16.2913 7.20937 16.4378 7.06285C16.5844 6.91634 16.6667 6.71763 16.6667 6.51043C16.6667 5.18751 15.7 4.51355 15.0979 4.09376L15.0312 4.04793C14.3229 3.55209 14.0625 3.31355 14.0625 2.86459Z" fill="black"/>
</svg>
