<svg width="25" height="25" viewBox="0 0 25 25" fill="none" xmlns="http://www.w3.org/2000/svg">
<path d="M22.8276 12.1499C21.9292 8.08838 20.5966 5.49756 18.4609 4.86621C18.0472 4.74555 17.6183 4.68536 17.1875 4.6875C15.8745 4.6875 14.8383 5.46875 12.5 5.46875C10.1616 5.46875 9.12349 4.6875 7.81245 4.6875C7.3636 4.68518 6.9166 4.74533 6.48433 4.86621C4.34565 5.49756 3.02437 8.09082 2.11567 12.1499C1.18794 16.2959 1.35591 19.5718 3.16938 20.2007C4.43892 20.6401 5.57417 19.7314 6.64936 18.394C7.87007 16.8706 9.37349 16.4019 12.5 16.4019C15.6264 16.4019 17.0712 16.8706 18.2939 18.394C19.3681 19.7324 20.5454 20.6299 21.7812 20.2085C23.7841 19.5244 23.7558 16.3447 22.8276 12.1499Z" stroke="black" stroke-width="1.5625" stroke-miterlimit="10"/>
<path d="M14.2578 11.9141C14.7972 11.9141 15.2344 11.4768 15.2344 10.9375C15.2344 10.3982 14.7972 9.96094 14.2578 9.96094C13.7185 9.96094 13.2812 10.3982 13.2812 10.9375C13.2812 11.4768 13.7185 11.9141 14.2578 11.9141Z" fill="black"/>
<path d="M16.4062 14.0625C16.213 14.0625 16.0241 14.0052 15.8634 13.8977C15.7028 13.7903 15.5776 13.6377 15.5038 13.4591C15.4299 13.2805 15.4108 13.084 15.4486 12.8945C15.4865 12.705 15.5798 12.531 15.7166 12.3945C15.8534 12.2581 16.0276 12.1652 16.2172 12.1278C16.4068 12.0904 16.6033 12.1101 16.7817 12.1844C16.9601 12.2587 17.1124 12.3843 17.2194 12.5452C17.3264 12.7061 17.3833 12.8951 17.3828 13.0884C17.3822 13.347 17.279 13.5947 17.0959 13.7773C16.9128 13.9599 16.6648 14.0625 16.4062 14.0625Z" fill="black"/>
<path d="M16.4062 9.76562C16.9456 9.76562 17.3828 9.3284 17.3828 8.78906C17.3828 8.24972 16.9456 7.8125 16.4062 7.8125C15.8669 7.8125 15.4297 8.24972 15.4297 8.78906C15.4297 9.3284 15.8669 9.76562 16.4062 9.76562Z" fill="black"/>
<path d="M18.5547 11.9141C19.094 11.9141 19.5312 11.4768 19.5312 10.9375C19.5312 10.3982 19.094 9.96094 18.5547 9.96094C18.0153 9.96094 17.5781 10.3982 17.5781 10.9375C17.5781 11.4768 18.0153 11.9141 18.5547 11.9141Z" fill="black"/>
<path d="M7.8125 8.59375V13.2812M10.1562 10.9375H5.46875" stroke="black" stroke-width="1.5625" stroke-linecap="round" stroke-linejoin="round"/>
</svg>
