<svg width="25" height="25" viewBox="0 0 25 25" fill="none" xmlns="http://www.w3.org/2000/svg">
<path d="M6.24998 5.20834V19.7917H9.37498V13.5417H15.625V19.7917H18.75V5.20834H15.625V11.4583H9.37498V5.20834H6.24998ZM3.12498 15.625C3.12498 15.9013 3.23473 16.1662 3.43008 16.3616C3.62543 16.5569 3.89038 16.6667 4.16665 16.6667H5.20831V8.33334H4.16665C3.89038 8.33334 3.62543 8.44309 3.43008 8.63844C3.23473 8.83379 3.12498 9.09874 3.12498 9.37501V11.4583H2.08331V13.5417H3.12498V15.625ZM21.875 9.37501C21.875 9.09874 21.7652 8.83379 21.5699 8.63844C21.3745 8.44309 21.1096 8.33334 20.8333 8.33334H19.7916V16.6667H20.8333C21.1096 16.6667 21.3745 16.5569 21.5699 16.3616C21.7652 16.1662 21.875 15.9013 21.875 15.625V13.5417H22.9166V11.4583H21.875V9.37501Z" fill="black"/>
</svg>
