<svg width="25" height="25" viewBox="0 0 25 25" fill="none" xmlns="http://www.w3.org/2000/svg">
<path d="M22.6562 7.03125V17.9688C22.6562 18.3832 22.4916 18.7806 22.1986 19.0736C21.9056 19.3666 21.5082 19.5312 21.0938 19.5312H3.90625C3.49185 19.5312 3.09442 19.3666 2.8014 19.0736C2.50837 18.7806 2.34375 18.3832 2.34375 17.9688V7.03125M22.6562 7.03125C22.6562 6.61685 22.4916 6.21942 22.1986 5.9264C21.9056 5.63337 21.5082 5.46875 21.0938 5.46875H3.90625C3.49185 5.46875 3.09442 5.63337 2.8014 5.9264C2.50837 6.21942 2.34375 6.61685 2.34375 7.03125M22.6562 7.03125L13.3891 13.4469C13.1278 13.6276 12.8177 13.7245 12.5 13.7245C12.1823 13.7245 11.8722 13.6276 11.6109 13.4469L2.34375 7.03125" stroke="black" stroke-width="1.5625" stroke-linecap="round" stroke-linejoin="round"/>
</svg>
