<svg width="10" height="10" viewBox="0 0 10 10" fill="none" xmlns="http://www.w3.org/2000/svg">
<path fill-rule="evenodd" clip-rule="evenodd" d="M2.69231 0C2.79431 0 2.89214 0.0403321 2.96427 0.112124C3.0364 0.183915 3.07692 0.281286 3.07692 0.382814V0.765629H6.92308V0.382814C6.92308 0.281286 6.9636 0.183915 7.03573 0.112124C7.10786 0.0403321 7.20569 0 7.30769 0C7.4097 0 7.50753 0.0403321 7.57966 0.112124C7.65179 0.183915 7.69231 0.281286 7.69231 0.382814V0.765629H8.84615C9.15217 0.765629 9.44566 0.886625 9.66205 1.102C9.87844 1.31737 10 1.60949 10 1.91407V8.80473C10 9.10931 9.87844 9.40143 9.66205 9.6168C9.44566 9.83218 9.15217 9.95317 8.84615 9.95317H1.15385C0.847827 9.95317 0.554342 9.83218 0.337954 9.6168C0.121566 9.40143 0 9.10931 0 8.80473V1.91407C0 1.60949 0.121566 1.31737 0.337954 1.102C0.554342 0.886625 0.847827 0.765629 1.15385 0.765629H2.30769V0.382814C2.30769 0.281286 2.34821 0.183915 2.42034 0.112124C2.49247 0.0403321 2.5903 0 2.69231 0ZM6.92308 1.53126V1.91407C6.92308 2.0156 6.9636 2.11297 7.03573 2.18476C7.10786 2.25655 7.20569 2.29689 7.30769 2.29689C7.4097 2.29689 7.50753 2.25655 7.57966 2.18476C7.65179 2.11297 7.69231 2.0156 7.69231 1.91407V1.53126H8.84615C8.94816 1.53126 9.04599 1.57159 9.11812 1.64338C9.19025 1.71517 9.23077 1.81254 9.23077 1.91407V3.06251H0.769231V1.91407C0.769231 1.81254 0.809753 1.71517 0.881882 1.64338C0.954011 1.57159 1.05184 1.53126 1.15385 1.53126H2.30769V1.91407C2.30769 2.0156 2.34821 2.11297 2.42034 2.18476C2.49247 2.25655 2.5903 2.29689 2.69231 2.29689C2.79431 2.29689 2.89214 2.25655 2.96427 2.18476C3.0364 2.11297 3.07692 2.0156 3.07692 1.91407V1.53126H6.92308ZM0.769231 3.82814V8.80473C0.769231 8.90626 0.809753 9.00363 0.881882 9.07542C0.954011 9.14721 1.05184 9.18754 1.15385 9.18754H8.84615C8.94816 9.18754 9.04599 9.14721 9.11812 9.07542C9.19025 9.00363 9.23077 8.90626 9.23077 8.80473V3.82814H0.769231ZM4.61539 4.97659C4.61539 4.87506 4.65591 4.77769 4.72804 4.7059C4.80017 4.6341 4.89799 4.59377 5 4.59377C5.10201 4.59377 5.19983 4.6341 5.27196 4.7059C5.34409 4.77769 5.38462 4.87506 5.38462 4.97659C5.38462 5.07811 5.34409 5.17549 5.27196 5.24728C5.19983 5.31907 5.10201 5.3594 5 5.3594C4.89799 5.3594 4.80017 5.31907 4.72804 5.24728C4.65591 5.17549 4.61539 5.07811 4.61539 4.97659ZM6.53846 4.59377C6.43646 4.59377 6.33863 4.6341 6.2665 4.7059C6.19437 4.77769 6.15385 4.87506 6.15385 4.97659C6.15385 5.07811 6.19437 5.17549 6.2665 5.24728C6.33863 5.31907 6.43646 5.3594 6.53846 5.3594C6.64047 5.3594 6.7383 5.31907 6.81043 5.24728C6.88256 5.17549 6.92308 5.07811 6.92308 4.97659C6.92308 4.87506 6.88256 4.77769 6.81043 4.7059C6.7383 4.6341 6.64047 4.59377 6.53846 4.59377ZM7.69231 4.97659C7.69231 4.87506 7.73283 4.77769 7.80496 4.7059C7.87709 4.6341 7.97492 4.59377 8.07692 4.59377C8.17893 4.59377 8.27676 4.6341 8.34889 4.7059C8.42102 4.77769 8.46154 4.87506 8.46154 4.97659C8.46154 5.07811 8.42102 5.17549 8.34889 5.24728C8.27676 5.31907 8.17893 5.3594 8.07692 5.3594C7.97492 5.3594 7.87709 5.31907 7.80496 5.24728C7.73283 5.17549 7.69231 5.07811 7.69231 4.97659ZM8.07692 6.12503C7.97492 6.12503 7.87709 6.16536 7.80496 6.23715C7.73283 6.30894 7.69231 6.40631 7.69231 6.50784C7.69231 6.60937 7.73283 6.70674 7.80496 6.77853C7.87709 6.85033 7.97492 6.89066 8.07692 6.89066C8.17893 6.89066 8.27676 6.85033 8.34889 6.77853C8.42102 6.70674 8.46154 6.60937 8.46154 6.50784C8.46154 6.40631 8.42102 6.30894 8.34889 6.23715C8.27676 6.16536 8.17893 6.12503 8.07692 6.12503ZM6.15385 6.50784C6.15385 6.40631 6.19437 6.30894 6.2665 6.23715C6.33863 6.16536 6.43646 6.12503 6.53846 6.12503C6.64047 6.12503 6.7383 6.16536 6.81043 6.23715C6.88256 6.30894 6.92308 6.40631 6.92308 6.50784C6.92308 6.60937 6.88256 6.70674 6.81043 6.77853C6.7383 6.85033 6.64047 6.89066 6.53846 6.89066C6.43646 6.89066 6.33863 6.85033 6.2665 6.77853C6.19437 6.70674 6.15385 6.60937 6.15385 6.50784ZM5 6.12503C4.89799 6.12503 4.80017 6.16536 4.72804 6.23715C4.65591 6.30894 4.61539 6.40631 4.61539 6.50784C4.61539 6.60937 4.65591 6.70674 4.72804 6.77853C4.80017 6.85033 4.89799 6.89066 5 6.89066C5.10201 6.89066 5.19983 6.85033 5.27196 6.77853C5.34409 6.70674 5.38462 6.60937 5.38462 6.50784C5.38462 6.40631 5.34409 6.30894 5.27196 6.23715C5.19983 6.16536 5.10201 6.12503 5 6.12503ZM3.07692 6.50784C3.07692 6.40631 3.11744 6.30894 3.18957 6.23715C3.2617 6.16536 3.35953 6.12503 3.46154 6.12503C3.56354 6.12503 3.66137 6.16536 3.7335 6.23715C3.80563 6.30894 3.84615 6.40631 3.84615 6.50784C3.84615 6.60937 3.80563 6.70674 3.7335 6.77853C3.66137 6.85033 3.56354 6.89066 3.46154 6.89066C3.35953 6.89066 3.2617 6.85033 3.18957 6.77853C3.11744 6.70674 3.07692 6.60937 3.07692 6.50784ZM1.92308 6.12503C1.82107 6.12503 1.72324 6.16536 1.65111 6.23715C1.57898 6.30894 1.53846 6.40631 1.53846 6.50784C1.53846 6.60937 1.57898 6.70674 1.65111 6.77853C1.72324 6.85033 1.82107 6.89066 1.92308 6.89066C2.02508 6.89066 2.12291 6.85033 2.19504 6.77853C2.26717 6.70674 2.30769 6.60937 2.30769 6.50784C2.30769 6.40631 2.26717 6.30894 2.19504 6.23715C2.12291 6.16536 2.02508 6.12503 1.92308 6.12503ZM1.53846 8.0391C1.53846 7.93757 1.57898 7.8402 1.65111 7.76841C1.72324 7.69662 1.82107 7.65629 1.92308 7.65629C2.02508 7.65629 2.12291 7.69662 2.19504 7.76841C2.26717 7.8402 2.30769 7.93757 2.30769 8.0391C2.30769 8.14063 2.26717 8.238 2.19504 8.30979C2.12291 8.38158 2.02508 8.42192 1.92308 8.42192C1.82107 8.42192 1.72324 8.38158 1.65111 8.30979C1.57898 8.238 1.53846 8.14063 1.53846 8.0391ZM3.46154 7.65629C3.35953 7.65629 3.2617 7.69662 3.18957 7.76841C3.11744 7.8402 3.07692 7.93757 3.07692 8.0391C3.07692 8.14063 3.11744 8.238 3.18957 8.30979C3.2617 8.38158 3.35953 8.42192 3.46154 8.42192C3.56354 8.42192 3.66137 8.38158 3.7335 8.30979C3.80563 8.238 3.84615 8.14063 3.84615 8.0391C3.84615 7.93757 3.80563 7.8402 3.7335 7.76841C3.66137 7.69662 3.56354 7.65629 3.46154 7.65629ZM4.61539 8.0391C4.61539 7.93757 4.65591 7.8402 4.72804 7.76841C4.80017 7.69662 4.89799 7.65629 5 7.65629C5.10201 7.65629 5.19983 7.69662 5.27196 7.76841C5.34409 7.8402 5.38462 7.93757 5.38462 8.0391C5.38462 8.14063 5.34409 8.238 5.27196 8.30979C5.19983 8.38158 5.10201 8.42192 5 8.42192C4.89799 8.42192 4.80017 8.38158 4.72804 8.30979C4.65591 8.238 4.61539 8.14063 4.61539 8.0391ZM6.53846 7.65629C6.43646 7.65629 6.33863 7.69662 6.2665 7.76841C6.19437 7.8402 6.15385 7.93757 6.15385 8.0391C6.15385 8.14063 6.19437 8.238 6.2665 8.30979C6.33863 8.38158 6.43646 8.42192 6.53846 8.42192C6.64047 8.42192 6.7383 8.38158 6.81043 8.30979C6.88256 8.238 6.92308 8.14063 6.92308 8.0391C6.92308 7.93757 6.88256 7.8402 6.81043 7.76841C6.7383 7.69662 6.64047 7.65629 6.53846 7.65629Z" fill="#5D5D5D"/>
</svg>
