<svg width="26" height="25" viewBox="0 0 26 25" fill="none" xmlns="http://www.w3.org/2000/svg">
<path d="M26.0001 9.48687C26.0007 9.12415 25.9077 8.76775 25.7308 8.45391C25.5538 8.14007 25.2991 7.87998 24.9926 7.70009L14.0401 1.02054C13.7245 0.83129 13.3656 0.731567 13.0001 0.731567C12.6347 0.731567 12.2758 0.83129 11.9601 1.02054L0.991358 7.70009C0.68825 7.88492 0.437155 8.1476 0.262753 8.46234C0.0883509 8.77708 -0.00335693 9.13304 -0.00335693 9.49522C-0.00335693 9.85741 0.0883509 10.2134 0.262753 10.5281C0.437155 10.8428 0.68825 11.1055 0.991358 11.2904L4.11136 13.1606V17.853C4.11324 18.2197 4.2069 18.5798 4.38335 18.8986C4.55979 19.2173 4.81308 19.4841 5.11886 19.6732L12.0251 23.7644C12.3335 23.9399 12.6801 24.0319 13.0326 24.0319C13.3851 24.0319 13.7318 23.9399 14.0401 23.7644L20.9464 19.6732C21.2521 19.4841 21.5054 19.2173 21.6819 18.8986C21.8583 18.5798 21.952 18.2197 21.9539 17.853V13.1105L23.9689 11.8915V16.4336H26.0001V9.48687ZM19.9389 17.8363L13.0001 21.9442L6.14261 17.853V14.3963L11.9601 17.9532C12.2768 18.1392 12.6353 18.237 13.0001 18.237C13.3649 18.237 13.7234 18.1392 14.0401 17.9532L19.9226 14.3462L19.9389 17.8363ZM13.0001 16.1497L2.03136 9.47017L13.0001 2.77392L23.9689 9.45348L13.0001 16.1497Z" fill="#4596C1"/>
</svg>
