<?xml version="1.0" encoding="utf-8"?><svg xmlns="http://www.w3.org/2000/svg" xmlns:xlink="http://www.w3.org/1999/xlink"><symbol viewBox="0 0 10 10" id="calendar" xmlns="http://www.w3.org/2000/svg">
    <path fill-rule="evenodd" clip-rule="evenodd" d="M2.69231 0C2.79431 0 2.89214 0.0403321 2.96427 0.112124C3.0364 0.183915 3.07692 0.281286 3.07692 0.382814V0.765629H6.92308V0.382814C6.92308 0.281286 6.9636 0.183915 7.03573 0.112124C7.10786 0.0403321 7.20569 0 7.30769 0C7.4097 0 7.50753 0.0403321 7.57966 0.112124C7.65179 0.183915 7.69231 0.281286 7.69231 0.382814V0.765629H8.84615C9.15217 0.765629 9.44566 0.886625 9.66205 1.102C9.87844 1.31737 10 1.60949 10 1.91407V8.80473C10 9.10931 9.87844 9.40143 9.66205 9.6168C9.44566 9.83218 9.15217 9.95317 8.84615 9.95317H1.15385C0.847827 9.95317 0.554342 9.83218 0.337954 9.6168C0.121566 9.40143 0 9.10931 0 8.80473V1.91407C0 1.60949 0.121566 1.31737 0.337954 1.102C0.554342 0.886625 0.847827 0.765629 1.15385 0.765629H2.30769V0.382814C2.30769 0.281286 2.34821 0.183915 2.42034 0.112124C2.49247 0.0403321 2.5903 0 2.69231 0ZM6.92308 1.53126V1.91407C6.92308 2.0156 6.9636 2.11297 7.03573 2.18476C7.10786 2.25655 7.20569 2.29689 7.30769 2.29689C7.4097 2.29689 7.50753 2.25655 7.57966 2.18476C7.65179 2.11297 7.69231 2.0156 7.69231 1.91407V1.53126H8.84615C8.94816 1.53126 9.04599 1.57159 9.11812 1.64338C9.19025 1.71517 9.23077 1.81254 9.23077 1.91407V3.06251H0.769231V1.91407C0.769231 1.81254 0.809753 1.71517 0.881882 1.64338C0.954011 1.57159 1.05184 1.53126 1.15385 1.53126H2.30769V1.91407C2.30769 2.0156 2.34821 2.11297 2.42034 2.18476C2.49247 2.25655 2.5903 2.29689 2.69231 2.29689C2.79431 2.29689 2.89214 2.25655 2.96427 2.18476C3.0364 2.11297 3.07692 2.0156 3.07692 1.91407V1.53126H6.92308ZM0.769231 3.82814V8.80473C0.769231 8.90626 0.809753 9.00363 0.881882 9.07542C0.954011 9.14721 1.05184 9.18754 1.15385 9.18754H8.84615C8.94816 9.18754 9.04599 9.14721 9.11812 9.07542C9.19025 9.00363 9.23077 8.90626 9.23077 8.80473V3.82814H0.769231ZM4.61539 4.97659C4.61539 4.87506 4.65591 4.77769 4.72804 4.7059C4.80017 4.6341 4.89799 4.59377 5 4.59377C5.10201 4.59377 5.19983 4.6341 5.27196 4.7059C5.34409 4.77769 5.38462 4.87506 5.38462 4.97659C5.38462 5.07811 5.34409 5.17549 5.27196 5.24728C5.19983 5.31907 5.10201 5.3594 5 5.3594C4.89799 5.3594 4.80017 5.31907 4.72804 5.24728C4.65591 5.17549 4.61539 5.07811 4.61539 4.97659ZM6.53846 4.59377C6.43646 4.59377 6.33863 4.6341 6.2665 4.7059C6.19437 4.77769 6.15385 4.87506 6.15385 4.97659C6.15385 5.07811 6.19437 5.17549 6.2665 5.24728C6.33863 5.31907 6.43646 5.3594 6.53846 5.3594C6.64047 5.3594 6.7383 5.31907 6.81043 5.24728C6.88256 5.17549 6.92308 5.07811 6.92308 4.97659C6.92308 4.87506 6.88256 4.77769 6.81043 4.7059C6.7383 4.6341 6.64047 4.59377 6.53846 4.59377ZM7.69231 4.97659C7.69231 4.87506 7.73283 4.77769 7.80496 4.7059C7.87709 4.6341 7.97492 4.59377 8.07692 4.59377C8.17893 4.59377 8.27676 4.6341 8.34889 4.7059C8.42102 4.77769 8.46154 4.87506 8.46154 4.97659C8.46154 5.07811 8.42102 5.17549 8.34889 5.24728C8.27676 5.31907 8.17893 5.3594 8.07692 5.3594C7.97492 5.3594 7.87709 5.31907 7.80496 5.24728C7.73283 5.17549 7.69231 5.07811 7.69231 4.97659ZM8.07692 6.12503C7.97492 6.12503 7.87709 6.16536 7.80496 6.23715C7.73283 6.30894 7.69231 6.40631 7.69231 6.50784C7.69231 6.60937 7.73283 6.70674 7.80496 6.77853C7.87709 6.85033 7.97492 6.89066 8.07692 6.89066C8.17893 6.89066 8.27676 6.85033 8.34889 6.77853C8.42102 6.70674 8.46154 6.60937 8.46154 6.50784C8.46154 6.40631 8.42102 6.30894 8.34889 6.23715C8.27676 6.16536 8.17893 6.12503 8.07692 6.12503ZM6.15385 6.50784C6.15385 6.40631 6.19437 6.30894 6.2665 6.23715C6.33863 6.16536 6.43646 6.12503 6.53846 6.12503C6.64047 6.12503 6.7383 6.16536 6.81043 6.23715C6.88256 6.30894 6.92308 6.40631 6.92308 6.50784C6.92308 6.60937 6.88256 6.70674 6.81043 6.77853C6.7383 6.85033 6.64047 6.89066 6.53846 6.89066C6.43646 6.89066 6.33863 6.85033 6.2665 6.77853C6.19437 6.70674 6.15385 6.60937 6.15385 6.50784ZM5 6.12503C4.89799 6.12503 4.80017 6.16536 4.72804 6.23715C4.65591 6.30894 4.61539 6.40631 4.61539 6.50784C4.61539 6.60937 4.65591 6.70674 4.72804 6.77853C4.80017 6.85033 4.89799 6.89066 5 6.89066C5.10201 6.89066 5.19983 6.85033 5.27196 6.77853C5.34409 6.70674 5.38462 6.60937 5.38462 6.50784C5.38462 6.40631 5.34409 6.30894 5.27196 6.23715C5.19983 6.16536 5.10201 6.12503 5 6.12503ZM3.07692 6.50784C3.07692 6.40631 3.11744 6.30894 3.18957 6.23715C3.2617 6.16536 3.35953 6.12503 3.46154 6.12503C3.56354 6.12503 3.66137 6.16536 3.7335 6.23715C3.80563 6.30894 3.84615 6.40631 3.84615 6.50784C3.84615 6.60937 3.80563 6.70674 3.7335 6.77853C3.66137 6.85033 3.56354 6.89066 3.46154 6.89066C3.35953 6.89066 3.2617 6.85033 3.18957 6.77853C3.11744 6.70674 3.07692 6.60937 3.07692 6.50784ZM1.92308 6.12503C1.82107 6.12503 1.72324 6.16536 1.65111 6.23715C1.57898 6.30894 1.53846 6.40631 1.53846 6.50784C1.53846 6.60937 1.57898 6.70674 1.65111 6.77853C1.72324 6.85033 1.82107 6.89066 1.92308 6.89066C2.02508 6.89066 2.12291 6.85033 2.19504 6.77853C2.26717 6.70674 2.30769 6.60937 2.30769 6.50784C2.30769 6.40631 2.26717 6.30894 2.19504 6.23715C2.12291 6.16536 2.02508 6.12503 1.92308 6.12503ZM1.53846 8.0391C1.53846 7.93757 1.57898 7.8402 1.65111 7.76841C1.72324 7.69662 1.82107 7.65629 1.92308 7.65629C2.02508 7.65629 2.12291 7.69662 2.19504 7.76841C2.26717 7.8402 2.30769 7.93757 2.30769 8.0391C2.30769 8.14063 2.26717 8.238 2.19504 8.30979C2.12291 8.38158 2.02508 8.42192 1.92308 8.42192C1.82107 8.42192 1.72324 8.38158 1.65111 8.30979C1.57898 8.238 1.53846 8.14063 1.53846 8.0391ZM3.46154 7.65629C3.35953 7.65629 3.2617 7.69662 3.18957 7.76841C3.11744 7.8402 3.07692 7.93757 3.07692 8.0391C3.07692 8.14063 3.11744 8.238 3.18957 8.30979C3.2617 8.38158 3.35953 8.42192 3.46154 8.42192C3.56354 8.42192 3.66137 8.38158 3.7335 8.30979C3.80563 8.238 3.84615 8.14063 3.84615 8.0391C3.84615 7.93757 3.80563 7.8402 3.7335 7.76841C3.66137 7.69662 3.56354 7.65629 3.46154 7.65629ZM4.61539 8.0391C4.61539 7.93757 4.65591 7.8402 4.72804 7.76841C4.80017 7.69662 4.89799 7.65629 5 7.65629C5.10201 7.65629 5.19983 7.69662 5.27196 7.76841C5.34409 7.8402 5.38462 7.93757 5.38462 8.0391C5.38462 8.14063 5.34409 8.238 5.27196 8.30979C5.19983 8.38158 5.10201 8.42192 5 8.42192C4.89799 8.42192 4.80017 8.38158 4.72804 8.30979C4.65591 8.238 4.61539 8.14063 4.61539 8.0391ZM6.53846 7.65629C6.43646 7.65629 6.33863 7.69662 6.2665 7.76841C6.19437 7.8402 6.15385 7.93757 6.15385 8.0391C6.15385 8.14063 6.19437 8.238 6.2665 8.30979C6.33863 8.38158 6.43646 8.42192 6.53846 8.42192C6.64047 8.42192 6.7383 8.38158 6.81043 8.30979C6.88256 8.238 6.92308 8.14063 6.92308 8.0391C6.92308 7.93757 6.88256 7.8402 6.81043 7.76841C6.7383 7.69662 6.64047 7.65629 6.53846 7.65629Z"/>
</symbol><symbol viewBox="0 0 26 25" id="education" xmlns="http://www.w3.org/2000/svg">
    <path d="M26.0001 9.48687C26.0007 9.12415 25.9077 8.76775 25.7308 8.45391C25.5538 8.14007 25.2991 7.87998 24.9926 7.70009L14.0401 1.02054C13.7245 0.83129 13.3656 0.731567 13.0001 0.731567C12.6347 0.731567 12.2758 0.83129 11.9601 1.02054L0.991358 7.70009C0.68825 7.88492 0.437155 8.1476 0.262753 8.46234C0.0883509 8.77708 -0.00335693 9.13304 -0.00335693 9.49522C-0.00335693 9.85741 0.0883509 10.2134 0.262753 10.5281C0.437155 10.8428 0.68825 11.1055 0.991358 11.2904L4.11136 13.1606V17.853C4.11324 18.2197 4.2069 18.5798 4.38335 18.8986C4.55979 19.2173 4.81308 19.4841 5.11886 19.6732L12.0251 23.7644C12.3335 23.9399 12.6801 24.0319 13.0326 24.0319C13.3851 24.0319 13.7318 23.9399 14.0401 23.7644L20.9464 19.6732C21.2521 19.4841 21.5054 19.2173 21.6819 18.8986C21.8583 18.5798 21.952 18.2197 21.9539 17.853V13.1105L23.9689 11.8915V16.4336H26.0001V9.48687ZM19.9389 17.8363L13.0001 21.9442L6.14261 17.853V14.3963L11.9601 17.9532C12.2768 18.1392 12.6353 18.237 13.0001 18.237C13.3649 18.237 13.7234 18.1392 14.0401 17.9532L19.9226 14.3462L19.9389 17.8363ZM13.0001 16.1497L2.03136 9.47017L13.0001 2.77392L23.9689 9.45348L13.0001 16.1497Z"/>
</symbol><symbol viewBox="0 0 9 16" id="facebook" xmlns="http://www.w3.org/2000/svg">
    <path d="M5.5665 9.14999H7.48316L8.24983 6.08333H5.5665V4.54999C5.5665 3.76033 5.5665 3.01666 7.09983 3.01666H8.24983V0.440662C7.9999 0.407695 7.05613 0.333328 6.05946 0.333328C3.97796 0.333328 2.49983 1.60369 2.49983 3.93666V6.08333H0.199829V9.14999H2.49983V15.6667H5.5665V9.14999Z"/>
</symbol><symbol viewBox="0 0 17 16" id="github" xmlns="http://www.w3.org/2000/svg">
    <path d="M8.4998 0.522659C4.26396 0.522659 0.833131 3.95349 0.833131 8.18933C0.832208 9.79868 1.33806 11.3675 2.27892 12.6731C3.21978 13.9788 4.54789 14.9551 6.07483 15.4635C6.45816 15.5302 6.6023 15.3002 6.6023 15.0985C6.6023 14.9168 6.59233 14.3135 6.59233 13.671C4.66646 14.026 4.16813 13.2018 4.0148 12.7702C3.92816 12.5494 3.5548 11.8693 3.22896 11.6869C2.96063 11.5435 2.5773 11.1885 3.219 11.1793C3.82313 11.1694 4.254 11.7352 4.39813 11.9652C5.08813 13.1244 6.18983 12.7985 6.63066 12.5977C6.69813 12.0993 6.899 11.7643 7.1198 11.5726C5.41396 11.381 3.63146 10.7193 3.63146 7.78683C3.63146 6.95269 3.92816 6.26346 4.4173 5.72679C4.34063 5.53513 4.0723 4.74929 4.49396 3.69513C4.49396 3.69513 5.13566 3.49349 6.6023 4.48019C7.22645 4.30723 7.87129 4.22031 8.51896 4.22183C9.17063 4.22183 9.8223 4.30769 10.4356 4.48019C11.9023 3.48353 12.544 3.69513 12.544 3.69513C12.9656 4.74929 12.6973 5.53513 12.6206 5.72679C13.109 6.26346 13.4065 6.94349 13.4065 7.78683C13.4065 10.7293 11.6148 11.381 9.90893 11.5726C10.1865 11.8118 10.4264 12.2718 10.4264 12.991C10.4264 14.016 10.4165 14.8402 10.4165 15.0993C10.4165 15.3002 10.5606 15.5394 10.9439 15.4627C12.4656 14.9487 13.7879 13.9706 14.7246 12.6658C15.6613 11.3611 16.1653 9.79549 16.1657 8.18933C16.1657 3.95349 12.7349 0.522659 8.49903 0.522659"/>
</symbol><symbol viewBox="0 0 17 16" id="githubaccent" xmlns="http://www.w3.org/2000/svg">
    <path d="M8.4998 0.522659C4.26396 0.522659 0.833131 3.95349 0.833131 8.18933C0.832208 9.79868 1.33806 11.3675 2.27892 12.6731C3.21978 13.9788 4.54789 14.9551 6.07483 15.4635C6.45816 15.5302 6.6023 15.3002 6.6023 15.0985C6.6023 14.9168 6.59233 14.3135 6.59233 13.671C4.66646 14.026 4.16813 13.2018 4.0148 12.7702C3.92816 12.5494 3.5548 11.8693 3.22896 11.6869C2.96063 11.5435 2.5773 11.1885 3.219 11.1793C3.82313 11.1694 4.254 11.7352 4.39813 11.9652C5.08813 13.1244 6.18983 12.7985 6.63066 12.5977C6.69813 12.0993 6.899 11.7643 7.1198 11.5726C5.41396 11.381 3.63146 10.7193 3.63146 7.78683C3.63146 6.95269 3.92816 6.26346 4.4173 5.72679C4.34063 5.53513 4.0723 4.74929 4.49396 3.69513C4.49396 3.69513 5.13566 3.49349 6.6023 4.48019C7.22645 4.30723 7.87129 4.22031 8.51896 4.22183C9.17063 4.22183 9.8223 4.30769 10.4356 4.48019C11.9023 3.48353 12.544 3.69513 12.544 3.69513C12.9656 4.74929 12.6973 5.53513 12.6206 5.72679C13.109 6.26346 13.4065 6.94349 13.4065 7.78683C13.4065 10.7293 11.6148 11.381 9.90893 11.5726C10.1865 11.8118 10.4264 12.2718 10.4264 12.991C10.4264 14.016 10.4165 14.8402 10.4165 15.0993C10.4165 15.3002 10.5606 15.5394 10.9439 15.4627C12.4656 14.9487 13.7879 13.9706 14.7246 12.6658C15.6613 11.3611 16.1653 9.79549 16.1657 8.18933C16.1657 3.95349 12.7349 0.522659 8.49903 0.522659"/>
</symbol><symbol viewBox="0 0 24 25" id="heart" xmlns="http://www.w3.org/2000/svg">
    <path fill-rule="evenodd" clip-rule="evenodd" d="M12.6924 7.58373C12.3055 7.95505 11.6945 7.95505 11.3076 7.58373L10.6152 6.91927C9.80477 6.14154 8.70994 5.66667 7.5 5.66667C5.01472 5.66667 3 7.68139 3 10.1667C3 12.5493 4.28979 14.5167 6.15176 16.1332C8.01532 17.7511 10.2434 18.8241 11.5746 19.3717C11.853 19.4862 12.147 19.4862 12.4254 19.3717C13.7566 18.8241 15.9847 17.7511 17.8482 16.1332C19.7102 14.5167 21 12.5493 21 10.1667C21 7.68139 18.9853 5.66667 16.5 5.66667C15.2901 5.66667 14.1952 6.14154 13.3848 6.91927L12.6924 7.58373ZM12 5.47624C10.8321 4.35548 9.24649 3.66667 7.5 3.66667C3.91015 3.66667 1 6.57682 1 10.1667C1 16.5349 7.97034 20.0517 10.8138 21.2214C11.5796 21.5364 12.4204 21.5364 13.1862 21.2214C16.0297 20.0517 23 16.5349 23 10.1667C23 6.57682 20.0899 3.66667 16.5 3.66667C14.7535 3.66667 13.1679 4.35548 12 5.47624Z"/>
</symbol><symbol viewBox="0 0 24 24" id="heart-line" xmlns="http://www.w3.org/2000/svg">
    <path d="M12.001 4.52853C14.35 2.42 17.98 2.49 20.2426 4.75736C22.5053 7.02472 22.583 10.637 20.4786 12.993L11.9999 21.485L3.52138 12.993C1.41705 10.637 1.49571 7.01901 3.75736 4.75736C6.02157 2.49315 9.64519 2.41687 12.001 4.52853ZM18.827 6.1701C17.3279 4.66794 14.9076 4.60701 13.337 6.01687L12.0019 7.21524L10.6661 6.01781C9.09098 4.60597 6.67506 4.66808 5.17157 6.17157C3.68183 7.66131 3.60704 10.0473 4.97993 11.6232L11.9999 18.6543L19.0201 11.6232C20.3935 10.0467 20.319 7.66525 18.827 6.1701Z"/>
</symbol><symbol viewBox="0 0 19 20" id="linkedin" xmlns="http://www.w3.org/2000/svg">
    <path d="M5.7538 4.16666C5.7536 4.60869 5.59186 5.03252 5.30416 5.34493C5.01646 5.65733 4.62637 5.83272 4.2197 5.83249C3.81304 5.83227 3.42311 5.65647 3.13569 5.34375C2.84828 5.03103 2.68693 4.60702 2.68713 4.16499C2.68734 3.72297 2.84908 3.29913 3.13678 2.98673C3.42448 2.67432 3.81457 2.49894 4.22123 2.49916C4.6279 2.49938 5.01783 2.67519 5.30524 2.98791C5.59265 3.30062 5.754 3.72463 5.7538 4.16666ZM5.7998 7.06666H2.73313V17.5H5.7998V7.06666ZM10.6451 7.06666H7.5938V17.5H10.6145V12.025C10.6145 8.975 14.2715 8.69166 14.2715 12.025V17.5H17.2998V10.8917C17.2998 5.74999 11.8871 5.94166 10.6145 8.46666L10.6451 7.06666Z"/>
</symbol><symbol viewBox="0 0 19 20" id="linkedinaccent" xmlns="http://www.w3.org/2000/svg">
    <path d="M5.7538 4.16666C5.7536 4.60869 5.59186 5.03252 5.30416 5.34493C5.01646 5.65733 4.62637 5.83272 4.2197 5.83249C3.81304 5.83227 3.42311 5.65647 3.13569 5.34375C2.84828 5.03103 2.68693 4.60702 2.68713 4.16499C2.68734 3.72297 2.84908 3.29913 3.13678 2.98673C3.42448 2.67432 3.81457 2.49894 4.22123 2.49916C4.6279 2.49938 5.01783 2.67519 5.30524 2.98791C5.59265 3.30062 5.754 3.72463 5.7538 4.16666ZM5.7998 7.06666H2.73313V17.5H5.7998V7.06666ZM10.6451 7.06666H7.5938V17.5H10.6145V12.025C10.6145 8.975 14.2715 8.69166 14.2715 12.025V17.5H17.2998V10.8917C17.2998 5.74999 11.8871 5.94166 10.6145 8.46666L10.6451 7.06666Z"/>
</symbol><symbol viewBox="0 0 24 24" id="linkexternal" xmlns="http://www.w3.org/2000/svg">
    <path d="m13 3 3.293 3.293-7 7 1.414 1.414 7-7L21 11V3z"/>
    <path d="M19 19H5V5h7l-2-2H5c-1.103 0-2 .897-2 2v14c0 1.103.897 2 2 2h14c1.103 0 2-.897 2-2v-5l-2-2v7z"/>
</symbol><symbol viewBox="0 0 24 24" id="search" xmlns="http://www.w3.org/2000/svg">
    <path d="M18.5 18.5L22 22M21 11.5C21 6.25329 16.7467 2 11.5 2C6.25329 2 2 6.25329 2 11.5C2 16.7467 6.25329 21 11.5 21C16.7467 21 21 16.7467 21 11.5Z" stroke-width="1.5" stroke-linecap="round" stroke-linejoin="round"/>
</symbol><symbol viewBox="0 0 24 24" id="search-line" xmlns="http://www.w3.org/2000/svg">
    <path d="M18.031 16.6168L22.3137 20.8995L20.8995 22.3137L16.6168 18.031C15.0769 19.263 13.124 20 11 20C6.032 20 2 15.968 2 11C2 6.032 6.032 2 11 2C15.968 2 20 6.032 20 11C20 13.124 19.263 15.0769 18.031 16.6168ZM16.0247 15.8748C17.2475 14.6146 18 12.8956 18 11C18 7.1325 14.8675 4 11 4C7.1325 4 4 7.1325 4 11C4 14.8675 7.1325 18 11 18C12.8956 18 14.6146 17.2475 15.8748 16.0247L16.0247 15.8748Z"/>
</symbol><symbol viewBox="0 0 25 25" id="suitcase" xmlns="http://www.w3.org/2000/svg">
    <path fill-rule="evenodd" clip-rule="evenodd" d="M9.375 1.5625C8.6498 1.5625 7.9543 1.85059 7.4415 2.36338C6.92871 2.87617 6.64062 3.57167 6.64062 4.29688V6.25H4.6875C3.8587 6.25 3.06384 6.57924 2.47779 7.16529C1.89174 7.75134 1.5625 8.5462 1.5625 9.375V20.3125C1.5625 21.1413 1.89174 21.9362 2.47779 22.5222C3.06384 23.1083 3.8587 23.4375 4.6875 23.4375H20.3125C21.1413 23.4375 21.9362 23.1083 22.5222 22.5222C23.1083 21.9362 23.4375 21.1413 23.4375 20.3125V9.375C23.4375 8.5462 23.1083 7.75134 22.5222 7.16529C21.9362 6.57924 21.1413 6.25 20.3125 6.25H18.3594V4.29688C18.3594 3.57167 18.0713 2.87617 17.5585 2.36338C17.0457 1.85059 16.3502 1.5625 15.625 1.5625H9.375ZM16.0156 6.25V4.29688C16.0156 4.19327 15.9745 4.09392 15.9012 4.02066C15.828 3.94741 15.7286 3.90625 15.625 3.90625H9.375C9.2714 3.90625 9.17204 3.94741 9.09879 4.02066C9.02553 4.09392 8.98438 4.19327 8.98438 4.29688V6.25H16.0156ZM4.6875 8.59375H20.3125C20.5197 8.59375 20.7184 8.67606 20.8649 8.82257C21.0114 8.96909 21.0938 9.1678 21.0938 9.375V10.9375H3.90625V9.375C3.90625 9.1678 3.98856 8.96909 4.13507 8.82257C4.28159 8.67606 4.4803 8.59375 4.6875 8.59375ZM3.90625 13.2812V20.3125C3.90625 20.5197 3.98856 20.7184 4.13507 20.8649C4.28159 21.0114 4.4803 21.0938 4.6875 21.0938H20.3125C20.5197 21.0938 20.7184 21.0114 20.8649 20.8649C21.0114 20.7184 21.0938 20.5197 21.0938 20.3125V13.2812H14.0625V15.625H10.9375V13.2812H3.90625Z"/>
</symbol><symbol viewBox="0 0 16 16" id="telegram" xmlns="http://www.w3.org/2000/svg">
    <path d="M14.4072 0.499937L0.9429 6.69079C0.0240186 7.13086 0.0293346 7.74207 0.774312 8.01462L4.23113 9.30042L12.2292 3.28342C12.6074 3.00906 12.9529 3.15665 12.6689 3.45728L6.18888 10.4305L5.95043 14.68C6.29975 14.68 6.45391 14.4889 6.64984 14.2634L8.32889 12.3166L11.8214 15.3926C12.4654 15.8154 12.9279 15.5981 13.0881 14.6818L15.3807 1.79841C15.6154 0.676509 15.0215 0.168527 14.4072 0.499937Z"/>
</symbol><symbol viewBox="0 0 24 24" id="user" xmlns="http://www.w3.org/2000/svg">
    <path d="M18.5588 19.5488C17.5654 16.8918 15.0036 15 12 15C8.99638 15 6.4346 16.8918 5.44117 19.5488M18.5588 19.5488C20.6672 17.7154 22 15.0134 22 12C22 6.47715 17.5228 2 12 2C6.47715 2 2 6.47715 2 12C2 15.0134 3.33285 17.7154 5.44117 19.5488M18.5588 19.5488C16.8031 21.0756 14.5095 22 12 22C9.49052 22 7.19694 21.0756 5.44117 19.5488M15 9C15 10.6569 13.6569 12 12 12C10.3431 12 9 10.6569 9 9C9 7.34315 10.3431 6 12 6C13.6569 6 15 7.34315 15 9Z" stroke-width="1.5" stroke-linejoin="round"/>
</symbol><symbol viewBox="0 0 24 24" id="user-star-line" xmlns="http://www.w3.org/2000/svg">
    <path d="M12 14V16C8.68629 16 6 18.6863 6 22H4C4 17.5817 7.58172 14 12 14ZM12 13C8.685 13 6 10.315 6 7C6 3.685 8.685 1 12 1C15.315 1 18 3.685 18 7C18 10.315 15.315 13 12 13ZM12 11C14.21 11 16 9.21 16 7C16 4.79 14.21 3 12 3C9.79 3 8 4.79 8 7C8 9.21 9.79 11 12 11ZM18 21.5L15.0611 23.0451L15.6224 19.7725L13.2447 17.4549L16.5305 16.9775L18 14L19.4695 16.9775L22.7553 17.4549L20.3776 19.7725L20.9389 23.0451L18 21.5Z"/>
</symbol><symbol id="website" enable-background="new 0 0 497 497" viewBox="0 0 497 497" xmlns="http://www.w3.org/2000/svg">
    <g>
        <path d="m497 128.5v312c0 11.046-8.954 20-20 20h-457c-11.046 0-20-8.954-20-20v-312z"/>
        <g>
            <path d="m290.498 294.5c0-23.196-18.804-42-42-42-7.031 0-13.659 1.728-19.482 4.782-13.386 7.021-19.327 21.053-19.327 37.218 0 23.196 15.613 36.457 38.809 36.457 16.214 0 30.282-3.645 37.282-17.099 3.014-5.792 4.718-12.376 4.718-19.358z"/>
            <path d="m286.468 312.47c-6.73 14.21-21.2 24.03-37.97 24.03-23.2 0-42-18.8-42-42 0-16.77 9.82-31.24 24.03-37.97-2.59 5.45-4.03 11.54-4.03 17.97 0 23.2 18.8 42 42 42 6.43 0 12.52-1.44 17.97-4.03z"/>
        </g>
        <g>
            <path d="m429.496 294.5c0-23.196-18.804-42-42-42-7.031 0-13.659 1.728-19.482 4.782-13.386 7.021-19.327 21.053-19.327 37.218 0 23.196 15.613 36.457 38.809 36.457 16.214 0 30.282-3.645 37.282-17.099 3.014-5.792 4.718-12.376 4.718-19.358z"/>
            <path d="m425.466 312.47c-6.73 14.21-21.2 24.03-37.97 24.03-23.2 0-42-18.8-42-42 0-16.77 9.82-31.24 24.03-37.97-2.59 5.45-4.03 11.54-4.03 17.97 0 23.2 18.8 42 42 42 6.43 0 12.52-1.44 17.97-4.03z"/>
        </g>
        <path d="m497 148.5v-20l-276.011-12.798-220.989 12.798v20 292c0 11.046 8.954 20 20 20h15c-8.28 0-15-6.72-15-15v-291c0-3.314 2.686-6 6-6z"/>
        <g>
            <path d="m497 56.5v72.5h-497v-72.5c0-11.046 8.954-20 20-20h457c11.046 0 20 8.954 20 20z"/>
            <g>
                <path d="m227.758 108.5c-8.255 0-14.947-6.716-14.947-15s6.692-15 14.947-15h208.315c8.255 0 14.947 6.716 14.947 15s-6.692 15-14.947 15z"/>
                <ellipse cx="160.869" cy="93.5" rx="14.947" ry="15"/>
                <path d="m171.361 104.184 12.874-12.869-13.139 1.179z"/>
                <path d="m150.592 82.608 12.562-12.516-2.693 10.408z"/>
                <ellipse cx="98.034" cy="93.5" rx="14.947" ry="15"/>
                <path d="m108.553 104.157 12.382-12.499-12.674.836z"/>
                <path d="m87.757 82.608 12.371-12.459-2.502 10.351z"/>
                <ellipse cx="32.947" cy="93.5" rx="14.947" ry="15"/>
                <path d="m43.769 103.846 12.721-13.186-13.139 1.381z"/>
                <path d="m22.67 82.608 11.622-12.038-1.753 9.93z"/>
            </g>
            <ellipse cx="173.849" cy="80.5" rx="14.947" ry="15"/>
            <path d="m217.514 82.577 12.971-12.991-3.025 14.276z"/>
            <path d="m446.83 103.915 13.149-13.179-10.185 3.381z"/>
            <ellipse cx="110.946" cy="80.5" rx="14.947" ry="15"/>
            <ellipse cx="45.495" cy="80.5" rx="14.947" ry="15"/>
            <path d="m240.737 95.5c-8.255 0-14.947-6.716-14.947-15s6.692-15 14.947-15h208.315c8.255 0 14.947 6.716 14.947 15s-6.692 15-14.947 15z"/>
        </g>
        <path d="m135.893 215 226.628 2c5.523 0 10-4.477 10-10l3.479-7v-30c0-5.523-4.477-10-10-10h-224l-6.107 5c-5.523 0-10 4.477-10 10v30c0 5.523 4.477 10 10 10z"/>
        <path d="m376 200v10c0 5.523-4.477 10-10 10h-234c-5.523 0-10-4.477-10-10v-40c0-5.523 4.477-10 10-10h10v33c0 3.866 3.134 7 7 7z"/>
        <g>
            <path d="m151.5 294.5c0-23.196-18.804-42-42-42-7.031 0-13.659 1.728-19.482 4.782-13.386 7.021-19.327 21.053-19.327 37.218 0 23.196 15.613 36.457 38.809 36.457 16.214 0 30.282-3.645 37.282-17.099 3.014-5.792 4.718-12.376 4.718-19.358z"/>
            <path d="m147.47 312.47c-6.73 14.21-21.2 24.03-37.97 24.03-23.2 0-42-18.8-42-42 0-16.77 9.82-31.24 24.03-37.97-2.59 5.45-4.03 11.54-4.03 17.97 0 23.2 18.8 42 42 42 6.43 0 12.52-1.44 17.97-4.03z"/>
        </g>
        <g>
            <g>
                <path d="m149.5 374h-70c-4.142 0-7.5-3.358-7.5-7.5s3.358-7.5 7.5-7.5h70c4.142 0 7.5 3.358 7.5 7.5s-3.358 7.5-7.5 7.5z"/>
            </g>
            <g>
                <path d="m149.5 404h-80c-4.142 0-7.5-3.358-7.5-7.5s3.358-7.5 7.5-7.5h80c4.142 0 7.5 3.358 7.5 7.5s-3.358 7.5-7.5 7.5z"/>
            </g>
            <g>
                <path d="m149.5 434h-80c-4.142 0-7.5-3.358-7.5-7.5s3.358-7.5 7.5-7.5h80c4.142 0 7.5 3.358 7.5 7.5s-3.358 7.5-7.5 7.5z"/>
            </g>
        </g>
        <g>
            <g>
                <path d="m288.5 374h-70c-4.142 0-7.5-3.358-7.5-7.5s3.358-7.5 7.5-7.5h70c4.143 0 7.5 3.358 7.5 7.5s-3.357 7.5-7.5 7.5z"/>
            </g>
            <g>
                <path d="m288.5 404h-80c-4.142 0-7.5-3.358-7.5-7.5s3.358-7.5 7.5-7.5h80c4.143 0 7.5 3.358 7.5 7.5s-3.357 7.5-7.5 7.5z"/>
            </g>
            <g>
                <path d="m288.5 434h-80c-4.142 0-7.5-3.358-7.5-7.5s3.358-7.5 7.5-7.5h80c4.143 0 7.5 3.358 7.5 7.5s-3.357 7.5-7.5 7.5z"/>
            </g>
        </g>
        <g>
            <g>
                <path d="m427.5 374h-70c-4.143 0-7.5-3.358-7.5-7.5s3.357-7.5 7.5-7.5h70c4.143 0 7.5 3.358 7.5 7.5s-3.357 7.5-7.5 7.5z"/>
            </g>
            <g>
                <path d="m427.5 404h-80c-4.143 0-7.5-3.358-7.5-7.5s3.357-7.5 7.5-7.5h80c4.143 0 7.5 3.358 7.5 7.5s-3.357 7.5-7.5 7.5z"/>
            </g>
            <g>
                <path d="m427.5 434h-80c-4.143 0-7.5-3.358-7.5-7.5s3.357-7.5 7.5-7.5h80c4.143 0 7.5 3.358 7.5 7.5s-3.357 7.5-7.5 7.5z"/>
            </g>
        </g>
    </g>
</symbol></svg>