<svg width="214" height="79" fill="none" xmlns="http://www.w3.org/2000/svg"><path d="M130.284 4.076C95.342.986 56.863-2.747 25.603 15.56c-8.091 4.739-19.4 11.89-22.146 21.604-4.283 15.15 16.822 23.728 27.779 26.428 33.4 8.23 70.559 8.947 104.617 5.188 16.644-1.837 45.279-6.15 52.86-24.403 4.992-12.019-5.731-23.217-15.451-28.309-25.053-13.122-58.439-14.59-85.986-11.992-22.655 2.137-46.14 7.734-65.942 19.314-8.861 5.183-25.536 15.356-19.1 27.983C9.982 66.57 31.999 71.176 47.029 73.538c31.468 4.948 64.857 5.446 96.61 3.422 19.481-1.243 44.605-2.048 61.116-14.034 13.433-9.752 7.446-22.308-4.666-29.683C152.221 4.1 91.521-.117 41 14.151" stroke="#C7D7EB" stroke-width="1.387" stroke-linecap="round"/></svg>