<svg width="450" height="300" fill="none" xmlns="http://www.w3.org/2000/svg"><path fill-rule="evenodd" clip-rule="evenodd" d="M26.377 15.766c-.006.186-.01.374-.01.562V269.44c0 9.018 7.311 16.328 16.329 16.328h379.037c-1.027 7.156-7.183 12.656-14.622 12.656H16.328c-8.159 0-14.773-6.614-14.773-14.773V30.539c0-8.16 6.614-14.773 14.773-14.773h10.05zm.127-1.555H16.328C7.31 14.21 0 21.52 0 30.539v253.113c0 9.018 7.31 16.328 16.328 16.328H407.11c8.3 0 15.153-6.193 16.191-14.211h10.176c9.018 0 16.328-7.31 16.328-16.328V16.328C449.806 7.31 442.496 0 433.478 0H42.696c-8.3 0-15.154 6.193-16.192 14.21zm1.43 1.555c-.008.186-.011.374-.011.562V269.44c0 8.159 6.614 14.773 14.773 14.773h379.177c.007-.186.01-.374.01-.562V30.539c0-8.16-6.614-14.773-14.772-14.773H27.933zm395.495 268.448c.006-.186.009-.374.009-.562V30.539c0-9.018-7.31-16.328-16.327-16.328H28.073C29.1 7.055 35.256 1.555 42.696 1.555h390.782c8.159 0 14.773 6.614 14.773 14.773V269.44c0 8.159-6.614 14.773-14.773 14.773h-10.049z" fill="#C7D7EB"/></svg>