<svg width="444" height="313" fill="none" xmlns="http://www.w3.org/2000/svg"><path d="M443 44.5l-.01-.42-.03-.42-.05-.42-.071-.42-.09-.419-.11-.42-.131-.42-.15-.42-.171-.42-.191-.42-.21-.42-.231-.42-.251-.42-.27-.42-.291-.42-.311-.42-.33-.42-.351-.421-.371-.42-.39-.421-.41-.42-.43-.422-.45-.42-.47-.422-.49-.42-.509-.422-.529-.421-.549-.421-.569-.422-.588-.422-.608-.421-.627-.422-.647-.422-.667-.423-.686-.422-.706-.422-.725-.423-.745-.423-.763-.423-.784-.423-.802-.423-.822-.424-.841-.423-.86-.424-.88-.424-.898-.424-.918-.424-.936-.425-.956-.425-.974-.425-.993-.425-1.012-.425-1.031-.425-1.05-.426-1.068-.426-1.087-.426-1.106-.426-1.124-.427-1.142-.427-1.161-.426-1.179-.428-1.198-.427-1.215-.428-1.234-.427-1.252-.429-1.27-.428-1.289-.428-1.306-.43-1.323-.428-1.342-.43-1.359-.429-1.378-.43-1.394-.43-1.412-.43-1.43-.43-1.447-.43-1.464-.431-1.482-.431-1.499-.432-1.516-.431-1.533-.432-1.55-.432-1.567-.433-1.583-.432-1.601-.433-1.617-.433-1.633-.433-1.65-.434-1.667-.434-1.683-.434-1.699-.434-1.715-.434-1.732-.435-1.747-.435-1.764-.435-1.779-.436-1.795-.435-1.81-.436-1.826-.436-1.842-.436-1.857-.437-1.873-.437-1.887-.437-1.903-.437-1.918-.437-1.932-.438-1.948-.438-1.962-.438-1.977-.438-1.992-.438-2.006-.44-2.02-.438-2.035-.439-2.049-.44-2.062-.439-2.077-.44-2.091-.439-2.105-.44-2.118-.44-2.132-.44-2.145-.44-2.159-.44-2.171-.442-2.186-.44-2.198-.441-2.211-.441-2.224-.442-2.236-.441-2.249-.441-2.262-.442-2.274-.442-2.287-.441-2.298-.442-2.311-.442-2.323-.442-2.335-.442-2.346-.442-2.358-.443-2.369-.442-2.381-.442-2.392-.442-2.404-.443-2.414-.442-2.425-.443-2.436-.442-2.447-.442-2.458-.443-2.468-.442-2.478-.443-2.488-.442-2.499-.442-2.509-.442-2.518-.443-2.528-.442-2.538-.442-2.548-.442-2.556-.441-2.567-.442-371.572-51.981-2.623-.285-2.614-.281-2.606-.28-2.598-.276-2.589-.273-2.58-.271-2.571-.269-2.563-.265-2.553-.263-2.544-.26-2.535-.258-2.525-.254-2.516-.252-2.506-.25-2.496-.245-2.486-.243-2.477-.24-2.466-.238-2.456-.234-2.446-.231-2.435-.228-2.425-.226-2.414-.222-2.403-.219-2.392-.216-2.382-.212-2.37-.21-2.36-.206-2.348-.204-2.336-.2-2.325-.196-2.314-.194-2.302-.19-2.29-.187-2.278-.183-2.266-.18-2.254-.177-2.242-.173-2.23-.17-2.218-.166-2.204-.163-2.193-.16-2.18-.155-2.167-.152-2.154-.149-2.141-.145-2.128-.141-2.115-.138-2.102-.134-2.089-.13-2.075-.127-2.062-.123-2.048-.119-2.035-.115-2.021-.112-2.007-.107-1.993-.104-1.979-.1-1.966-.096-1.951-.092-1.936-.088-1.923-.084-1.908-.08-1.894-.077-1.879-.072-1.865-.068-1.85-.064-1.835-.06-1.82-.056-1.806-.052-1.79-.047-1.776-.044-1.76-.039-1.745-.035-1.73-.03-1.715-.027-1.699-.022-1.683-.018-1.668-.013-1.653-.01-1.637-.005h-1.621l-1.605.004-1.59.008-1.573.013-1.558.017-1.541.022-1.526.026-1.509.03-1.493.036-1.477.04-1.46.044-1.445.05-1.427.053-1.411.058-1.395.063-1.378.067-1.361.072-1.345.077-1.328.081-1.311.087-1.294.09-1.278.096-1.26.1-1.244.106-1.226.11-1.21.115-1.192.12-1.175.124-1.158.13-1.141.134-1.123.14-1.106.143-1.089.15-1.072.153-1.054.16-1.036.163-1.019.17-1.002.173-.984.179-.966.184-.949.189-.931.194-.914.198-.896.204-.878.21-.86.214-.843.22-.825.224-.807.23-.789.234-.771.24-.753.245-.736.25-.718.255-.699.26-.682.267-.664.27-.645.277-.628.281-.61.287-.592.291-.573.297-.556.303-.538.307-.519.313-.502.318-.483.324-.465.329-.448.334-.429.339-.411.344-.393.35-.375.356-.356.36-.339.366-.321.371-.302.377-.284.382-.267.387-.248.393-.23.398-.212.403-.194.409-.176.414-.158.42-.14.424-.121.43-.104.436-.086.44-.068.447-.05.452-.031.457-.014.462.004.468.022.473.039.478.058.484.076.49.093.494.111.5.129.506.147.51.164.516.182.522.2.527.218.532.235.537.253.543.27.548.288.554.305.558.323.565.34.569.358.575.375.58.393.585.409.59.427.596.445.602.461.606.479.612.495.617.513.622.53.627.547.633.563.638.581.643.597.648.615.654.631.658.648.664.664.67.681.673.698.68.714.684.731.69.747.694.763.7.78.704.796.71.812.714.828.72.845.725.86.73.877.734.892.74.908.745.924.749.94.754.956.76.971.764.986.77 1.002.773 1.018.779 1.033.783 1.048.789 1.064.793 1.078.797 1.094.803 1.109.807 1.123.812 1.139.817 1.153.821 1.169.826 1.182.83 1.198.835 1.212.84 1.226.844 1.241.849 1.255.853 1.27.858 1.283.862 1.298.866 1.312.871 1.326.875 1.339.88 1.353.884 1.367.888 1.381.892 1.394.897 1.408.901 1.421.905 1.434.91 1.447.913 1.461.917 1.474.922 1.486.925 1.5.93 1.512.934 1.525.937 1.538.942 1.55.945 1.563.95 1.575.953 1.587.957 1.6.96 1.611.965 1.624.968 1.635.972 1.648.976 1.659.979 1.67.982 1.683.987 1.693.99 1.705.993 1.717.997 1.727 1 1.739 1.003 1.75 1.007 1.76 1.01 1.771 1.014 1.782 1.017 1.793 1.02 1.803 1.023 1.814 1.026 1.824 1.03 1.834 1.032 1.844 1.036 1.854 1.038 1.865 1.042 1.874 1.044 1.883 1.047 1.894 1.05 1.903 1.053 1.912 1.056 1.922 1.058 1.931 1.061 1.94 1.064 1.949 1.066 1.958 1.07 1.966 1.07 1.976 1.074 1.984 1.077L47.558 193.113l4.316 1.901 2.15.944 2.144.939 2.137.934 2.132.93 2.125.925 2.12.92 2.113.915 2.106.91 2.1.905 2.094.9 2.088.895 2.08.89 2.073.885 2.067.879 2.06.874 2.053.869 2.045.863 2.038.858 2.031.853 2.024.846 2.017.841 2.008.836 2.002.83 1.993.824 1.986.818 1.978.813 1.97.806 1.962.801 1.954.794 1.946.789 1.938.782 1.929.776 1.921.77 1.913.764 1.904.758 1.896.751 1.887.745 1.878.738 1.87.732 1.861.726 1.851.718 1.843.713 1.834.705 1.825.699 1.815.692 1.807.686 1.797.678 1.787.672 1.779.665 1.768.658 1.76.65 1.749.644 1.74.637 1.73.629 1.721.623 1.71.615 1.701.607 1.691.601 1.68.593 1.671.586 1.66.578 1.651.571 1.64.564 1.629.556 1.62.548 1.609.541 1.598.533 1.588.525 1.577.518 1.567.509 1.556.502 1.546.495 1.534.486 1.524.478 1.513.47 1.502.463 1.491.454 1.48.446 1.47.439 1.458.43 1.446.422 1.436.413 1.425.406 1.413.397 1.402.389 1.39.38 1.38.372 1.368.364 1.356.355 1.345.347 1.333.339 1.322.33 1.31.321 1.299.312 1.287.305 1.275.295 1.264.287 1.251.278 1.24.269 1.228.261 1.217.252 1.204.243 1.192.234 1.181.225 1.168.217 1.157.207 1.145.199 1.132.189 1.12.181 1.109.172 1.096.162 1.084.154 1.072.144 1.059.136 1.048.126 1.035.117 1.023.108 1.01.099.999.089.986.081.974.071.961.062.949.052.937.044.924.034.912.024.899.015.887.006.875-.003.862-.013.85-.022.837-.032.825-.041.812-.05.8-.06.787-.07.775-.078.762-.089.75-.098.737-.107.724-.117.712-.127.7-.136.687-.145.674-.155.662-.165.649-.174.637-.184.625-.194.611-.203.599-.213.587-.222.574-.232.562-.241.549-.252.536-.26.524-.271.511-.28.5-.289.486-.3.474-.309.461-.318.449-.328.437-.338.424-.348.412-.357.399-.366.387-.377.374-.386.362-.395.35-.406.337-.414.325-.425.313-.434.3-.444.288-.453.276-.463.263-.472.251-.482.239-.492.227-.501.215-.51.202-.52.19-.53.178-.539.166-.549.154-.558.142-.568.13-.577.118-.587.106-.596.094-.605.082-.615.07-.624.059-.634.046-.643.035-.652.022-.662.011-.671v-.68l-.013-.69-.024-.699-.035-.708-.047-.717-.059-.727-.071-.735-.082-.745-.093-.754-.105-.763-.116-.772-.127-.782-.139-.79-.15-.799-.162-.809-.173-.817-.183-.826-.195-.835-.207-.844-.217-.853-.228-.862-.239-.871-.25-.879-.261-.888-.272-.897-.283-.906-.293-.914-.305-.923-.315-.931-.325-.94-.336-.949-.347-.957-.358-.965-.367-.974-.379-.983-.388-.991-.399-.999-.409-1.007-.42-1.016-.43-1.024-.44-1.032-.45-1.04-.46-1.049-.47-1.056-.48-1.065-.49-1.072-.499-1.081-.51-1.088-.519-1.096-.53-1.104-.538-1.112-.549-1.12-.558-1.128-.567-1.135-.577-1.142-.586-1.151-.596-1.158-.605-1.165-.614-1.173-.623-1.18-.633-1.188-.641-1.195-.651-1.202-.66-1.209-.668-1.217-.677-1.224-.687-1.231-.694-1.237-.704-1.245-.712-1.252-.721-1.259-.729-1.265-.738-1.273-.746-1.279-.755-1.286-.763-1.292-.771-1.299-.779-1.306-.788-1.312-.795-1.318-.804-1.325-.811-1.331-.819-1.337-.827-1.344-.835-1.35-.843-1.356-.85-1.362-.858-1.367-.865-1.374-.873-1.38-.88-1.386-.887-1.391-.895-1.397-.902-1.402-.909-1.409-.916-1.413-.924-1.42-.93-1.424-.937-1.43-.944-1.436-.951-1.44-.957-1.446-.964-1.451-.971-1.455-.977-1.461-.984-1.466-.99-1.471-.996-1.475-1.003-1.48-1.009-1.485-1.015-1.489-1.021-1.494-2.061-3.002L55.911-101.938l-2.547-2.869-1.27-1.427-1.268-1.421-1.267-1.415-1.264-1.41-1.262-1.403-1.26-1.398-1.258-1.391-1.256-1.385-1.254-1.38-1.25-1.373-1.25-1.366-1.246-1.361-1.244-1.353-1.242-1.348-1.24-1.341-1.236-1.334-1.234-1.327-1.232-1.321-1.228-1.313-1.227-1.307-1.223-1.3-1.22-1.293-1.219-1.286-1.215-1.278-1.213-1.272-1.21-1.264-1.206-1.256-1.203-1.25-1.201-1.241-1.198-1.234-1.194-1.227-1.192-1.219-1.188-1.211-1.185-1.203-1.183-1.196-1.178-1.187-1.176-1.18-1.172-1.171-1.17-1.163-1.165-1.156-1.163-1.146-1.159-1.139-1.155-1.13-1.153-1.122-1.148-1.114-1.146-1.105-1.141-1.096-1.139-1.087-1.134-1.079-1.131-1.071-1.128-1.061-1.123-1.053-1.12-1.043-1.117-1.035-1.112-1.025-1.11-1.017-1.104-1.007-1.102-.999-1.097-.989-1.094-.979-1.09-.971-1.085-.96-1.082-.952-1.079-.942-1.074-.932-1.07-.923-1.066-.913-1.062-.904-1.058-.894-1.054-.884-1.05-.874-1.046-.864-1.042-.854-1.038-.845-1.033-.834-1.03-.824-1.025-.814-1.021-.804-1.017-.794-1.013-.784-1.008-.773-1.004-.763-1-.752-.996-.743-.991-.731-.987-.721-.983-.711-.979-.7-.974-.69-.97-.678-.965-.669-.961-.657-.957-.647-.952-.635-.948-.625-.943-.615-.939-.603-.934-.592-.93-.581-.926-.571-.921-.559-.917-.548-.912-.537-.908-.526-.903-.515-.9-.504-.893-.492-.89-.481-.885-.47-.881-.458-.876-.448-.872-.435-.867-.425-.862-.413-.858-.401-.854-.391-.849-.378-.844-.367-.84-.356-.835-.344-.83-.332-.827-.321-.821-.309-.817-.298-.812-.285-.808-.275-.803-.262-.799-.251-.794-.239-.79-.227-.784-.215-.78-.204-.776-.192-.772-.18-.766-.168-.762-.156-.758-.145-.753-.132-.748-.121-.744-.109-.74-.097-.734-.085-.73-.073-.726-.061-.72-.049-.717-.037-.712-.026-.708-.013-.703-.001-.698.01-.694.023-.689.035-.685.046-.681.059-.676.071-.671.082-.667.095-.663.106-.658.119-.653.131-.65.142-.644.155-.641.167-.636.178-.631.191-.627.203-.623.214-.618.227-.614.239-.61.25-.605.263-.601.274-.596.287-.593.298-.588.31-.583.322-.58.335-.575.346-.57.358-.567.369-.562.382-.558.394-.554.405-.55.417-.545.429-.542.441-.537.452-.533.465-.528.476-.525.488-.52.499-.517.511-.512.523-.508.535-.505.546-.5.557-.496.57-.492.581-.488.592-.484.604-.48.615-.476.627-.472.639-.468.649-.464.661-.461.673-.456.684-.453.695-.448.706-.445.718-.441.729-.438.74-.433.751-.43.763-.425.773-.422.785-.419.795-.414.807-.411.817-.407.829-.404.839-.4.85-.396.861-.393.872-.389.882-.385.894-.382.904-.378.914-.375.925-.371.936-.367.946-.365.957-.36.967-.357.977-.354.988-.351.998-.346 1.009-.344 1.018-.34 1.029-.337 1.039-.333 1.049-.33 1.059-.327 1.069-.324 1.079-.32 1.088-.317 1.099-.313 1.108-.311 1.118-.307 1.128-.304 1.138-.301 1.147-.298 1.156-.294 1.167-.292 1.175-.288 1.185-.285 1.194-.282 1.204-.279 1.213-.276 1.221-.273 1.231-.27 1.241-.267 1.249-.264 1.258-.261 1.267-.258 1.275-.255 1.285-.253 1.293-.249 1.302-.246 1.311-.244 1.319-.241 1.327-.238 1.336-.235 1.344-.232 1.353-.23 1.361-.226 1.369-.224 1.377-.222 1.385-.218 1.393-.216 1.401-.213 1.409-.21 1.417-.208 1.424-.205 1.432-.203 1.44-.2 1.447-.197 1.455-.195 1.462-.192 1.47-.189 1.476-.187 1.484-.185 1.491-.182 1.498-.179 1.505-.177 1.512-.175 1.519-.172 1.526-.169 1.532-.167 1.54-.165 1.545-.163 1.552-.16 1.558-.157 1.565-.155 1.572-.153 1.577-.151 1.583-.148 1.59-.146 1.596-.143 1.601-.142 1.607-.139 1.613-.136 1.62-.135 1.624-.132 1.63.054 235.305.268 3.25.138 1.616.14 1.611.142 1.605.144 1.599.147 1.593.149 1.587.152 1.581.154 1.575.156 1.569.158 1.562.161 1.556.164 1.549.165 1.543.168 1.536.171 1.53.173 1.523.176 1.516.178 1.509.18 1.502.183 1.496.186 1.488.188 1.481.19 1.474.193 1.466.196 1.459.198 1.452.201 1.444.204 1.437.206 1.429.209 1.421.211 1.413.215 1.406.217 1.398.219 1.39.223 1.382.225 1.374.228 1.365.23 1.358.234 1.349.236 1.341.239 1.332.242 1.324.245 1.316.247 1.307.251 1.298.253 1.29.256 1.281.26 1.272.262 1.264.265 1.254.268 1.245.272 1.237.274 1.227.277 1.218.28 1.209.284 1.2.286 1.191.29 1.181.293 1.171.295 1.162.299 1.153.302 1.143.306 1.134.308 1.124.312 1.114.315 1.104.318 1.095.322 1.085.325 1.075.328 1.065.331 1.055.335 1.044.338 1.035.342 1.025.344 1.014.349 1.004.351.994.356.984.358.973.362.963.366.952.369.942.373.932.376.92.379.911.384.899.386.889.391.878.394.868.398.856.401.846.405.835.409.824.412.813.416.802.42.791.424.78.427.769.431.758.435.747.439.735.442.724.447.714.45.701.454.691.458.679.462.668.466.657.47.645.474.633.477.623.482.61.486.599.489.588.494.576.498.565.501.553.506.541.51.53.514.518.518.507.522.494.527.483.53.472.535.459.538.448.543.436.548.424.551.412.555.401.56.389.564.377.568.364.573.354.577.341.581.329.585.317.59.306.594.293.598.282.603.269.607.258.611.246.616.234.62.221.625.21.629.198.633.186.638.173.642.162.646.15.651.138.656.125.66.114.664.102.669.09.673.077.678.066.682.054.687.042.691.029.696.018.7.006.705-.006.71-.018.713-.03.718-.043.723-.054.728-.066.732-.078.736-.089.742-.102.745-.114.75-.125.755-.138.76-.149.763-.161.769-.173.773-.185.778-.197.782-.208.787-.22.79-.232.797-.244.8-.256.805-.267.81-.279.814-.291.819-.302.823-.314.828-.325.833-.337.837-.349.841-.36.847-.372.85-.383.856-.395.86-.406.864-.418.869-.429.873-.44.878-.452.883-.463.887-.475.891-.485.896-.497.901-.509.905-.519.91-.53.914-.542.918-.553.923-.564.928-.574.932-.586.936-.597.94-.608.946-.618.95-.63.954-.64.958-.651.963-.662.967-.672.971-.683.976-.694.98-.704.985-.715.989-.726.993-.736.997-.746 1.002-.757 1.006-.767 1.01-.777 1.015-.788 1.018-.798 1.023-.808 1.027-.819 1.031-.828 1.035-.838 1.04-.849 1.043-.858 1.048-.868 1.052-.879 1.055-.887 1.06-.898 1.064-.908 1.068-.917 1.072-.927 1.075-.936 1.08-.946 1.084-.955 1.087-.965 1.091-.974 1.096-.983 1.099-.993 1.103-1.002 1.106-1.011 1.11-1.021 1.115-1.029 1.118-1.038 1.121-1.047 1.125-1.057 1.13-1.065 1.132-1.073 1.136-1.083 1.14-1.091 1.142-1.1 1.147-1.108 1.15-1.117 1.154-1.125 1.157-1.134 1.16-1.142 1.164-1.15 1.167-1.159 1.17-1.166 1.174-1.175 1.177-1.183 1.18-1.191 1.184-1.198 1.187-1.207 1.19-1.214 1.192-1.222 1.196-1.23 1.199-1.237 1.202-1.245 1.204-1.252 1.208-1.26 1.21-1.267 1.215-1.274 1.216-1.281 1.219-1.289 1.222-1.296 1.225-1.303 1.227-1.309 1.23-1.317 1.233-1.323 1.235-1.33 1.237-1.337 1.24-1.344 1.243-1.35 1.245-1.356 1.248-1.363 1.25-1.369 1.252-1.376 1.254-1.381 1.257-1.388 1.259-1.394 1.26-1.4 1.264-1.406 1.265-1.412 1.267-1.417 1.27-1.424 1.27-1.429L220.54-18.735l1.037-1.505 1.031-1.501 1.024-1.497 1.019-1.492 1.013-1.488 1.006-1.483 1-1.478.994-1.473.988-1.469.981-1.464.974-1.458.968-1.454.962-1.449.954-1.444.948-1.438.942-1.433.934-1.428.927-1.422.921-1.417.913-1.412.906-1.406.899-1.4.892-1.395.885-1.389.877-1.383.869-1.377.863-1.372.854-1.365.847-1.36.84-1.353.832-1.347.824-1.341.816-1.335.808-1.329.8-1.322.792-1.316.784-1.31.776-1.302.768-1.296.759-1.29.751-1.283.743-1.277.735-1.27.726-1.262.717-1.256.709-1.249.7-1.242.691-1.235.683-1.228.673-1.22.665-1.215.656-1.206.647-1.2.638-1.191.629-1.185.619-1.177.611-1.17.601-1.162.592-1.155.582-1.147.573-1.14.564-1.132.554-1.124.544-1.117.535-1.109.525-1.1.516-1.094.505-1.085.496-1.077.486-1.069.476-1.062.466-1.053.456-1.045.446-1.037.436-1.029.425-1.02.415-1.012.406-1.004.394-.996.385-.988.374-.979.363-.97.353-.962.343-.954.332-.945.321-.937.311-.927.3-.92.289-.91.278-.903.267-.893.257-.884.246-.876.234-.867.224-.858.213-.85.201-.84.191-.832.179-.822.168-.814.157-.805.146-.795.134-.787.123-.778.111-.768.1-.759.089-.751.077-.741.066-.732.054-.723.043-.713.031-.704.019-.696.008-.685-.005-.677-.015-.667-.028-.658-.04-.649-.051-.639-.063-.63-.075-.62-.087-.611-.099-.602-.11-.592-.123-.583-.135-.573-.147-.564-.159-.554-.171-.545-.183-.535-.195-.526-.207-.516-.22-.507-.232-.497-.244-.488-.256-.478-.268-.468-.281-.459-.293-.45-.305-.439-.318-.43-.33-.421-.342-.411-.355-.401-.367-.392-.379-.382-.392-.372-.405-.363-.416-.353-.429-.344-.442-.334-.454-.324-.467-.315-.479-.305-.491-.295-.504-.286-.517-.276-.529-.266-.541-.257-.555-.247-.566-.238-.579-.228-.592-.218-.604-.209-.617-.199-.63-.19-.642-.18-.654-.17-.667-.161-.679-.151-.693-.142-.704-.132-.717-.123-.73-.113-.742-.104-.755-.094-.767-.084-.78-.075-.792-.066-.805-.056-.818-.046-.829-.038-.843-.027-.854-.019-.868-.009-.879.001-.892.009-.905.019-.917.029-.929.038-.942.047-.954.056-.966.066-.979.075-.991.084-1.004.093-1.015.103-1.028.111-1.04.121-1.053.13-1.065.139-1.076.148-1.089.158-1.101.166-1.114.175-1.125.185-1.137.193-1.15.202-1.161.211-1.174.22-1.185.229-1.197.238-1.209.247-1.221.255-1.233.264-1.245.273-1.257.282-1.268.29-1.28.299-1.292.308-1.303.316-1.315.325-1.326.333-1.339.342-1.349.35-1.361.359-1.373.367-1.384.375-1.395.384-1.406.393-1.418.4-1.429.409-1.441.417-1.451.425-1.463.434-1.473.441-1.485.45-1.495.457-1.507.466-1.517.473-1.529.482-1.539.49-1.549.497-1.561.505-1.571.513-1.582.521-1.592.528-1.603.536-1.613.544-1.623.552-1.634.559-1.644.566-1.655.574-1.664.581-1.675.589-1.685.596-1.695.604-1.704.611-1.715.618-1.724.625-1.734.633-1.744.639-1.754.647-1.763.653-1.772.661-1.783.667-1.791.675-1.801.681-1.81.688-1.819.695-1.829.702-1.837.708-1.847.715-1.855.722-1.865.728-1.873.734-1.882.742-1.89.747-1.899.754-1.908.76-1.916.766-1.925.773-1.933.779-1.941.785-1.949.79-1.957.797-1.966.803-1.973.809-1.981.815-1.989.821-1.997.826-2.004.832-2.012.838-2.02.844-2.026.849-2.034.854-2.041.86-2.049.866-2.055.871-2.063.876-2.07.882-2.076.886-2.083.892-2.09.898-2.096.902-2.103.907-2.11.912-2.115.917-2.122.922-2.128.927-2.134.932-2.14.936-2.146.941-2.152.946-2.157.95-302.117 147.74-1.989 1.078-1.981 1.075-1.972 1.073-1.963 1.07-1.954 1.068-1.946 1.065-1.936 1.063-1.927 1.06-1.918 1.057-1.909 1.055-1.899 1.052-1.889 1.048-1.88 1.047-1.87 1.043-1.86 1.04-1.85 1.037-1.841 1.035-1.829 1.03-1.82 1.029-1.81 1.025-1.798 1.022-1.789 1.018-1.777 1.016-1.767 1.012-1.756 1.009-1.746 1.006-1.734 1.002-1.723.999-1.712.995-1.7.992-1.689.988-1.678.985-1.666.981-1.654.978-1.642.974-1.631.97-1.619.967-1.606.963-1.595.96-1.582.955-1.57.951-1.558.948-1.545.944-1.532.94-1.52.936-1.507.932-1.495.928-1.481.924-1.469.92-1.455.916-1.442.911-1.429.908-1.415.903-1.402.9-1.389.894-1.375.891-1.362.886-1.347.883-1.334.877-1.32.874-1.306.869-1.292.865-1.278.86-1.264.856-1.249.851-1.235.847-1.221.842-1.206.838-1.191.833-1.177.829-1.162.824-1.148.819-1.132.815-1.118.81-1.102.805-1.088.801-1.072.796-1.058.791-1.042.786-1.026.782-1.012.777-.995.772-.981.767-.965.762-.949.757-.933.753-.918.747-.901.743-.886.737-.87.733-.854.728-.838.723-.822.717-.805.713-.79.708-.773.702-.757.698-.74.692-.724.687-.707.683-.691.677-.675.672-.657.667-.641.661-.625.657-.607.651-.591.646-.573.641-.557.636-.54.63-.523.626-.506.62-.488.615-.472.609-.455.605-.437.599-.42.593-.402.589-.386.583-.368.578-.35.572-.334.568-.315.562-.299.556-.28.552-.263.546-.246.54-.228.535-.21.53-.193.525-.175.519-.157.514-.14.509-.121.503-.104.498-.086.492-.069.487-.05.482-.033.476-.014.471.003.466.021.46.04.455.057.449.075.444.093.439.111.433.129.428.147.423.166.417.183.412.201.406.22.402.237.395.256.391.273.385.292.38.31.374.328.369.346.364.364.358.382.353.4.348.419.343.436.337.455.332.473.326.49.322.509.316.527.31.545.306.563.3.581.295.599.29.617.284.635.279.653.274.672.269.689.264.707.258.724.253.743.248.761.243.779.238.796.233.814.227.832.222.85.218.868.212.885.207.903.202.921.197.938.192.956.187.974.181.991.177 1.009.172 1.026.167 1.044.162 1.061.157 1.078.152 1.096.147 1.113.142 1.131.137 1.148.132 1.165.128 1.182.122 1.199.118 1.216.113 1.234.108 1.25.103 1.268.099 1.284.094 1.301.089 1.318.084 1.335.08 1.351.075 1.368.07 1.385.065 1.402.061 1.417.056 1.435.052 1.45.047 1.468.043 1.483.038 1.5.033 1.516.029 1.532.024 1.548.02 1.564.016 1.58.01 1.596.007 1.612.002 1.627-.002 1.643-.007 1.659-.011 1.675-.015 1.69-.02 1.705-.024 1.721-.028 1.736-.032 1.751-.037 1.767-.041 1.781-.045 1.797-.049 1.811-.053 1.827-.058 1.841-.062 1.856-.065 1.87-.07 1.886-.074 1.899-.078 1.914-.082 1.929-.085 1.942-.09 1.957-.094 1.971-.098 1.985-.101 1.999-.105 2.013-.11 2.026-.113 2.041-.117 2.053-.12 2.068-.125 2.08-.128 2.094-.132 2.108-.135 2.12-.139 2.134-.143 2.146-.147 2.16-.15 2.172-.153 2.185-.158 2.197-.16 2.21-.165 2.223-.167 2.234-.171 2.247-.175 2.259-.178 2.272-.182 2.283-.184 2.295-.189 2.306-.191 2.318-.195 2.33-.198 2.342-.201 2.352-.205 2.364-.207 2.375-.211 2.386-.214 2.397-.217 2.407-.221 2.419-.223 2.429-.226 2.439-.23 2.45-.232 2.461-.236 2.47-.238 2.48-.242 2.491-.244 2.5-.247 2.51-.25 2.519-.253 2.53-.256 2.538-.258 2.548-.262 2.557-.264 2.566-.267 2.575-.269 2.584-.272 2.592-.275 2.601-.277 2.61-.28 374.22-52.171 5.134-.884 2.553-.442 2.544-.442 2.534-.442 2.524-.442 2.515-.442 2.504-.442 2.495-.442 2.484-.443 2.474-.442 2.464-.443 2.453-.442 2.442-.442 2.432-.443 2.421-.442 2.41-.443 2.399-.442 2.387-.442 2.376-.443 2.365-.442 2.353-.442 2.342-.442 2.33-.442 2.317-.442 2.306-.442 2.294-.442 2.282-.442 2.269-.441 2.256-.442 2.244-.441 2.232-.441 2.219-.442 2.205-.44 2.193-.442 2.18-.44 2.166-.44 2.154-.441 2.139-.44 2.127-.44 2.112-.44 2.099-.44 2.085-.44 2.072-.44 2.057-.44 2.043-.438 2.029-.44 2.014-.438 2-.438 1.986-.439 1.971-.438 1.956-.438 1.942-.438 1.926-.437 1.912-.437 1.897-.438 1.881-.436 1.866-.437 1.851-.436 1.835-.437 1.82-.436 1.804-.435 1.789-.436 1.773-.435 1.756-.436 1.741-.434 1.725-.435 1.709-.434 1.693-.434 1.676-.434 1.66-.434 1.643-.433 1.627-.434 1.61-.433 1.594-.432 1.577-.433 1.56-.432 1.543-.432 1.526-.432 1.509-.431 1.491-.431 1.475-.431 1.458-.431 1.439-.43 1.423-.431 1.405-.43 1.388-.43 1.369-.43 1.353-.429 1.334-.429 1.317-.429 1.298-.428 1.281-.429 1.263-.428 1.244-.428 1.227-.428 1.208-.427 1.19-.428 1.172-.427 1.153-.427 1.135-.426 1.117-.427 1.098-.426 1.079-.426 1.061-.426 1.042-.425 1.023-.426 1.004-.425.986-.425.967-.425.948-.424.928-.425.91-.424.891-.424.871-.424.853-.424.833-.423.814-.424.795-.423.775-.423.756-.423.737-.422.717-.423.698-.422.678-.423.658-.422.64-.422.619-.422.6-.421.58-.422.561-.422.541-.42.521-.422.501-.421.482-.421.461-.421.442-.421.422-.42.403-.422.382-.42.362-.42.343-.42.322-.421.303-.42.282-.42.263-.42.242-.42.223-.421.202-.42.183-.42.162-.42.143-.42.122-.42.102-.42.082-.42.063-.419.042-.42.022-.42.001-.42-.018-.419-.038-.42-.059-.42-.078-.42-.099-.419-.118-.42-.139-.42-.159-.42-.178-.42-.199-.42-.219-.42-.239-.42-.259-.42-.278-.42-.299-.42-.319-.42-.339-.42-.359-.421-.378-.42-.399-.421-.418-.421-.438-.421-.458-.42-.478-.422-.498-.421-.517-.421-.538-.422-.556-.421-.577-.422-.596-.421-.616-.422-.636-.422-.655-.422-.674-.423-.694-.422-.714-.422-.733-.423-.752-.423-.772-.423-.791-.423-.811-.424-.829-.423-.849-.424-.868-.424-.887-.424-.907-.424-.925-.424-.944-.425-.963-.425-.982-.425-1.001-.425-1.02-.425-1.039-.426-1.057-.425-1.076-.426-1.094-.427-1.113-.426-1.132-.427-1.15-.426-1.168-.428-1.187-.427-1.205-.427-1.223-.428-1.241-.428-1.26-.428-1.277-.428-1.295-.429-1.314-.429-1.331-.429-1.349-.43-1.366-.429-1.385-.43-1.401-.43-1.42-.43-1.436-.43-1.455-.431-1.471-.431-1.489-.431-1.505-.432-1.523-.431-1.54-.432-1.557-.432-1.574-.433-1.59-.433-1.607-.432-1.624-.434-1.64-.433-1.657-.434-1.674-.433-1.689-.435-1.706-.434-1.722-.434-1.738-.435-1.754-.435-1.769-.436-1.786-.435-1.801-.436-1.817-.436-1.833-.436-1.848-.436-1.863-.437-1.879-.437-1.893-.437-1.909-.437-1.924-.438-1.939-.437-1.953-.438-1.969-.438-1.983-.439-1.997-.438-2.012-.439-2.026-.439-2.041-.439-2.054-.44-2.069-.439-2.082-.44-2.097-.439-2.11-.44-2.124-.44-2.137-.44-2.151-.44-2.164-.441-2.177-.441-2.19-.441-2.204-.441-2.216-.441-2.229-.441-2.242-.442-2.254-.441-2.267-.442-2.279-.442-2.292-.441-2.303-.442-2.316-.442-2.327-.442-2.34-.442-2.351-.443-2.363-.442-2.374-.442-2.385-.442-2.397-.443-2.408-.442-2.418-.442-2.43-.443-2.441-.442-2.451-.443-2.462-.442-2.472-.442-2.482-.443-2.493-.442-2.503-.442-2.512-.443-2.523-.442-2.532-.442-2.542-.442-2.551-.442-2.561-.441-376.783-52.643-2.611-.28-2.602-.278-2.595-.275-2.585-.273-2.577-.27-2.567-.267-2.559-.265-2.549-.262-2.541-.259-2.531-.256-2.521-.253-2.512-.25-2.502-.249-2.492-.245-2.482-.241-2.472-.24-2.463-.235-2.451-.234-2.442-.23-2.431-.226-2.42-.224-2.41-.221-2.399-.218-2.388-.215-2.377-.211-2.366-.209-2.354-.205-2.344-.201-2.332-.2-2.32-.195-2.309-.192-2.297-.188-2.285-.186-2.274-.182-2.261-.178-2.249-.176-2.237-.171-2.225-.169-2.212-.165-2.2-.161-2.187-.158-2.175-.154-2.162-.151-2.148-.147-2.136-.144-2.123-.14-2.11-.136-2.097-.132-2.083-.13-2.07-.124-2.056-.122-2.043-.117-2.029-.114-2.015-.11-2.001-.106-1.988-.102-1.974-.099-1.959-.094-1.945-.09-1.931-.087-1.917-.083-1.902-.078-1.888-.075-1.874-.07-1.858-.067-1.844-.062-1.829-.058-1.815-.055-1.799-.05-1.784-.046-1.77-.041-1.754-.038-1.739-.033-1.723-.029-1.709-.025-1.692-.02-1.678-.016-1.661-.012-1.647-.007-1.63-.003-1.615.001-1.599.006-1.583.01-1.567.014-1.551.02-1.535.023-1.519.028-1.502.033-1.487.037-1.47.041-1.454.047-1.437.05-1.421.056-1.404.06-1.388.064-1.372.07-1.354.074-1.338.079-1.321.083-1.304.088-1.288.093-1.27.098-1.254.102-1.236.107-1.22.112-1.202.117-1.186.122-1.168.126-1.151.132-1.133.136-1.117.141-1.099.147-1.082.15-1.064.156-1.047.161-1.029.166-1.012.171-.995.176-.977.181-.959.186-.942.19-.924.197-.906.201-.889.206-.87.211-.854.217-.835.221-.818.227-.799.231-.782.237-.764.242-.746.247-.728.252-.711.258-.692.262-.675.268-.656.273-.638.279-.621.283-.602.289-.585.294-.566.299-.548.304-.531.31-.512.315-.494.32-.476.326-.458.331-.44.336-.421.342-.404.346-.386.353-.367.357-.35.363-.331.368-.313.373-.295.379-.277.384-.259.39-.241.394-.223.4-.204.406-.187.41-.168.417-.151.422-.132.427-.115.432-.096.438-.079.443-.06.448-.043.454-.024.46-.007.464.011.47.03.475.047.481.065.486.082.492.101.496.118.502.137.508.154.513.171.518.19.524.207.529.224.534.243.54.26.545.277.55.295.556.313.56.33.567.347.571.365.577.382.582.399.588.417.593.434.598.451.603.469.609.485.614.503.619.52.624.536.63.554.634.571.64.587.645.605.65.621.657.638.66.654.666.671.671.688.676.705.681.721.687.737.691.754.697.77.702.786.706.803.712.818.717.835.722.851.726.867.732.883.737.899.742.915.746.93.752.946.756.962.761.978.767.993.77 1.008.777 1.024.78 1.039.786 1.054.79 1.07.795 1.085.8 1.1.804 1.115.81 1.129.813 1.145.819 1.159.823 1.175.828 1.188.832 1.204.837 1.218.841 1.232.846 1.247.85 1.261.856 1.275.86 1.289.863 1.304.868 1.317.873 1.331.877 1.346.881 1.359.886 1.372.89 1.386.894 1.4.899 1.413.902 1.426.907 1.44.911 1.453.915 1.466.92 1.479.922 1.492.928 1.504.93 1.518.936 1.53.94 1.543.942 1.555.947 1.568.951 1.58.955 1.592.959 1.605.962 1.616.966 1.629.97 1.64.973 1.652.977 1.664.98 1.675.985 1.687.987 1.698.992 1.71.994 1.721.999 1.732 1.001 1.743 1.005 1.754 1.008 1.765 1.012 1.776 1.015 1.786 1.018 1.797 1.021 1.808 1.025 1.818 1.027 1.828 1.031 1.838 1.034 1.848 1.036 1.859 1.04 1.868 1.043 1.878 1.045 1.887 1.049 1.898 1.05 1.906 1.055 1.917 1.057 1.925 1.06 1.935 1.061 1.943 1.065 1.953 1.067 1.962 1.07 1.97 1.073 1.979 1.074 1.988 1.078 1.996 1.08L48.44 193.5l2.158.951 2.153.947 2.147.942 2.141.937 2.135.932 2.13.928 2.122.923 2.117.918 2.11.913 2.105.908 2.097.903 2.091.898 2.085.893 2.077.888 2.071.883 2.064.877 2.057.872 2.05.866 2.042.861 2.036.856 2.028.85 2.02.845 2.014.839 2.006.833 1.998.827 1.99.822 1.983.816 1.974.81 1.967.804 1.959.798 1.951.792 1.942.786 1.935.78 1.926.774 1.918.767 1.909.762 1.9.755 1.893.748 1.883.742 1.875.736 1.866.73 1.857.722 1.848.716 1.839.71 1.831.703 1.821.696 1.811.689 1.803.683 1.793.676 1.784.669 1.774.662 1.765.654 1.756.648 1.745.641 1.736.634 1.726.627 1.717.619 1.706.612 1.697.605 1.686.598 1.677.59 1.666.583 1.657.575 1.646.568 1.636.56 1.625.553 1.615.545 1.605.538 1.594.53 1.584.522 1.573.514 1.562.507 1.552.499 1.541.491 1.53.483 1.52.475 1.508.467 1.498.459 1.487.451 1.475.443 1.465.435 1.453.427 1.443.418 1.431.41 1.42.402 1.408.394 1.398.386 1.386.377 1.374.369 1.364.36 1.351.352 1.34.343 1.329.335 1.317.326 1.306.318 1.294.309 1.282.301 1.27.292 1.259.283 1.247.275 1.235.265 1.223.257 1.212.249 1.199.239 1.188.231 1.175.221 1.164.213 1.152.204 1.139.195 1.128.186 1.115.177 1.104.168 1.091.159 1.079.15 1.067.14 1.054.132 1.043.123 1.03.113 1.018.104 1.006.095.993.086.981.077.969.067.956.058.944.049.932.039.919.031.907.021.894.011.882.002.87-.007.857-.017.844-.026.833-.035.819-.045.807-.054.795-.064.782-.074.77-.082.757-.093.744-.101.732-.112.72-.121.707-.13.694-.14.682-.149.669-.159.657-.169.644-.178.632-.188.619-.197.607-.207.594-.217.581-.226.569-.236.557-.246.544-.255.531-.264.519-.275.506-.284.494-.293.482-.303.468-.313.457-.323.444-.332.431-.342.419-.351.407-.361.394-.371.382-.38.369-.39.357-.399.345-.409.332-.419.32-.428.307-.438.296-.448.283-.457.27-.467.259-.476.246-.486.234-.495.222-.505.209-.515.198-.524.185-.534.173-.543.162-.552.149-.562.137-.572.125-.581.113-.59.101-.6.089-.609.077-.619.065-.628.054-.638.041-.646.03-.657.018-.665.007-.675-.006-.684-.017-.693-.029-.703-.04-.712-.052-.721-.064-.73-.075-.74-.086-.748-.098-.758-.11-.767-.12-.776-.133-.784-.143-.794-.155-.804-.166-.811-.177-.821-.188-.83-.2-.839-.211-.848-.221-.856-.233-.866-.244-.874-.254-.883-.266-.892-.276-.9-.287-.909-.298-.918-.309-.926-.319-.935-.33-.944-.34-.952-.352-.96-.361-.969-.372-.978-.383-.985-.393-.995-.403-1.002-.413-1.011-.424-1.019-.434-1.027-.444-1.036-.454-1.043-.464-1.052-.474-1.06-.484-1.068-.494-1.075-.504-1.084-.513-1.092-.524-1.099-.533-1.107-.542-1.116-.553-1.122-.562-1.131-.571-1.138-.581-1.146-.59-1.153-.599-1.161-.609-1.169-.618-1.176-.627-1.183-.636-1.191-.645-1.197-.655-1.206-.663-1.212-.672-1.22-.681-1.226-.69-1.234-.698-1.241-.707-1.247-.716-1.255-.724-1.262-.733-1.268-.741-1.275-.75-1.282-.758-1.288-.766-1.295-.774-1.302-.783-1.308-.791-1.315-.798-1.321-.807-1.327-.815-1.334-.822-1.34-.83-1.346-.838-1.352-.846-1.359-.853-1.364-.861-1.37-.869-1.377-.875-1.382-.883-1.388-.891-1.393-.898-1.4-.904-1.404-.913-1.411-.919-1.416-.926-1.421-.933-1.427-.94-1.432-.946-1.438-.954-1.442-.96-1.448-.967-1.453-.973-1.458-.98-1.463-.986-1.468-.993-1.472-.999-1.477-1.005-1.482-1.012-1.487-1.017-1.491-2.054-2.996-2.076-3.014-164.3-209.029-2.545-2.865-1.27-1.425-1.267-1.418-1.266-1.413-1.263-1.407-1.262-1.401-1.259-1.395-1.257-1.389-1.255-1.383-1.252-1.377-1.25-1.37-1.249-1.364-1.245-1.358-1.243-1.351-1.241-1.345-1.238-1.338-1.236-1.331-1.233-1.325-1.23-1.318-1.228-1.311-1.225-1.304-1.223-1.297-1.22-1.29-1.216-1.282-1.214-1.276-1.212-1.268-1.208-1.261-1.205-1.254-1.203-1.246-1.2-1.239-1.196-1.231-1.193-1.223-1.19-1.216-1.187-1.208-1.184-1.2-1.181-1.192-1.178-1.185-1.174-1.176-1.171-1.168-1.168-1.16-1.164-1.152-1.161-1.143-1.158-1.135-1.154-1.127-1.151-1.119-1.147-1.11-1.144-1.101-1.14-1.093-1.137-1.084-1.133-1.075-1.13-1.067-1.126-1.058-1.122-1.049-1.119-1.04-1.114-1.031-1.111-1.022-1.108-1.012-1.103-1.004-1.1-.995-1.096-.985-1.092-.976-1.088-.966-1.085-.957-1.08-.948-1.076-.938-1.073-.928-1.069-.919-1.064-.91-1.06-.899-1.057-.89-1.052-.88-1.049-.87-1.044-.86-1.04-.851-1.036-.84-1.032-.83-1.028-.82-1.024-.81-1.019-.8-1.015-.79-1.011-.779-1.007-.769-1.002-.759-.998-.748-.994-.738-.99-.727-.985-.717-.981-.707-.977-.695-.972-.685-.968-.675-.964-.664-.96-.653-.954-.642-.95-.631-.946-.621-.942-.61-.937-.598-.933-.588-.928-.577-.924-.566-.92-.555-.914-.543-.91-.533-.907-.521-.901-.511-.897-.499-.892-.487-.888-.477-.884-.465-.878-.454-.875-.443-.87-.431-.865-.419-.86-.409-.857-.397-.851-.385-.847-.374-.843-.362-.838-.351-.833-.34-.829-.327-.824-.316-.82-.305-.814-.292-.811-.281-.806-.27-.801-.258-.797-.245-.792-.235-.788-.222-.783-.211-.778-.199-.774-.187-.77-.175-.764-.163-.76-.152-.756-.139-.751-.128-.747-.116-.742-.104-.737-.092-.733-.08-.728-.068-.724-.057-.72-.044-.714-.032-.71-.021-.706-.008-.7.004-.697.015-.692.028-.688.039-.683.052-.679.063-.674.076-.669.087-.666.1-.66.111-.657.124-.651.135-.648.148-.643.16-.638.171-.634.184-.63.195-.625.208-.621.219-.617.232-.612.243-.608.256-.603.267-.599.279-.595.292-.591.303-.586.315-.582.327-.577.339-.574.351-.569.363-.565.374-.56.387-.556.398-.553.41-.548.422-.543.434-.54.446-.535.457-.531.469-.527.481-.523.493-.519.504-.515.516-.511.527-.506.54-.503.55-.498.563-.495.574-.49.585-.486.598-.483.608-.478.62-.475.632-.47.643-.467.654-.462.666-.459.677-.455.689-.451.699-.447.711-.443.723-.44.733-.436.745-.431.755-.428.767-.425.778-.42.789-.417.8-.413.811-.41.822-.405.833-.402.844-.399.854-.394.866-.392.876-.387.887-.384.898-.38.908-.377.919-.373.929-.37.94-.366.951-.363.96-.359.972-.356.981-.352.992-.349 1.003-.346 1.012-.342 1.023-.339 1.033-.335 1.043-.332 1.053-.329 1.063-.325 1.073-.322 1.083-.319 1.093-.316 1.102-.312 1.113-.309 1.122-.306 1.132-.303 1.141-.3 1.151-.296 1.16-.293 1.17-.29 1.18-.287 1.188-.284 1.198-.281 1.208-.278 1.216-.275 1.226-.272 1.235-.268 1.243-.266 1.253-.263 1.262-.26 1.27-.257 1.28-.254 1.288-.251 1.296-.248 1.306-.245 1.314-.242 1.322-.24 1.331-.237 1.34-.234 1.347-.231 1.356-.228 1.364-.226 1.373-.223 1.38-.22 1.389-.217 1.396-.215 1.404-.212 1.412-.209 1.42-.207 1.428-.204 1.435-.202 1.443-.198 1.45-.197 1.458-.193 1.465-.191 1.472-.189 1.48-.186 1.487-.183 1.494-.181 1.501-.179 1.508-.176 1.514-.173 1.522-.171 1.528-.169 1.535-.166 1.542-.164 1.548-.161 1.555-.159 1.561-.157 1.568-.154 1.573-.152 1.58-.149 1.586-.148 1.592-.144 1.598-.143 1.604-.14 1.61-.139 1.615-.135 1.621-.134 1.627-.26 3.27.29 233.665.134 1.626.136 1.62.139 1.614.14 1.608.144 1.603.145 1.597.148 1.59.15 1.585.152 1.578.155 1.573.157 1.566.16 1.559.162 1.554.164 1.546.167 1.541.169 1.533.171 1.527.174 1.52.177 1.514.179 1.506.181 1.499.184 1.493.187 1.485.189 1.478.192 1.471.194 1.463.197 1.456.199 1.449.202 1.441.205 1.434.207 1.426.21 1.418.212 1.41.216 1.403.218 1.394.22 1.387.224 1.378.226 1.371.229 1.362.232 1.354.234 1.346.238 1.338.24 1.329.243 1.32.246 1.312.249 1.304.252 1.295.254 1.286.258 1.277.26 1.269.264 1.26.266 1.25.27 1.242.272 1.233.275 1.223.279 1.215.281 1.205.285 1.196.288 1.187.291 1.177.294 1.168.297 1.158.3 1.149.303 1.139.307 1.13.31 1.12.313 1.11.316 1.101.32 1.09.323 1.081.326 1.071.329 1.061.333 1.05.336 1.041.34 1.031.343 1.02.346 1.01.35 1 .353.99.356.98.36.969.364.958.367.948.37.938.374.927.378.917.381.905.385.896.388.884.392.874.395.863.4.852.402.841.407.831.41.819.414.809.418.798.421.786.425.776.429.764.433.753.436.743.441.73.444.72.448.709.452.697.455.686.46.675.463.663.468.652.471.64.476.629.479.618.483.606.488.594.491.583.495.572.499.56.504.548.507.537.512.525.516.513.519.502.524.49.528.478.532.466.537.455.54.443.545.431.549.419.553.408.557.396.561.384.566.372.57.36.574.348.579.336.583.325.587.312.591.301.596.288.6.277.605.265.609.253.613.24.617.229.622.217.626.205.631.193.635.181.64.169.644.157.648.144.653.133.657.121.662.109.666.097.671.085.675.073.679.06.684.049.689.037.693.025.698.013.702.001.706-.011.712-.023.715-.035.72-.047.725-.059.73-.071.733-.083.739-.094.743-.107.747-.119.752-.13.757-.142.761-.154.766-.166.77-.178.775-.19.78-.201.784-.214.788-.225.793-.236.798-.249.803-.26.807-.272.811-.284.816-.295.82-.307.826-.319.83-.33.834-.342.839-.353.843-.365.849-.377.852-.388.857-.399.862-.411.866-.422.871-.434.875-.445.88-.457.885-.467.888-.479.894-.491.898-.501.902-.513.907-.524.911-.535.916-.546.92-.557.926-.568.929-.58.934-.59.938-.601.942-.612.947-.623.952-.634.956-.645.96-.655.964-.666.97-.677.972-.688.978-.698.982-.708.986-.72.99-.729.996-.741.999-.75 1.003-.761 1.008-.772 1.012-.781 1.016-.792 1.02-.802 1.025-.812 1.029-.823 1.032-.832 1.037-.843 1.041-.852 1.045-.863 1.05-.872 1.053-.882 1.058-.892 1.06-.902 1.066-.911 1.07-.921 1.073-.931 1.078-.94 1.08-.95 1.086-.959 1.09-.969 1.092-.978 1.097-.987 1.1-.996 1.105-1.006 1.108-1.015 1.112-1.024 1.116-1.033 1.119-1.042 1.123-1.051 1.127-1.059 1.13-1.069 1.134-1.077 1.137-1.086 1.141-1.095 1.145-1.103 1.148-1.112 1.152-1.12 1.155-1.129 1.158-1.137 1.162-1.146 1.165-1.153 1.169-1.162 1.171-1.17 1.175-1.178 1.179-1.186 1.181-1.194 1.185-1.202 1.188-1.209 1.19-1.218 1.195-1.225 1.197-1.233 1.2-1.24 1.203-1.248 1.206-1.255 1.21-1.263 1.21-1.27 1.216-1.277 1.217-1.284 1.22-1.292 1.223-1.299 1.226-1.305 1.229-1.313 1.23-1.319 1.234-1.326 1.236-1.333 1.24-1.34 1.24-1.346 1.244-1.352 1.246-1.36 1.249-1.365 1.25-1.372 1.253-1.378 1.256-1.384 1.257-1.39 1.26-1.397 1.262-1.402 1.264-1.409 1.266-1.414 1.268-1.419 1.27-1.426 1.272-1.431L220.963-19.35l1.035-1.503 1.028-1.5 1.022-1.494 1.016-1.49 1.01-1.486 1.004-1.481.998-1.477.991-1.471.985-1.467.979-1.461.971-1.457.966-1.452.958-1.447.952-1.441.946-1.436.938-1.431.932-1.426.924-1.42.918-1.415.91-1.41.903-1.403.896-1.398.889-1.392.882-1.387.874-1.38.867-1.376.859-1.369.851-1.363.844-1.357.837-1.35.828-1.345.821-1.339.813-1.332.805-1.326.797-1.32.788-1.313.781-1.307.773-1.3.764-1.294.756-1.287.748-1.28.739-1.274.731-1.266.723-1.26.714-1.254.705-1.246.696-1.239.688-1.232.679-1.225.67-1.218.662-1.21.652-1.204.643-1.197.634-1.189.625-1.181.616-1.174.607-1.167.597-1.16.588-1.151.579-1.145.569-1.136.56-1.129.55-1.121.54-1.113.531-1.106.521-1.098.512-1.09.501-1.082.492-1.074.482-1.066.472-1.058.462-1.049.452-1.042.442-1.034.431-1.025.422-1.017.411-1.009.401-1.001.39-.992.38-.984.37-.976.359-.967.349-.959.338-.95.328-.941.317-.934.306-.924.296-.916.284-.907.274-.898.263-.89.252-.881.242-.872.23-.864.219-.854.208-.846.197-.837.186-.828.175-.819.163-.81.153-.801.141-.792.129-.783.119-.774.107-.764.095-.756.084-.747.073-.737.061-.728.049-.719.038-.71.026-.701.014-.691.003-.682-.009-.673-.02-.663-.033-.654-.044-.645-.056-.635-.068-.626-.08-.617-.092-.607-.103-.598-.116-.588-.128-.579-.139-.57-.152-.56-.164-.55-.176-.541-.188-.531-.2-.522-.212-.513-.225-.503-.237-.493-.249-.484-.261-.474-.273-.464-.286-.455-.298-.446-.31-.436-.323-.426-.335-.417-.347-.407-.36-.397-.372-.388-.384-.378-.397-.368-.41-.359-.422-.349-.434-.34-.446-.33-.46-.32-.471-.311-.484-.301-.497-.292-.509-.281-.522-.273-.534-.262-.547-.253-.559-.243-.572-.234-.584-.224-.597-.215-.609-.205-.622-.195-.635-.185-.647-.177-.659-.166-.672-.157-.685-.147-.697-.138-.71-.128-.722-.119-.735-.109-.747-.1-.76-.09-.772-.081-.785-.071-.798-.062-.81-.052-.822-.043-.835-.033-.847-.024-.86-.015-.872-.005-.885.004-.897.014-.91.023-.922.032-.934.042-.947.051-.959.06-.972.069-.983.079-.997.088-1.008.097-1.021.106-1.033.116-1.045.124-1.057.134-1.07.143-1.081.151-1.094.161-1.106.17-1.119.179-1.13.188-1.142.197-1.154.206-1.167.215-1.178.223-1.19.233-1.202.241-1.214.251-1.226.259-1.238.267-1.25.277-1.261.285-1.273.294-1.285.302-1.296.311-1.308.32-1.32.328-1.331.337-1.343.345-1.354.354-1.366.362-1.377.371-1.389.379-1.399.387-1.412.396-1.422.404-1.434.412-1.444.42-1.456.429-1.467.436-1.479.445-1.489.453-1.5.461-1.511.469-1.521.477-1.533.484-1.544.493-1.554.501-1.565.508-1.575.516-1.586.524-1.596.532-1.607.539-1.618.547-1.628.554-1.638.562-1.648.57-1.659.577-1.668.584-1.679.592-1.689.599-1.699.607-1.708.614-1.719.621-1.728.628-1.739.635-1.747.643-1.758.649-1.767.657-1.776.663-1.786.67-1.796.678-1.804.684-1.814.691-1.823.697-1.832.705-1.841.711-1.851.717-1.859.725-1.868.73-1.876.738-1.886.743-1.894.75-1.902.757-1.912.762-1.919.769-1.928.775-1.936.782-1.945.787-1.952.793-1.961.8-1.968.805-1.977.812-1.984.817-1.992.823-2 .828-2.008.835-2.015.84-2.022.846-2.03.851-2.037.857-2.044.862-2.051.868-2.059.873-2.065.879-2.072.883-2.08.889-2.085.894-2.093.899-2.099.905-2.105.909-2.112.914-2.118.919-2.125.924-2.13.929-2.137.934-2.142.938-2.149.943-2.154.947-2.16.952-300.053 146.712-1.994 1.08-1.986 1.076-1.977 1.074-1.969 1.072-1.959 1.07-1.951 1.066-1.942 1.065-1.932 1.061-1.924 1.059-1.914 1.056-1.904 1.053-1.896 1.051-1.885 1.048-1.876 1.045-1.866 1.042-1.856 1.039-1.846 1.036-1.836 1.033-1.826 1.03-1.815 1.027-1.806 1.023-1.794 1.021-1.784 1.017-1.773 1.015-1.763 1.01-1.752 1.008-1.74 1.004-1.73 1.001-1.718.998-1.708.993-1.695.99-1.685.988-1.673.983-1.661.98-1.649.976-1.638.973-1.626.969-1.614.965-1.601.961-1.59.958-1.577.954-1.565.95-1.553.946-1.54.942-1.527.939-1.515.934-1.502.93-1.489.927-1.476.922-1.463.918-1.45.914-1.437.91-1.423.906-1.41.902-1.397.897-1.383.894-1.369.889-1.356.884-1.342.881-1.329.876-1.314.871-1.3.868-1.286.863-1.272.858-1.258.854-1.244.849-1.229.845-1.215.841-1.2.836-1.185.831-1.171.827-1.156.822-1.142.818-1.126.812-1.112.808-1.096.804-1.082.799-1.066.794-1.051.789-1.036.784-1.02.78-1.005.775-.99.77-.974.765-.958.76-.943.755-.927.751-.911.745-.895.741-.88.735-.863.731-.847.726-.832.72-.815.716-.799.711-.783.705-.766.701-.75.695-.734.691-.717.685-.701.68-.684.675-.668.67-.65.665-.635.659-.617.655-.601.649-.583.644-.567.639-.55.633-.533.629-.516.623-.499.618-.482.613-.464.607-.448.602-.43.597-.413.592-.395.586-.379.581-.361.576-.343.57-.326.565-.309.56-.291.554-.274.55-.256.543-.238.539-.221.533-.203.528-.185.522-.168.517-.15.512-.132.506-.115.501-.096.496-.079.49-.061.485-.043.479-.026.475-.007.468.011.464.028.458.047.452.064.448.083.442.1.436.118.431.137.426.154.42.173.415.191.41.208.404.227.399.245.394.263.388.281.383.299.378.317.372.335.367.354.362.371.356.39.351.408.345.425.341.444.335.462.329.48.325.498.319.517.314.534.308.552.304.571.298.588.292.606.288.625.282.642.277.661.272.678.267.696.262.715.256.732.251.75.246.768.241.786.235.803.231.822.225.839.221.857.215.875.21.893.205.91.2.928.195.946.189.963.185.98.18.999.175 1.016.17 1.033.164 1.051.16 1.068.155 1.086.15 1.102.145 1.121.14 1.137.135 1.155.131 1.172.125 1.189.121 1.206.116 1.224.111 1.24.106 1.257.101 1.275.097 1.291.092 1.308.087 1.325.082 1.341.078 1.359.073 1.374.068 1.392.064 1.408.059 1.425.054 1.441.05 1.457.045 1.474.041 1.49.036 1.506.031 1.523.027 1.538.023 1.555.018 1.57.014 1.587.009 1.602.004 1.619.001 1.634-.004 1.649-.009 1.665-.012 1.681-.018 1.696-.021 1.712-.026 1.727-.029 1.742-.035 1.758-.038 1.773-.043 1.787-.046 1.803-.051 1.818-.055 1.832-.06 1.847-.063 1.862-.067 1.877-.072 1.891-.075 1.905-.08 1.92-.083 1.934-.087 1.949-.092 1.962-.095 1.977-.099 1.991-.103 2.004-.107 2.019-.111 2.032-.115 2.046-.118 2.059-.122 2.073-.126 2.086-.13 2.099-.133 2.113-.137 2.126-.141 2.139-.144 2.151-.148 2.165-.152 2.177-.155 2.19-.159 2.203-.162 2.215-.165 2.227-.17 2.24-.172 2.252-.176 2.264-.18 2.276-.182 2.288-.187 2.3-.189 2.311-.193 2.323-.196 2.335-.199 2.345-.203 2.358-.206 2.368-.209 2.379-.212 2.391-.215 2.401-.219 2.412-.221 2.423-.225 2.433-.228 2.444-.23 2.454-.234 2.465-.237 2.474-.239 2.485-.243 2.494-.245 2.504-.249 2.514-.251 2.524-.254 2.533-.257 2.542-.26 2.551-.262 2.561-.265 2.57-.268 2.578-.271 2.588-.273 2.596-.276 2.604-.278 2.613-.281 2.622-.284 2.629-.286 368.953-51.666 5.126-.884 2.549-.442 2.54-.442 2.53-.442 2.52-.442 2.511-.442 2.5-.442 2.491-.443 2.48-.442 2.47-.442 2.459-.443 2.449-.442 2.438-.443 2.427-.442 2.417-.442 2.405-.443 2.395-.442 2.382-.442 2.372-.443 2.36-.442 2.349-.442 2.336-.442 2.325-.442 2.313-.442 2.301-.442 2.289-.442 2.276-.441 2.264-.442 2.252-.442 2.239-.44 2.226-.442 2.214-.441 2.2-.441 2.188-.441 2.174-.44 2.161-.441 2.148-.44 2.134-.441 2.121-.44 2.107-.44 2.093-.44 2.08-.44 2.065-.439 2.052-.439 2.037-.439 2.023-.439 2.009-.439 1.994-.438 1.98-.438 1.965-.438 1.95-.438 1.935-.438 1.921-.437 1.905-.438 1.891-.436 1.875-.437 1.86-.437 1.844-.436 1.829-.436 1.814-.436 1.798-.436 1.782-.435 1.766-.436 1.751-.435 1.734-.434 1.718-.435 1.702-.434 1.686-.434 1.67-.434 1.653-.434 1.637-.433 1.62-.433 1.603-.433 1.587-.432 1.57-.433 1.553-.432 1.536-.432 1.519-.431 1.502-.432 1.485-.431 1.468-.43 1.45-.432 1.433-.43 1.415-.43 1.398-.43 1.381-.43 1.362-.43 1.345-.429 1.327-.429 1.31-.428 1.291-.429 1.274-.428 1.255-.429 1.237-.427 1.219-.428 1.201-.427 1.183-.428 1.164-.427 1.146-.426 1.127-.427 1.109-.426 1.091-.426 1.071-.426 1.053-.426 1.035-.426 1.015-.425.997-.425.978-.425.959-.425.94-.424.921-.425.902-.424.883-.424.864-.424.844-.423.826-.424.806-.423.787-.423.767-.423.748-.423.729-.423.709-.422.69-.422.67-.423.651-.422.631-.422.612-.422.592-.421.572-.422.552-.421.533-.422.513-.42.494-.422.473-.42.454-.422.434-.42.414-.421.394-.42.374-.421.354-.42.334-.421.315-.42.294-.42.275-.42.254-.42.234-.421.215-.42.194-.42.174-.42.155-.42.134-.42.114-.42.094-.42.074-.42.054-.419.034-.42.014-.42" stroke="#9EBBE0" stroke-opacity=".55" stroke-width="2"/></svg>