<svg width="450" height="300" viewBox="0 0 450 300" fill="none" xmlns="http://www.w3.org/2000/svg">
<path fill-rule="evenodd" clip-rule="evenodd" d="M26.3773 15.7658C26.371 15.9524 26.3678 16.1398 26.3678 16.3279V269.441C26.3678 278.459 33.678 285.769 42.6957 285.769H421.733C420.706 292.925 414.55 298.425 407.111 298.425H16.3279C8.16905 298.425 1.55504 291.811 1.55504 283.652V30.5386C1.55504 22.3798 8.16906 15.7658 16.3279 15.7658H26.3773ZM26.5038 14.2107H16.3279C7.31024 14.2107 0 21.521 0 30.5386V283.652C0 292.67 7.31022 299.98 16.3279 299.98H407.111C415.411 299.98 422.264 293.787 423.302 285.769H433.478C442.496 285.769 449.806 278.459 449.806 269.441V16.3279C449.806 7.31024 442.496 0 433.478 0H42.6957C34.3955 0 27.5418 6.19329 26.5038 14.2107ZM27.9333 15.7658C27.9264 15.9523 27.9228 16.1397 27.9228 16.3279V269.441C27.9228 277.6 34.5368 284.214 42.6957 284.214H421.873C421.88 284.028 421.883 283.84 421.883 283.652V30.5386C421.883 22.3798 415.269 15.7658 407.111 15.7658H27.9333ZM423.429 284.214C423.435 284.028 423.438 283.84 423.438 283.652V30.5386C423.438 21.521 416.128 14.2107 407.111 14.2107H28.0734C29.1003 7.05491 35.2557 1.55504 42.6957 1.55504H433.478C441.637 1.55504 448.251 8.16906 448.251 16.3279V269.441C448.251 277.6 441.637 284.214 433.478 284.214H423.429Z" fill="#C7D7EB"/>
</svg>
