<svg width="214" height="79" viewBox="0 0 214 79" fill="none" xmlns="http://www.w3.org/2000/svg">
<path d="M130.284 4.07585C95.342 0.986862 56.8628 -2.74651 25.6027 15.5613C17.5119 20.2998 6.20316 27.4508 3.45699 37.165C-0.825776 52.3148 20.2789 60.8934 31.2356 63.5933C64.6364 71.8238 101.795 72.5399 135.853 68.7807C152.497 66.9436 181.132 62.6315 188.713 44.378C193.705 32.359 182.982 21.1614 173.262 16.0694C148.209 2.94631 114.823 1.47752 87.2762 4.07587C64.6209 6.21281 41.1357 11.8107 21.3344 23.3914C12.4726 28.5742 -4.20217 38.7471 2.23453 51.3737C9.98105 66.5696 31.9981 71.1756 47.0275 73.5384C78.4962 78.4857 111.885 78.9842 143.638 76.9595C163.119 75.7173 188.243 74.9124 204.754 62.9255C218.187 53.1738 212.2 40.6179 200.088 33.2434C152.221 4.09927 91.5205 -0.117078 41 14.1506" stroke="#C7D7EB" stroke-width="1.38714" stroke-linecap="round"/>
</svg>
