<svg width="22" height="23" viewBox="0 0 22 23" fill="none" xmlns="http://www.w3.org/2000/svg">
<path d="M19.25 16.0833V11.5C19.25 9.81334 18.744 8.24493 17.875 6.93776M2.75004 16.0833V11.5C2.74977 10.0958 3.10794 8.7147 3.79062 7.48758C4.47331 6.26046 5.45793 5.2279 6.65123 4.48768C7.84453 3.74747 9.20703 3.32409 10.6097 3.25765C12.0124 3.19121 13.4088 3.4839 14.6667 4.10801M20.1667 14.7083V16.5417M1.83337 14.7083V16.5417" stroke="black" stroke-width="1.375" stroke-linecap="round"/>
<path d="M7.33333 13.1913C7.33333 12.49 7.33333 12.1399 7.17292 11.896C7.09345 11.7747 6.98673 11.6736 6.86125 11.6009C6.61283 11.4579 6.27733 11.4909 5.60725 11.5569C4.47792 11.6678 3.91325 11.7237 3.50808 12.028C3.30222 12.1839 3.13061 12.3805 3.00392 12.6055C2.75 13.0556 2.75 13.645 2.75 14.8266V16.2612C2.75 17.4299 2.75 18.0148 3.0085 18.4667C3.10567 18.6354 3.22667 18.7875 3.36783 18.9177C3.74642 19.266 4.29733 19.376 5.401 19.5924C6.17742 19.7454 6.56608 19.8224 6.853 19.6611C6.95945 19.6009 7.05291 19.5202 7.128 19.4237C7.33333 19.1597 7.33333 18.749 7.33333 17.9259V13.1913ZM14.6667 13.1913C14.6667 12.49 14.6667 12.1399 14.8271 11.896C14.9077 11.7741 15.0141 11.6724 15.1387 11.6009C15.3872 11.4579 15.7227 11.4909 16.3927 11.5569C17.5221 11.6678 18.0868 11.7237 18.4919 12.028C18.6963 12.1829 18.8677 12.3791 18.9961 12.6055C19.25 13.0547 19.25 13.6441 19.25 14.8257V16.2603C19.25 17.429 19.25 18.0139 18.9915 18.4658C18.8953 18.6344 18.7733 18.7866 18.6322 18.9168C18.2536 19.2651 17.7027 19.3751 16.599 19.5914C15.8226 19.7445 15.4339 19.8215 15.147 19.6602C15.0405 19.6 14.9471 19.5193 14.872 19.4228C14.6667 19.1597 14.6667 18.749 14.6667 17.9259V13.1913Z" stroke="black" stroke-width="1.375"/>
</svg>
