<svg width="19" height="19" viewBox="0 0 19 19" fill="none" xmlns="http://www.w3.org/2000/svg">
<g clip-path="url(#clip0_72_4)">
<path d="M4.6015 8.19183C4.6819 8.19183 4.77158 8.2042 4.87054 8.22894C4.9695 8.25368 5.06845 8.28769 5.16741 8.33099C5.26637 8.37428 5.36533 8.41448 5.46429 8.45159C5.56325 8.4887 5.65293 8.52581 5.73333 8.56292L5.58489 8.58148C5.53541 8.58766 5.48284 8.59075 5.42718 8.59075C5.32204 8.59075 5.22617 8.57529 5.13958 8.54437C5.05299 8.51344 4.97259 8.47324 4.89837 8.42376C4.82415 8.37428 4.74993 8.33717 4.67571 8.31243C4.6015 8.28769 4.53346 8.26914 4.47161 8.25677C4.40976 8.25677 4.3541 8.26914 4.30462 8.29388C4.25514 8.31862 4.20566 8.34645 4.15618 8.37737C4.15618 8.35263 4.13454 8.34026 4.09124 8.34026C4.13454 8.29697 4.21494 8.26295 4.33245 8.23821C4.44997 8.21347 4.53965 8.19801 4.6015 8.19183ZM5.85394 8.60931C6.10752 8.60931 6.33945 8.6526 6.54974 8.73919C6.46315 8.77011 6.37656 8.79485 6.28997 8.81341C6.20338 8.83196 6.1137 8.84433 6.02093 8.85052C5.89723 8.85052 5.7859 8.83815 5.68694 8.81341C5.71787 8.76393 5.74879 8.73301 5.77972 8.72064C5.81064 8.70827 5.83538 8.67116 5.85394 8.60931ZM9.49993 -6.72952e-05C10.372 -6.72952e-05 11.2101 0.114353 12.0141 0.343194C12.8181 0.572036 13.5727 0.890558 14.2778 1.29876C14.9828 1.70696 15.6261 2.20485 16.2075 2.79241C16.7888 3.37998 17.2836 4.02011 17.6918 4.71282C18.1 5.40553 18.4216 6.16009 18.6567 6.9765C18.8917 7.7929 19.0061 8.63405 18.9999 9.49993C18.9999 10.372 18.8855 11.2101 18.6567 12.0141C18.4278 12.8181 18.1093 13.5727 17.7011 14.2778C17.2929 14.9828 16.795 15.6261 16.2075 16.2075C15.6199 16.7888 14.9798 17.2836 14.287 17.6918C13.5943 18.1 12.8398 18.4216 12.0234 18.6567C11.207 18.8917 10.3658 19.0061 9.49993 18.9999C8.62786 18.9999 7.78981 18.8855 6.98577 18.6567C6.18174 18.4278 5.42718 18.1093 4.7221 17.7011C4.01702 17.2929 3.37379 16.795 2.79241 16.2075C2.21103 15.6199 1.71624 14.9798 1.30804 14.287C0.899835 13.5943 0.57822 12.8398 0.343194 12.0234C0.108168 11.207 -0.00625219 10.3658 -6.72952e-05 9.49993C-6.72952e-05 8.62786 0.114353 7.78981 0.343194 6.98577C0.572036 6.18174 0.890558 5.42718 1.29876 4.7221C1.70696 4.01702 2.20485 3.37379 2.79241 2.79241C3.37998 2.21103 4.02011 1.71624 4.71282 1.30804C5.40553 0.899835 6.16009 0.57822 6.9765 0.343194C7.7929 0.108168 8.63405 -0.00625219 9.49993 -6.72952e-05ZM16.5693 5.14886C16.4827 5.01279 16.3961 4.88291 16.3095 4.75921C16.2229 4.63551 16.1332 4.50872 16.0405 4.37884C16.0281 4.4345 16.0126 4.4747 15.9941 4.49944C15.9755 4.52418 15.9631 4.57985 15.957 4.66644C15.957 4.7221 15.9786 4.77467 16.0219 4.82415C16.0652 4.87363 16.1209 4.92311 16.1889 4.97259C16.2569 5.02207 16.325 5.05918 16.393 5.08392C16.461 5.10866 16.5198 5.1303 16.5693 5.14886ZM15.9291 4.23968C15.9291 4.28916 15.9199 4.32317 15.9013 4.34173H15.957C15.9817 4.34173 16.0003 4.34482 16.0126 4.35101L15.9291 4.23968ZM9.49993 17.8124C10.205 17.8124 10.8946 17.7228 11.5688 17.5434C12.2429 17.364 12.88 17.1104 13.4799 16.7826C14.0798 16.4548 14.6365 16.0528 15.1498 15.5766C15.6632 15.1004 16.1116 14.5685 16.4951 13.9809C16.4146 13.7953 16.3373 13.6067 16.2631 13.415C16.1889 13.2232 16.1518 13.0253 16.1518 12.8212C16.1518 12.5986 16.1611 12.4192 16.1796 12.2831C16.1982 12.1471 16.2198 12.0265 16.2446 11.9213C16.2693 11.8162 16.2817 11.7265 16.2817 11.6523C16.2817 11.5781 16.2724 11.4822 16.2538 11.3647C16.2353 11.2472 16.1827 11.1204 16.0961 10.9843C16.0095 10.8482 15.8951 10.6565 15.7529 10.4091C15.759 10.3658 15.7683 10.3071 15.7807 10.2328C15.7931 10.1586 15.8054 10.0813 15.8178 10.0009C15.8302 9.92051 15.8333 9.84629 15.8271 9.77825C15.8209 9.71022 15.8054 9.65146 15.7807 9.60198C15.6199 9.58343 15.4529 9.54941 15.2797 9.49993C15.1065 9.45045 14.9519 9.37624 14.8159 9.27728L14.8715 9.23089C14.7911 9.24944 14.7107 9.27418 14.6303 9.30511C14.5499 9.33603 14.4726 9.37005 14.3984 9.40716C14.3242 9.44427 14.2437 9.46901 14.1572 9.48138C14.0706 9.49375 13.9871 9.50612 13.9067 9.51849L13.7582 9.49993L13.7861 9.43499C13.6995 9.45973 13.6067 9.49065 13.5077 9.52776C13.4088 9.56487 13.3129 9.58343 13.2201 9.58343C13.1583 9.58343 13.0686 9.56178 12.9511 9.51849C12.8336 9.47519 12.7161 9.42262 12.5986 9.36077C12.4811 9.29892 12.3759 9.23089 12.2831 9.15667C12.1904 9.08245 12.144 9.01133 12.144 8.94329L12.1625 8.91546C12.1316 8.87835 12.0914 8.84433 12.0419 8.81341C11.9924 8.78249 11.9461 8.75156 11.9028 8.72064C11.8595 8.68971 11.8193 8.65569 11.7822 8.61858C11.745 8.58148 11.7296 8.53818 11.7358 8.4887L11.8378 8.40521L11.6244 8.37737L11.5502 8.09905C11.5626 8.12998 11.5904 8.14235 11.6337 8.13616C11.677 8.12998 11.711 8.11761 11.7358 8.09905L11.4018 7.92278L11.6337 7.32903C11.5471 7.00742 11.5255 6.76002 11.5688 6.58685C11.6121 6.41367 11.6956 6.27142 11.8193 6.16009C11.943 6.04876 12.079 5.93743 12.2275 5.8261C12.3759 5.71478 12.5274 5.56325 12.6821 5.37151L12.6542 5.26019L13.2665 4.518L13.4057 4.49944C13.5789 4.49944 13.7737 4.49326 13.9902 4.48089C14.2066 4.46852 14.4262 4.44687 14.6489 4.41595C14.8715 4.38502 15.0911 4.3541 15.3075 4.32317C15.524 4.29225 15.7219 4.25205 15.9013 4.20257C15.7034 3.96754 15.4962 3.74489 15.2797 3.5346C15.0632 3.32431 14.8313 3.12331 14.5839 2.93157C14.5159 2.95631 14.4324 2.99033 14.3334 3.03362C14.2345 3.07692 14.1355 3.13258 14.0366 3.20062C13.9376 3.26865 13.8603 3.34287 13.8046 3.42327C13.749 3.50368 13.7149 3.58717 13.7026 3.67376L13.7582 3.85003C13.6469 4.02939 13.5232 4.14072 13.3871 4.18401C13.2511 4.22731 13.1119 4.25205 12.9697 4.25823C12.8274 4.26442 12.679 4.26442 12.5243 4.25823C12.3697 4.25205 12.2213 4.27988 12.079 4.34173L11.9306 4.0263L12.0698 3.48821L11.912 3.25628L13.517 2.7553C13.449 2.58213 13.3377 2.45224 13.183 2.36566C13.0284 2.27907 12.8583 2.23577 12.6728 2.23577V2.143L13.1923 2.0595C12.6171 1.775 12.0203 1.55853 11.4018 1.41009C10.7833 1.26165 10.1493 1.18743 9.49993 1.18743C8.96185 1.18743 8.42995 1.24 7.90423 1.34515C7.37851 1.45029 6.87135 1.60182 6.38275 1.79974C5.89414 1.99765 5.42099 2.24505 4.96331 2.54192C4.50563 2.8388 4.08815 3.17278 3.71087 3.54388C3.87168 3.54388 3.99538 3.58408 4.08196 3.66448C4.16855 3.74489 4.24896 3.83457 4.32317 3.93353C4.39739 4.03248 4.4747 4.12217 4.55511 4.20257C4.63551 4.28297 4.74375 4.32627 4.87982 4.33245L5.02825 4.22112L5.0097 4.01702L5.31585 3.58099L5.07464 2.89446C5.10556 2.87591 5.15195 2.84498 5.2138 2.80169C5.27565 2.7584 5.32822 2.73675 5.37151 2.73675C5.55706 2.73675 5.69931 2.74603 5.79827 2.76458C5.89723 2.78314 5.98382 2.81715 6.05804 2.86663C6.13226 2.91611 6.1972 2.98724 6.25286 3.08001C6.30853 3.17278 6.39511 3.2903 6.51263 3.43255L6.84661 3.17278C6.90846 3.19752 7.00742 3.23773 7.14349 3.29339C7.27955 3.34905 7.41872 3.41709 7.56097 3.49749C7.70322 3.57789 7.82383 3.66139 7.92278 3.74798C8.02174 3.83457 8.07431 3.91497 8.0805 3.98919C8.0805 4.08196 8.04648 4.15618 7.97845 4.21185C7.91041 4.26751 7.82073 4.3139 7.70941 4.35101C7.59808 4.38812 7.48366 4.41595 7.36614 4.4345C7.24863 4.45306 7.13112 4.4778 7.0136 4.50872C6.89609 4.53965 6.80641 4.57057 6.74456 4.6015C6.68271 4.63242 6.6456 4.68499 6.63323 4.75921L7.17132 4.93548C7.04762 5.04062 6.91465 5.13649 6.77239 5.22308C6.63014 5.30967 6.4817 5.39007 6.32708 5.46429L6.36419 5.622L5.51067 5.95599V6.21575L5.44573 6.24359L5.49212 5.91888L5.45501 5.9096C5.41172 5.9096 5.38698 5.91888 5.38079 5.93743C5.37461 5.95599 5.37151 5.97763 5.37151 6.00237C5.37151 6.02711 5.3777 6.05185 5.39007 6.07659C5.40244 6.10133 5.40553 6.11989 5.39935 6.13226L5.27874 6.06732L5.2973 6.10442C5.2973 6.12298 5.30657 6.15081 5.32513 6.18792C5.34368 6.22503 5.36842 6.25905 5.39935 6.28997C5.43027 6.3209 5.45501 6.35182 5.47357 6.38275C5.49212 6.41367 5.50449 6.42913 5.51067 6.42913C5.51067 6.44769 5.4983 6.46624 5.47357 6.4848C5.44883 6.50335 5.4179 6.51572 5.38079 6.52191C5.34368 6.52809 5.31894 6.53737 5.30657 6.54974C5.2942 6.56211 5.2942 6.5652 5.30657 6.55901C5.39316 6.55901 5.41172 6.5652 5.36224 6.57757C5.31276 6.58994 5.23545 6.62086 5.1303 6.67034C5.02516 6.71982 4.92929 6.79095 4.84271 6.88372C4.75612 6.9765 4.70664 7.11256 4.69427 7.29192C4.69427 7.39707 4.69736 7.49912 4.70355 7.59808C4.70973 7.69704 4.70664 7.79909 4.69427 7.90423C4.60768 7.6692 4.4778 7.48984 4.30462 7.36614C4.13144 7.24245 3.92116 7.1806 3.67376 7.1806L3.27484 7.21771L3.46966 7.34759C3.36452 7.33522 3.25628 7.32285 3.14495 7.31048C3.03362 7.29811 2.9192 7.29502 2.80169 7.3012C2.68418 7.30739 2.57903 7.33213 2.48626 7.37542C2.39349 7.41872 2.30071 7.48366 2.20794 7.57025L2.15228 7.98773C2.15228 8.18564 2.19557 8.34645 2.28216 8.47015C2.36875 8.59385 2.52028 8.65879 2.73675 8.66497C2.9223 8.66497 3.10475 8.63714 3.28411 8.58148C3.46347 8.52581 3.63974 8.46087 3.81292 8.38665C3.75726 8.52272 3.69541 8.6526 3.62737 8.7763C3.55934 8.9 3.50986 9.03607 3.47894 9.1845L3.59954 9.24017C3.74798 9.14121 3.88405 9.12575 4.00775 9.19378C4.13144 9.26181 4.25205 9.36077 4.36956 9.49065C4.48707 9.62054 4.60768 9.75351 4.73138 9.88958C4.85508 10.0256 4.98805 10.1246 5.1303 10.1865L4.81487 10.3534L4.07269 9.93597C4.07887 9.94834 4.08506 9.97617 4.09124 10.0195C4.09743 10.0628 4.09433 10.072 4.08196 10.0473L3.74798 9.48138C3.55006 9.47519 3.33978 9.44427 3.11712 9.3886C2.89446 9.33294 2.66872 9.25872 2.43987 9.16595C2.21103 9.07317 1.99765 8.97112 1.79974 8.8598C1.60182 8.74847 1.41937 8.63095 1.25237 8.50726L1.18743 9.49993C1.18743 10.2545 1.28948 10.9905 1.49358 11.7079C1.69769 12.4254 1.98528 13.0995 2.35638 13.7304C2.72747 14.3613 3.18206 14.9365 3.72015 15.456C4.25823 15.9755 4.85508 16.4177 5.51067 16.7826C5.47975 16.6528 5.47666 16.5229 5.5014 16.393C5.52614 16.2631 5.55706 16.1332 5.59417 16.0034C5.63128 15.8735 5.67148 15.7436 5.71478 15.6137C5.75807 15.4838 5.77972 15.3508 5.77972 15.2148C5.77972 15.0169 5.74879 14.8097 5.68694 14.5932C5.6251 14.3767 5.55088 14.1572 5.46429 13.9345C5.3777 13.7118 5.28183 13.4923 5.17669 13.2758C5.07155 13.0593 4.98805 12.8552 4.9262 12.6635C4.86435 12.4718 4.81487 12.2924 4.77776 12.1254C4.74066 11.9584 4.75921 11.8131 4.83343 11.6894L4.69427 11.6244C4.73138 11.5379 4.78086 11.4544 4.84271 11.374C4.90455 11.2936 4.9695 11.2131 5.03753 11.1327C5.10556 11.0523 5.15814 10.9658 5.19525 10.873C5.23235 10.7802 5.254 10.6874 5.26019 10.5947C5.26019 10.5328 5.24782 10.4679 5.22308 10.3998C5.19834 10.3318 5.17669 10.2669 5.15814 10.205L5.35296 10.2514C5.4581 10.0102 5.60036 9.84629 5.77972 9.7597C5.95908 9.67311 6.18483 9.62672 6.45696 9.62054C6.48789 9.62054 6.55283 9.63291 6.65179 9.65765C6.75075 9.68239 6.85589 9.7164 6.96722 9.7597C7.07855 9.80299 7.18369 9.83701 7.28265 9.86175C7.38161 9.88649 7.45582 9.91123 7.5053 9.93597C7.5053 9.97926 7.53004 10.0071 7.57952 10.0195C7.629 10.0318 7.65683 10.0535 7.66302 10.0844L7.64446 10.1586C7.66302 10.1648 7.70631 10.1865 7.77435 10.2236C7.84238 10.2607 7.9166 10.3071 7.997 10.3627C8.07741 10.4184 8.14853 10.4679 8.21038 10.5112C8.27223 10.5545 8.31553 10.5885 8.34026 10.6132C8.45159 10.6132 8.60312 10.6503 8.79485 10.7245C8.98659 10.7988 9.19687 10.8915 9.42571 11.0029C9.65456 11.1142 9.8803 11.2472 10.103 11.4018C10.3256 11.5564 10.5359 11.711 10.7338 11.8657C10.9317 12.0203 11.0833 12.1749 11.1884 12.3295C11.2936 12.4841 11.3554 12.6202 11.374 12.7377L11.0585 13.0717C11.0833 13.3871 11.0616 13.6284 10.9936 13.7953C10.9256 13.9623 10.8204 14.1015 10.6782 14.2128C10.5359 14.3242 10.372 14.4169 10.1865 14.4911C10.0009 14.5654 9.7999 14.6705 9.58343 14.8066C9.58343 14.9303 9.5525 15.0632 9.49065 15.2055C9.42881 15.3478 9.35149 15.4838 9.25872 15.6137C9.16595 15.7436 9.05462 15.8518 8.92474 15.9384C8.79485 16.025 8.66497 16.0683 8.53509 16.0683L8.14544 15.7714C8.15781 15.7838 8.15781 15.8054 8.14544 15.8364C8.13307 15.8673 8.11761 15.8735 8.09905 15.8549C8.1609 15.9724 8.17636 16.1085 8.14544 16.2631C8.11452 16.4177 8.06194 16.5755 7.98773 16.7363C7.91351 16.8971 7.83001 17.0486 7.73724 17.1909C7.64446 17.3331 7.56097 17.4537 7.48675 17.5527C7.82073 17.6393 8.15472 17.7042 8.4887 17.7475C8.82269 17.7908 9.15976 17.8124 9.49993 17.8124Z" fill="black"/>
</g>
<defs>
<clipPath id="clip0_72_4">
<rect width="19" height="19" fill="white"/>
</clipPath>
</defs>
</svg>
