<?xml version="1.0" encoding="utf-8"?><svg viewBox="0 0 512 512" xmlns="http://www.w3.org/2000/svg" xmlns:xlink="http://www.w3.org/1999/xlink"><style>:root>svg{display:none}:root>svg:target{display:block}</style><svg fill="none" viewBox="0 0 10 10" id="calendar" xmlns="http://www.w3.org/2000/svg">
    <path fill-rule="evenodd" clip-rule="evenodd" d="M2.692 0a.386.386 0 0 1 .385.383v.383h3.846V.383A.382.382 0 0 1 7.308 0a.386.386 0 0 1 .384.383v.383h1.154c.306 0 .6.12.816.336.216.215.338.507.338.812v6.89c0 .305-.122.597-.338.813-.216.215-.51.336-.816.336H1.154c-.306 0-.6-.12-.816-.336A1.146 1.146 0 0 1 0 8.805v-6.89c0-.306.122-.598.338-.813.216-.215.51-.336.816-.336h1.154V.383A.382.382 0 0 1 2.692 0Zm4.231 1.531v.383a.382.382 0 0 0 .385.383.386.386 0 0 0 .384-.383v-.383h1.154a.386.386 0 0 1 .385.383v1.149H.769V1.914a.382.382 0 0 1 .385-.383h1.154v.383a.382.382 0 0 0 .384.383.386.386 0 0 0 .385-.383v-.383h3.846ZM.77 3.828v4.977a.382.382 0 0 0 .385.383h7.692a.386.386 0 0 0 .385-.383V3.828H.769Zm3.846 1.149A.382.382 0 0 1 5 4.594a.385.385 0 0 1 .385.383.382.382 0 0 1-.385.382.386.386 0 0 1-.385-.382Zm1.923-.383a.386.386 0 0 0-.384.383.382.382 0 0 0 .384.382.386.386 0 0 0 .385-.382.382.382 0 0 0-.385-.383Zm1.154.383a.382.382 0 0 1 .385-.383.386.386 0 0 1 .385.383.382.382 0 0 1-.385.382.386.386 0 0 1-.385-.382Zm.385 1.148a.386.386 0 0 0-.385.383.382.382 0 0 0 .385.383.386.386 0 0 0 .385-.383.382.382 0 0 0-.385-.383Zm-1.923.383a.382.382 0 0 1 .384-.383.386.386 0 0 1 .385.383.382.382 0 0 1-.385.383.386.386 0 0 1-.384-.383ZM5 6.125a.386.386 0 0 0-.385.383A.382.382 0 0 0 5 6.89a.385.385 0 0 0 .385-.383A.382.382 0 0 0 5 6.125Zm-1.923.383a.382.382 0 0 1 .385-.383.386.386 0 0 1 .384.383.382.382 0 0 1-.384.383.386.386 0 0 1-.385-.383Zm-1.154-.383a.386.386 0 0 0-.385.383.382.382 0 0 0 .385.383.386.386 0 0 0 .385-.383.382.382 0 0 0-.385-.383Zm-.385 1.914a.382.382 0 0 1 .385-.383.386.386 0 0 1 .385.383.382.382 0 0 1-.385.383.386.386 0 0 1-.385-.383Zm1.924-.383a.386.386 0 0 0-.385.383.382.382 0 0 0 .385.383.386.386 0 0 0 .384-.383.382.382 0 0 0-.384-.383Zm1.153.383A.382.382 0 0 1 5 7.656a.386.386 0 0 1 .385.383.382.382 0 0 1-.385.383.386.386 0 0 1-.385-.383Zm1.923-.383a.386.386 0 0 0-.384.383.382.382 0 0 0 .384.383.386.386 0 0 0 .385-.383.382.382 0 0 0-.385-.383Z" fill="#5D5D5D"/>
</svg><svg fill="none" viewBox="0 0 26 25" id="education" xmlns="http://www.w3.org/2000/svg">
    <path d="M26 9.487c0-.363-.092-.72-.27-1.033a2.027 2.027 0 0 0-.737-.754L14.04 1.02a2.021 2.021 0 0 0-2.08 0L.991 7.7a2.062 2.062 0 0 0-.728.762 2.132 2.132 0 0 0 0 2.066c.174.315.425.577.728.762l3.12 1.87v4.693c.002.367.096.727.272 1.046.177.318.43.585.736.774l6.906 4.091a2.036 2.036 0 0 0 2.015 0l6.906-4.09c.306-.19.56-.457.736-.775.176-.32.27-.68.272-1.046V13.11l2.015-1.218v4.542H26V9.487Zm-6.061 8.35L13 21.943l-6.857-4.091v-3.457l5.817 3.557a2.053 2.053 0 0 0 2.08 0l5.883-3.607.016 3.49ZM13 16.15 2.031 9.47l10.97-6.696 10.968 6.68L13 16.15Z" fill="#4596C1"/>
</svg><svg fill="none" viewBox="0 0 9 16" id="facebook" xmlns="http://www.w3.org/2000/svg">
    <path d="M5.566 9.15h1.917l.767-3.067H5.566V4.55c0-.79 0-1.533 1.534-1.533h1.15V.44A21.594 21.594 0 0 0 6.06.333c-2.082 0-3.56 1.27-3.56 3.604v2.146H.2V9.15h2.3v6.517h3.066V9.15Z" fill="#D07F3F"/>
</svg><svg fill="none" viewBox="0 0 17 16" id="github" xmlns="http://www.w3.org/2000/svg">
    <path d="M8.5.523A7.665 7.665 0 0 0 .833 8.189a7.662 7.662 0 0 0 5.242 7.274c.383.067.527-.163.527-.364 0-.182-.01-.786-.01-1.428-1.926.355-2.424-.47-2.577-.9-.087-.222-.46-.902-.786-1.084-.268-.143-.652-.498-.01-.508.604-.01 1.035.556 1.18.786.69 1.16 1.79.834 2.232.633.067-.499.268-.834.489-1.025-1.706-.192-3.489-.854-3.489-3.786 0-.834.297-1.524.786-2.06-.076-.192-.345-.978.077-2.032 0 0 .642-.202 2.108.785a7.115 7.115 0 0 1 1.917-.258c.652 0 1.303.086 1.917.258 1.466-.996 2.108-.785 2.108-.785.422 1.054.153 1.84.077 2.032.488.536.785 1.216.785 2.06 0 2.942-1.791 3.594-3.497 3.786.277.239.517.699.517 1.418 0 1.025-.01 1.85-.01 2.108 0 .201.145.44.528.364a7.679 7.679 0 0 0 5.222-7.274A7.665 7.665 0 0 0 8.499.523" fill="#D07F3F"/>
</svg><svg fill="none" viewBox="0 0 17 16" id="githubaccent" xmlns="http://www.w3.org/2000/svg">
    <path d="M8.5.523A7.665 7.665 0 0 0 .833 8.189a7.662 7.662 0 0 0 5.242 7.274c.383.067.527-.163.527-.364 0-.182-.01-.786-.01-1.428-1.926.355-2.424-.47-2.577-.9-.087-.222-.46-.902-.786-1.084-.268-.143-.652-.498-.01-.508.604-.01 1.035.556 1.18.786.69 1.16 1.79.834 2.232.633.067-.499.268-.834.489-1.025-1.706-.192-3.489-.854-3.489-3.786 0-.834.297-1.524.786-2.06-.076-.192-.345-.978.077-2.032 0 0 .642-.202 2.108.785a7.115 7.115 0 0 1 1.917-.258c.652 0 1.303.086 1.917.258 1.466-.996 2.108-.785 2.108-.785.422 1.054.153 1.84.077 2.032.488.536.785 1.216.785 2.06 0 2.942-1.791 3.594-3.497 3.786.277.239.517.699.517 1.418 0 1.025-.01 1.85-.01 2.108 0 .201.145.44.528.364a7.679 7.679 0 0 0 5.222-7.274A7.665 7.665 0 0 0 8.499.523" fill="#D07F3F"/>
</svg><svg fill="none" viewBox="0 0 24 25" id="heart" xmlns="http://www.w3.org/2000/svg">
    <path fill-rule="evenodd" clip-rule="evenodd" d="M12.692 7.584a1 1 0 0 1-1.384 0l-.693-.665A4.5 4.5 0 0 0 3 10.166c0 2.383 1.29 4.35 3.152 5.967 1.863 1.618 4.091 2.691 5.423 3.239.278.114.572.114.85 0 1.332-.548 3.56-1.62 5.423-3.239C19.71 14.517 21 12.55 21 10.167a4.5 4.5 0 0 0-7.615-3.248l-.693.665ZM12 5.476a6.5 6.5 0 0 0-11 4.69c0 6.369 6.97 9.886 9.814 11.055a3.096 3.096 0 0 0 2.372 0C16.03 20.051 23 16.535 23 10.167a6.5 6.5 0 0 0-11-4.69Z" fill="#141718"/>
</svg><svg fill="none" viewBox="0 0 24 24" id="heart-line" xmlns="http://www.w3.org/2000/svg">
    <path d="M12.001 4.529a5.998 5.998 0 0 1 8.242.228 6 6 0 0 1 .236 8.236l-8.48 8.492-8.478-8.492a6 6 0 0 1 8.48-8.464Zm6.826 1.641a3.998 3.998 0 0 0-5.49-.153l-1.335 1.198-1.336-1.197a4 4 0 0 0-5.686 5.605L12 18.654l7.02-7.03a4 4 0 0 0-.193-5.454Z" fill="#000"/>
</svg><svg fill="none" viewBox="0 0 19 20" id="linkedin" xmlns="http://www.w3.org/2000/svg">
    <path d="M5.754 4.167c0 .442-.162.866-.45 1.178a1.474 1.474 0 0 1-1.084.487c-.407 0-.797-.176-1.084-.488a1.743 1.743 0 0 1-.449-1.179c0-.442.162-.866.45-1.178a1.474 1.474 0 0 1 1.084-.488c.407 0 .797.176 1.084.489.288.313.449.737.449 1.179Zm.046 2.9H2.733V17.5H5.8V7.067Zm4.845 0H7.594V17.5h3.02v-5.475c0-3.05 3.657-3.333 3.657 0V17.5H17.3v-6.608c0-5.142-5.413-4.95-6.686-2.425l.031-1.4Z" fill="#D07F3F"/>
</svg><svg viewBox="0 0 24 24" id="linkexternal" xmlns="http://www.w3.org/2000/svg">
    <path d="m13 3 3.293 3.293-7 7 1.414 1.414 7-7L21 11V3z"/>
    <path d="M19 19H5V5h7l-2-2H5c-1.103 0-2 .897-2 2v14c0 1.103.897 2 2 2h14c1.103 0 2-.897 2-2v-5l-2-2v7z"/>
</svg><svg fill="none" viewBox="0 0 24 24" id="search" xmlns="http://www.w3.org/2000/svg">
    <path d="M18.5 18.5 22 22m-1-10.5a9.5 9.5 0 1 0-19 0 9.5 9.5 0 0 0 19 0Z" stroke="#141718" stroke-width="1.5" stroke-linecap="round" stroke-linejoin="round"/>
</svg><svg fill="none" viewBox="0 0 24 24" id="search-line" xmlns="http://www.w3.org/2000/svg">
    <path d="m18.031 16.617 4.283 4.282-1.415 1.415-4.282-4.283A8.96 8.96 0 0 1 11 20c-4.968 0-9-4.032-9-9s4.032-9 9-9 9 4.032 9 9a8.96 8.96 0 0 1-1.969 5.617Zm-2.006-.742A6.977 6.977 0 0 0 18 11c0-3.867-3.133-7-7-7s-7 3.133-7 7 3.133 7 7 7a6.977 6.977 0 0 0 4.875-1.975l.15-.15Z" fill="#000"/>
</svg><svg fill="none" viewBox="0 0 25 25" id="suitcase" xmlns="http://www.w3.org/2000/svg">
    <path fill-rule="evenodd" clip-rule="evenodd" d="M9.375 1.563a2.734 2.734 0 0 0-2.734 2.734V6.25H4.687a3.125 3.125 0 0 0-3.125 3.125v10.938a3.125 3.125 0 0 0 3.125 3.125h15.625a3.125 3.125 0 0 0 3.125-3.125V9.374a3.125 3.125 0 0 0-3.125-3.125H18.36V4.297a2.734 2.734 0 0 0-2.734-2.734h-6.25Zm6.64 4.687V4.297a.39.39 0 0 0-.39-.39h-6.25a.39.39 0 0 0-.39.39V6.25h7.03ZM4.688 8.594h15.625a.781.781 0 0 1 .782.781v1.563H3.906V9.374a.781.781 0 0 1 .781-.781Zm-.78 4.687v7.031a.781.781 0 0 0 .78.782h15.625a.781.781 0 0 0 .782-.782v-7.03h-7.032v2.343h-3.124v-2.344H3.905Z" fill="#4596C1"/>
</svg><svg fill="none" viewBox="0 0 16 16" id="telegram" xmlns="http://www.w3.org/2000/svg">
    <path d="M14.407.5.943 6.69C.024 7.13.029 7.743.774 8.016L4.231 9.3l7.998-6.017c.378-.274.724-.126.44.174l-6.48 6.974-.239 4.249c.35 0 .504-.191.7-.417l1.679-1.946 3.492 3.076c.644.422 1.107.205 1.267-.711l2.293-12.884C15.615.677 15.02.168 14.407.5Z" fill="#D07F3F"/>
</svg><svg fill="none" viewBox="0 0 24 24" id="user" xmlns="http://www.w3.org/2000/svg">
    <path d="M18.559 19.549a7.003 7.003 0 0 0-13.118 0m13.118 0A9.976 9.976 0 0 0 22 12c0-5.523-4.477-10-10-10S2 6.477 2 12a9.977 9.977 0 0 0 3.441 7.549m13.118 0A9.961 9.961 0 0 1 12 22a9.961 9.961 0 0 1-6.559-2.451M15 9a3 3 0 1 1-6 0 3 3 0 0 1 6 0Z" stroke="#141718" stroke-width="1.5" stroke-linejoin="round"/>
</svg><svg fill="none" viewBox="0 0 24 24" id="user-star-line" xmlns="http://www.w3.org/2000/svg">
    <path d="M12 14v2a6 6 0 0 0-6 6H4a8 8 0 0 1 8-8Zm0-1c-3.315 0-6-2.685-6-6s2.685-6 6-6 6 2.685 6 6-2.685 6-6 6Zm0-2c2.21 0 4-1.79 4-4s-1.79-4-4-4-4 1.79-4 4 1.79 4 4 4Zm6 10.5-2.939 1.545.561-3.273-2.377-2.317 3.286-.477L18 14l1.47 2.977 3.285.478-2.377 2.318.56 3.272L18 21.5Z" fill="#000"/>
</svg><svg viewBox="0 0 497 497" id="website" xmlns="http://www.w3.org/2000/svg">
    <path d="M497 128.5v312c0 11.046-8.954 20-20 20H20c-11.046 0-20-8.954-20-20v-312z" fill="#faf8f8"/>
    <path d="M290.498 294.5c0-23.196-18.804-42-42-42a41.823 41.823 0 0 0-19.482 4.782c-13.386 7.021-19.327 21.053-19.327 37.218 0 23.196 15.613 36.457 38.809 36.457 16.214 0 30.282-3.645 37.282-17.099a41.814 41.814 0 0 0 4.718-19.358z" fill="#dc4955"/>
    <path d="M286.468 312.47c-6.73 14.21-21.2 24.03-37.97 24.03-23.2 0-42-18.8-42-42 0-16.77 9.82-31.24 24.03-37.97-2.59 5.45-4.03 11.54-4.03 17.97 0 23.2 18.8 42 42 42 6.43 0 12.52-1.44 17.97-4.03z" fill="#d82f3c"/>
    <path d="M429.496 294.5c0-23.196-18.804-42-42-42a41.823 41.823 0 0 0-19.482 4.782c-13.386 7.021-19.327 21.053-19.327 37.218 0 23.196 15.613 36.457 38.809 36.457 16.214 0 30.282-3.645 37.282-17.099a41.814 41.814 0 0 0 4.718-19.358z" fill="#b7e546"/>
    <path d="M425.466 312.47c-6.73 14.21-21.2 24.03-37.97 24.03-23.2 0-42-18.8-42-42 0-16.77 9.82-31.24 24.03-37.97-2.59 5.45-4.03 11.54-4.03 17.97 0 23.2 18.8 42 42 42 6.43 0 12.52-1.44 17.97-4.03z" fill="#abd641"/>
    <path d="M497 148.5v-20l-276.011-12.798L0 128.5v312c0 11.046 8.954 20 20 20h15c-8.28 0-15-6.72-15-15v-291a6 6 0 0 1 6-6z" fill="#f0e9e6"/>
    <path d="M497 56.5V129H0V56.5c0-11.046 8.954-20 20-20h457c11.046 0 20 8.954 20 20z" fill="#5d748a"/>
    <g fill="#3f597d">
        <path d="M227.758 108.5c-8.255 0-14.947-6.716-14.947-15s6.692-15 14.947-15h208.315c8.255 0 14.947 6.716 14.947 15s-6.692 15-14.947 15z"/>
        <ellipse cx="160.869" cy="93.5" rx="14.947" ry="15"/>
        <path d="m171.361 104.184 12.874-12.869-13.139 1.179zM150.592 82.608l12.562-12.516-2.693 10.408z"/>
        <ellipse cx="98.034" cy="93.5" rx="14.947" ry="15"/>
        <path d="m108.553 104.157 12.382-12.499-12.674.836zM87.757 82.608l12.371-12.459L97.626 80.5z"/>
        <ellipse cx="32.947" cy="93.5" rx="14.947" ry="15"/>
        <path d="M43.769 103.846 56.49 90.66l-13.139 1.381zM22.67 82.608 34.292 70.57l-1.753 9.93z"/>
    </g>
    <ellipse cx="173.849" cy="80.5" fill="#b7e546" rx="14.947" ry="15"/>
    <path d="m217.514 82.577 12.971-12.991-3.025 14.276zM446.83 103.915l13.149-13.179-10.185 3.381z" fill="#3f597d"/>
    <ellipse cx="110.946" cy="80.5" fill="#ffbf54" rx="14.947" ry="15"/>
    <ellipse cx="45.495" cy="80.5" fill="#dc4955" rx="14.947" ry="15"/>
    <path d="M240.737 95.5c-8.255 0-14.947-6.716-14.947-15s6.692-15 14.947-15h208.315c8.255 0 14.947 6.716 14.947 15s-6.692 15-14.947 15z" fill="#faf8f8"/>
    <path d="m135.893 215 226.628 2c5.523 0 10-4.477 10-10l3.479-7v-30c0-5.523-4.477-10-10-10H142l-6.107 5c-5.523 0-10 4.477-10 10v30c0 5.523 4.477 10 10 10z" fill="#aad8de"/>
    <path d="M376 200v10c0 5.523-4.477 10-10 10H132c-5.523 0-10-4.477-10-10v-40c0-5.523 4.477-10 10-10h10v33a7 7 0 0 0 7 7z" fill="#94ccd4"/>
    <path d="M151.5 294.5c0-23.196-18.804-42-42-42a41.823 41.823 0 0 0-19.482 4.782c-13.386 7.021-19.327 21.053-19.327 37.218 0 23.196 15.613 36.457 38.809 36.457 16.214 0 30.282-3.645 37.282-17.099A41.814 41.814 0 0 0 151.5 294.5z" fill="#ffbf54"/>
    <path d="M147.47 312.47c-6.73 14.21-21.2 24.03-37.97 24.03-23.2 0-42-18.8-42-42 0-16.77 9.82-31.24 24.03-37.97-2.59 5.45-4.03 11.54-4.03 17.97 0 23.2 18.8 42 42 42 6.43 0 12.52-1.44 17.97-4.03z" fill="#ffa442"/>
    <path d="M149.5 374h-70a7.5 7.5 0 0 1 0-15h70a7.5 7.5 0 0 1 0 15zM149.5 404h-80a7.5 7.5 0 0 1 0-15h80a7.5 7.5 0 0 1 0 15zM149.5 434h-80a7.5 7.5 0 0 1 0-15h80a7.5 7.5 0 0 1 0 15zM288.5 374h-70a7.5 7.5 0 0 1 0-15h70c4.143 0 7.5 3.358 7.5 7.5s-3.357 7.5-7.5 7.5zM288.5 404h-80a7.5 7.5 0 0 1 0-15h80c4.143 0 7.5 3.358 7.5 7.5s-3.357 7.5-7.5 7.5zM288.5 434h-80a7.5 7.5 0 0 1 0-15h80c4.143 0 7.5 3.358 7.5 7.5s-3.357 7.5-7.5 7.5zM427.5 374h-70c-4.143 0-7.5-3.358-7.5-7.5s3.357-7.5 7.5-7.5h70c4.143 0 7.5 3.358 7.5 7.5s-3.357 7.5-7.5 7.5zM427.5 404h-80c-4.143 0-7.5-3.358-7.5-7.5s3.357-7.5 7.5-7.5h80c4.143 0 7.5 3.358 7.5 7.5s-3.357 7.5-7.5 7.5zM427.5 434h-80c-4.143 0-7.5-3.358-7.5-7.5s3.357-7.5 7.5-7.5h80c4.143 0 7.5 3.358 7.5 7.5s-3.357 7.5-7.5 7.5z" fill="#f0e9e6"/>
</svg></svg>