<svg width="17" height="16" viewBox="0 0 17 16" fill="none" xmlns="http://www.w3.org/2000/svg">
<path d="M8.4998 0.522659C4.26396 0.522659 0.833131 3.95349 0.833131 8.18933C0.832208 9.79868 1.33806 11.3675 2.27892 12.6731C3.21978 13.9788 4.54789 14.9551 6.07483 15.4635C6.45816 15.5302 6.6023 15.3002 6.6023 15.0985C6.6023 14.9168 6.59233 14.3135 6.59233 13.671C4.66646 14.026 4.16813 13.2018 4.0148 12.7702C3.92816 12.5494 3.5548 11.8693 3.22896 11.6869C2.96063 11.5435 2.5773 11.1885 3.219 11.1793C3.82313 11.1694 4.254 11.7352 4.39813 11.9652C5.08813 13.1244 6.18983 12.7985 6.63066 12.5977C6.69813 12.0993 6.899 11.7643 7.1198 11.5726C5.41396 11.381 3.63146 10.7193 3.63146 7.78683C3.63146 6.95269 3.92816 6.26346 4.4173 5.72679C4.34063 5.53513 4.0723 4.74929 4.49396 3.69513C4.49396 3.69513 5.13566 3.49349 6.6023 4.48019C7.22645 4.30723 7.87129 4.22031 8.51896 4.22183C9.17063 4.22183 9.8223 4.30769 10.4356 4.48019C11.9023 3.48353 12.544 3.69513 12.544 3.69513C12.9656 4.74929 12.6973 5.53513 12.6206 5.72679C13.109 6.26346 13.4065 6.94349 13.4065 7.78683C13.4065 10.7293 11.6148 11.381 9.90893 11.5726C10.1865 11.8118 10.4264 12.2718 10.4264 12.991C10.4264 14.016 10.4165 14.8402 10.4165 15.0993C10.4165 15.3002 10.5606 15.5394 10.9439 15.4627C12.4656 14.9487 13.7879 13.9706 14.7246 12.6658C15.6613 11.3611 16.1653 9.79549 16.1657 8.18933C16.1657 3.95349 12.7349 0.522659 8.49903 0.522659" fill="#D07F3F"/>
</svg>
