<svg width="19" height="20" viewBox="0 0 19 20" fill="none" xmlns="http://www.w3.org/2000/svg">
<path d="M5.7538 4.16666C5.7536 4.60869 5.59186 5.03252 5.30416 5.34493C5.01646 5.65733 4.62637 5.83272 4.2197 5.83249C3.81304 5.83227 3.42311 5.65647 3.13569 5.34375C2.84828 5.03103 2.68693 4.60702 2.68713 4.16499C2.68734 3.72297 2.84908 3.29913 3.13678 2.98673C3.42448 2.67432 3.81457 2.49894 4.22123 2.49916C4.6279 2.49938 5.01783 2.67519 5.30524 2.98791C5.59265 3.30062 5.754 3.72463 5.7538 4.16666ZM5.7998 7.06666H2.73313V17.5H5.7998V7.06666ZM10.6451 7.06666H7.5938V17.5H10.6145V12.025C10.6145 8.975 14.2715 8.69166 14.2715 12.025V17.5H17.2998V10.8917C17.2998 5.74999 11.8871 5.94166 10.6145 8.46666L10.6451 7.06666Z" fill="#D07F3F"/>
</svg>
