<svg width="25" height="25" viewBox="0 0 25 25" fill="none" xmlns="http://www.w3.org/2000/svg">
<path fill-rule="evenodd" clip-rule="evenodd" d="M9.375 1.5625C8.6498 1.5625 7.9543 1.85059 7.4415 2.36338C6.92871 2.87617 6.64062 3.57167 6.64062 4.29688V6.25H4.6875C3.8587 6.25 3.06384 6.57924 2.47779 7.16529C1.89174 7.75134 1.5625 8.5462 1.5625 9.375V20.3125C1.5625 21.1413 1.89174 21.9362 2.47779 22.5222C3.06384 23.1083 3.8587 23.4375 4.6875 23.4375H20.3125C21.1413 23.4375 21.9362 23.1083 22.5222 22.5222C23.1083 21.9362 23.4375 21.1413 23.4375 20.3125V9.375C23.4375 8.5462 23.1083 7.75134 22.5222 7.16529C21.9362 6.57924 21.1413 6.25 20.3125 6.25H18.3594V4.29688C18.3594 3.57167 18.0713 2.87617 17.5585 2.36338C17.0457 1.85059 16.3502 1.5625 15.625 1.5625H9.375ZM16.0156 6.25V4.29688C16.0156 4.19327 15.9745 4.09392 15.9012 4.02066C15.828 3.94741 15.7286 3.90625 15.625 3.90625H9.375C9.2714 3.90625 9.17204 3.94741 9.09879 4.02066C9.02553 4.09392 8.98438 4.19327 8.98438 4.29688V6.25H16.0156ZM4.6875 8.59375H20.3125C20.5197 8.59375 20.7184 8.67606 20.8649 8.82257C21.0114 8.96909 21.0938 9.1678 21.0938 9.375V10.9375H3.90625V9.375C3.90625 9.1678 3.98856 8.96909 4.13507 8.82257C4.28159 8.67606 4.4803 8.59375 4.6875 8.59375ZM3.90625 13.2812V20.3125C3.90625 20.5197 3.98856 20.7184 4.13507 20.8649C4.28159 21.0114 4.4803 21.0938 4.6875 21.0938H20.3125C20.5197 21.0938 20.7184 21.0114 20.8649 20.8649C21.0114 20.7184 21.0938 20.5197 21.0938 20.3125V13.2812H14.0625V15.625H10.9375V13.2812H3.90625Z" fill="#4596C1"/>
</svg>
