<svg width="444" height="313" viewBox="0 0 444 313" fill="none" xmlns="http://www.w3.org/2000/svg">
<path d="M443 44.4999L442.99 44.0801L442.96 43.6603L442.91 43.2406L442.839 42.8208L442.749 42.401L442.639 41.9812L442.508 41.5613L442.358 41.1414L442.187 40.7215L441.996 40.3016L441.786 39.8816L441.555 39.4615L441.304 39.0414L441.034 38.6212L440.743 38.201L440.432 37.7807L440.102 37.3604L439.751 36.9399L439.38 36.5194L438.99 36.0989L438.58 35.6782L438.15 35.2574L437.7 34.8365L437.23 34.4155L436.74 33.9945L436.231 33.5733L435.702 33.152L435.153 32.7306L434.584 32.309L433.996 31.8874L433.388 31.4656L432.761 31.0437L432.114 30.6216L431.447 30.1994L430.761 29.7771L430.055 29.3546L429.33 28.932L428.585 28.5092L427.822 28.0862L427.038 27.6631L426.236 27.2399L425.414 26.8164L424.573 26.3928L423.713 25.969L422.833 25.5451L421.935 25.1209L421.017 24.6966L420.081 24.2721L419.125 23.8474L418.151 23.4225L417.158 22.9974L416.146 22.5722L415.115 22.1467L414.065 21.721L412.997 21.2951L411.91 20.869L410.804 20.4427L409.68 20.0162L408.538 19.5894L407.377 19.1625L406.198 18.7353L405 18.3079L403.785 17.8803L402.551 17.4525L401.299 17.0244L400.029 16.5962L398.74 16.1676L397.434 15.7389L396.111 15.3099L394.769 14.8807L393.41 14.4512L392.032 14.0216L390.638 13.5917L389.226 13.1615L387.796 12.7311L386.349 12.3005L384.885 11.8696L383.403 11.4385L381.904 11.0071L380.388 10.5755L378.855 10.1437L377.305 9.71163L375.738 9.27929L374.155 8.84676L372.554 8.41395L370.937 7.98089L369.304 7.5476L367.654 7.11412L365.987 6.68034L364.304 6.24635L362.605 5.81211L360.89 5.37765L359.158 4.94294L357.411 4.508L355.647 4.07282L353.868 3.6374L352.073 3.20179L350.263 2.7659L348.437 2.32983L346.595 1.89353L344.738 1.45697L342.865 1.02022L340.978 0.583242L339.075 0.146027L337.157 -0.291364L335.225 -0.728967L333.277 -1.1668L331.315 -1.60482L329.338 -2.04304L327.346 -2.4815L325.34 -2.92013L323.32 -3.35894L321.285 -3.79795L319.236 -4.23714L317.174 -4.67651L315.097 -5.11606L313.006 -5.55578L310.901 -5.99568L308.783 -6.43575L306.651 -6.87598L304.506 -7.31634L302.347 -7.75688L300.176 -8.19757L297.99 -8.63838L295.792 -9.07931L293.581 -9.52041L291.357 -9.96162L289.121 -10.403L286.872 -10.8444L284.61 -11.286L282.336 -11.7276L280.049 -12.1694L277.751 -12.6112L275.44 -13.0532L273.117 -13.4952L270.782 -13.9373L268.436 -14.3794L266.078 -14.8216L263.709 -15.2639L261.328 -15.7062L258.936 -16.1485L256.532 -16.5909L254.118 -17.0333L251.693 -17.4757L249.257 -17.9181L246.81 -18.3605L244.352 -18.8029L241.884 -19.2453L239.406 -19.6876L236.918 -20.13L234.419 -20.5722L231.91 -21.0144L229.392 -21.4566L226.864 -21.8987L224.326 -22.3407L221.778 -22.7826L219.222 -23.2244L216.655 -23.6661L-154.917 -75.6474L-157.54 -75.9316L-160.154 -76.2132L-162.76 -76.4921L-165.358 -76.7685L-167.947 -77.0423L-170.527 -77.3133L-173.098 -77.5817L-175.661 -77.8474L-178.214 -78.1103L-180.758 -78.3705L-183.293 -78.6279L-185.818 -78.8825L-188.334 -79.1342L-190.84 -79.3831L-193.336 -79.6291L-195.822 -79.8722L-198.299 -80.1124L-200.765 -80.3496L-203.221 -80.5839L-205.667 -80.8152L-208.102 -81.0434L-210.527 -81.2686L-212.941 -81.4907L-215.344 -81.7097L-217.736 -81.9256L-220.118 -82.1384L-222.488 -82.348L-224.848 -82.5544L-227.196 -82.7576L-229.532 -82.9576L-231.857 -83.1543L-234.171 -83.3477L-236.473 -83.5378L-238.763 -83.7246L-241.041 -83.908L-243.307 -84.0881L-245.561 -84.2647L-247.803 -84.438L-250.033 -84.6078L-252.251 -84.7741L-254.455 -84.9369L-256.648 -85.0962L-258.828 -85.2519L-260.995 -85.4041L-263.149 -85.5527L-265.29 -85.6978L-267.418 -85.8391L-269.533 -85.9768L-271.635 -86.1109L-273.724 -86.2412L-275.799 -86.3678L-277.861 -86.4907L-279.909 -86.6098L-281.944 -86.7251L-283.965 -86.8366L-285.972 -86.9443L-287.965 -87.0481L-289.944 -87.148L-291.91 -87.244L-293.861 -87.3362L-295.797 -87.4243L-297.72 -87.5085L-299.628 -87.5887L-301.522 -87.6649L-303.401 -87.7371L-305.266 -87.8052L-307.116 -87.8693L-308.951 -87.9292L-310.771 -87.9851L-312.577 -88.0368L-314.367 -88.0843L-316.143 -88.1277L-317.903 -88.1668L-319.648 -88.2018L-321.378 -88.2325L-323.093 -88.2589L-324.792 -88.2811L-326.475 -88.299L-328.143 -88.3125L-329.796 -88.3217L-331.433 -88.3266L-333.054 -88.3271L-334.659 -88.3231L-336.249 -88.3148L-337.822 -88.302L-339.38 -88.2848L-340.921 -88.2631L-342.447 -88.2369L-343.956 -88.2062L-345.449 -88.171L-346.926 -88.1312L-348.386 -88.0868L-349.831 -88.0379L-351.258 -87.9844L-352.669 -87.9262L-354.064 -87.8634L-355.442 -87.796L-356.803 -87.7239L-358.148 -87.6471L-359.476 -87.5656L-360.787 -87.4794L-362.081 -87.3884L-363.359 -87.2927L-364.619 -87.1922L-365.863 -87.0869L-367.089 -86.9769L-368.299 -86.862L-369.491 -86.7422L-370.666 -86.6177L-371.824 -86.4882L-372.965 -86.3539L-374.088 -86.2147L-375.194 -86.0706L-376.283 -85.9216L-377.355 -85.7676L-378.409 -85.6087L-379.445 -85.4448L-380.464 -85.2759L-381.466 -85.1021L-382.45 -84.9232L-383.416 -84.7394L-384.365 -84.5505L-385.296 -84.3565L-386.21 -84.1575L-387.106 -83.9535L-387.984 -83.7443L-388.844 -83.5301L-389.687 -83.3108L-390.512 -83.0863L-391.319 -82.8568L-392.108 -82.6221L-392.879 -82.3822L-393.632 -82.1372L-394.368 -81.887L-395.086 -81.6317L-395.785 -81.3712L-396.467 -81.1054L-397.131 -80.8345L-397.776 -80.5584L-398.404 -80.277L-399.014 -79.9904L-399.606 -79.6986L-400.179 -79.4015L-400.735 -79.0992L-401.273 -78.7916L-401.792 -78.4787L-402.294 -78.1606L-402.777 -77.8372L-403.242 -77.5084L-403.69 -77.1744L-404.119 -76.8351L-404.53 -76.4905L-404.923 -76.1405L-405.298 -75.7853L-405.654 -75.4247L-405.993 -75.0588L-406.314 -74.6875L-406.616 -74.3109L-406.9 -73.929L-407.167 -73.5417L-407.415 -73.1491L-407.645 -72.7511L-407.857 -72.3478L-408.051 -71.9391L-408.227 -71.525L-408.385 -71.1056L-408.525 -70.6808L-408.646 -70.2506L-408.75 -69.8151L-408.836 -69.3742L-408.904 -68.9279L-408.954 -68.4763L-408.985 -68.0193L-408.999 -67.5569L-408.995 -67.0891L-408.973 -66.616L-408.934 -66.1375L-408.876 -65.6536L-408.8 -65.1643L-408.707 -64.6697L-408.596 -64.1697L-408.467 -63.6644L-408.32 -63.1537L-408.156 -62.6376L-407.974 -62.1162L-407.774 -61.5894L-407.556 -61.0573L-407.321 -60.5199L-407.068 -59.977L-406.798 -59.4289L-406.51 -58.8754L-406.205 -58.3166L-405.882 -57.7525L-405.542 -57.1831L-405.184 -56.6084L-404.809 -56.0283L-404.416 -55.443L-404.007 -54.8524L-403.58 -54.2565L-403.135 -53.6553L-402.674 -53.0488L-402.195 -52.4371L-401.7 -51.8202L-401.187 -51.198L-400.657 -50.5705L-400.11 -49.9379L-399.547 -49.3L-398.966 -48.6569L-398.369 -48.0087L-397.754 -47.3552L-397.123 -46.6966L-396.475 -46.0328L-395.811 -45.3639L-395.13 -44.6898L-394.432 -44.0106L-393.718 -43.3263L-392.987 -42.6369L-392.24 -41.9424L-391.477 -41.2428L-390.697 -40.5382L-389.901 -39.8285L-389.089 -39.1137L-388.261 -38.394L-387.416 -37.6693L-386.556 -36.9395L-385.679 -36.2048L-384.787 -35.4651L-383.879 -34.7205L-382.955 -33.971L-382.015 -33.2165L-381.059 -32.4572L-380.088 -31.693L-379.102 -30.9239L-378.1 -30.15L-377.082 -29.3713L-376.049 -28.5877L-375.001 -27.7994L-373.937 -27.0063L-372.859 -26.2085L-371.765 -25.4059L-370.656 -24.5987L-369.533 -23.7868L-368.394 -22.9701L-367.241 -22.1489L-366.072 -21.323L-364.89 -20.4925L-363.692 -19.6575L-362.48 -18.8178L-361.254 -17.9737L-360.013 -17.125L-358.758 -16.2719L-357.488 -15.4143L-356.205 -14.5522L-354.907 -13.6858L-353.595 -12.8149L-352.269 -11.9397L-350.93 -11.0601L-349.577 -10.1762L-348.21 -9.28801L-346.829 -8.39556L-345.435 -7.49887L-344.027 -6.59794L-342.606 -5.69287L-341.172 -4.7836L-339.725 -3.87022L-338.264 -2.95272L-336.79 -2.03115L-335.304 -1.10555L-333.804 -0.175901L-332.292 0.757708L-330.767 1.69532L-329.229 2.63684L-327.679 3.58226L-326.116 4.53155L-324.541 5.48468L-322.954 6.44166L-321.354 7.40236L-319.743 8.36688L-318.119 9.33505L-316.484 10.3069L-314.836 11.2825L-313.177 12.2616L-311.507 13.2444L-309.824 14.2307L-308.131 15.2205L-306.426 16.2138L-304.709 17.2106L-302.982 18.2108L-301.243 19.2144L-299.493 20.2213L-297.733 21.2316L-295.962 22.2451L-294.18 23.2619L-292.387 24.2819L-290.584 25.305L-288.77 26.3313L-286.946 27.3607L-285.112 28.3932L-283.268 29.4287L-281.414 30.4672L-279.549 31.5087L-277.675 32.553L-275.792 33.6003L-273.898 34.6503L-271.995 35.7032L-270.083 36.7589L-268.161 37.8172L-266.23 38.8782L-264.29 39.9419L-262.341 41.0082L-260.383 42.0771L-258.417 43.1485L-256.441 44.2223L-254.457 45.2986L47.5584 193.113L51.8745 195.014L54.024 195.958L56.1676 196.897L58.3053 197.831L60.4369 198.761L62.5624 199.686L64.6818 200.606L66.7948 201.521L68.9015 202.431L71.0017 203.336L73.0954 204.236L75.1825 205.131L77.2628 206.021L79.3364 206.906L81.403 207.785L83.4628 208.659L85.5155 209.528L87.5611 210.391L89.5995 211.249L91.6305 212.102L93.6543 212.948L95.6706 213.789L97.6794 214.625L99.6806 215.455L101.674 216.279L103.66 217.097L105.638 217.91L107.608 218.716L109.57 219.517L111.524 220.311L113.47 221.1L115.408 221.882L117.337 222.658L119.258 223.428L121.171 224.192L123.075 224.95L124.971 225.701L126.858 226.446L128.736 227.184L130.606 227.916L132.467 228.642L134.318 229.36L136.161 230.073L137.995 230.778L139.82 231.477L141.635 232.169L143.442 232.855L145.239 233.533L147.026 234.205L148.805 234.87L150.573 235.528L152.333 236.178L154.082 236.822L155.822 237.459L157.552 238.088L159.273 238.711L160.983 239.326L162.684 239.933L164.375 240.534L166.055 241.127L167.726 241.713L169.386 242.291L171.037 242.862L172.677 243.426L174.306 243.982L175.926 244.53L177.535 245.071L179.133 245.604L180.721 246.129L182.298 246.647L183.865 247.156L185.421 247.658L186.967 248.153L188.501 248.639L190.025 249.117L191.538 249.587L193.04 250.05L194.531 250.504L196.011 250.95L197.481 251.389L198.939 251.819L200.385 252.241L201.821 252.654L203.246 253.06L204.659 253.457L206.061 253.846L207.451 254.226L208.831 254.598L210.199 254.962L211.555 255.317L212.9 255.664L214.233 256.003L215.555 256.333L216.865 256.654L218.164 256.966L219.451 257.271L220.726 257.566L221.99 257.853L223.241 258.131L224.481 258.4L225.709 258.661L226.926 258.913L228.13 259.156L229.322 259.39L230.503 259.615L231.671 259.832L232.828 260.039L233.973 260.238L235.105 260.427L236.225 260.608L237.334 260.78L238.43 260.942L239.514 261.096L240.586 261.24L241.645 261.376L242.693 261.502L243.728 261.619L244.751 261.727L245.761 261.826L246.76 261.915L247.746 261.996L248.72 262.067L249.681 262.129L250.63 262.181L251.567 262.225L252.491 262.259L253.403 262.283L254.302 262.298L255.189 262.304L256.064 262.301L256.926 262.288L257.776 262.266L258.613 262.234L259.438 262.193L260.25 262.143L261.05 262.083L261.837 262.013L262.612 261.935L263.374 261.846L264.124 261.748L264.861 261.641L265.585 261.524L266.297 261.397L266.997 261.261L267.684 261.116L268.358 260.961L269.02 260.796L269.669 260.622L270.306 260.438L270.931 260.244L271.542 260.041L272.141 259.828L272.728 259.606L273.302 259.374L273.864 259.133L274.413 258.881L274.949 258.621L275.473 258.35L275.984 258.07L276.484 257.781L276.97 257.481L277.444 257.172L277.905 256.854L278.354 256.526L278.791 256.188L279.215 255.84L279.627 255.483L280.026 255.117L280.413 254.74L280.787 254.354L281.149 253.959L281.499 253.553L281.836 253.139L282.161 252.714L282.474 252.28L282.774 251.836L283.062 251.383L283.338 250.92L283.601 250.448L283.852 249.966L284.091 249.474L284.318 248.973L284.533 248.463L284.735 247.943L284.925 247.413L285.103 246.874L285.269 246.325L285.423 245.767L285.565 245.199L285.695 244.622L285.813 244.035L285.919 243.439L286.013 242.834L286.095 242.219L286.165 241.595L286.224 240.961L286.27 240.318L286.305 239.666L286.327 239.004L286.338 238.333L286.338 237.653L286.325 236.963L286.301 236.264L286.266 235.556L286.219 234.839L286.16 234.112L286.089 233.377L286.007 232.632L285.914 231.878L285.809 231.115L285.693 230.343L285.566 229.561L285.427 228.771L285.277 227.972L285.115 227.163L284.942 226.346L284.759 225.52L284.564 224.685L284.357 223.841L284.14 222.988L283.912 222.126L283.673 221.255L283.423 220.376L283.162 219.488L282.89 218.591L282.607 217.685L282.314 216.771L282.009 215.848L281.694 214.917L281.369 213.977L281.033 213.028L280.686 212.071L280.328 211.106L279.961 210.132L279.582 209.149L279.194 208.158L278.795 207.159L278.386 206.152L277.966 205.136L277.536 204.112L277.096 203.08L276.646 202.04L276.186 200.991L275.716 199.935L275.236 198.87L274.746 197.798L274.247 196.717L273.737 195.629L273.218 194.533L272.688 193.429L272.15 192.317L271.601 191.197L271.043 190.069L270.476 188.934L269.899 187.792L269.313 186.641L268.717 185.483L268.112 184.318L267.498 183.145L266.875 181.965L266.242 180.777L265.601 179.582L264.95 178.38L264.29 177.171L263.622 175.954L262.945 174.73L262.258 173.499L261.564 172.262L260.86 171.017L260.148 169.765L259.427 168.506L258.698 167.241L257.96 165.968L257.214 164.689L256.459 163.403L255.696 162.111L254.925 160.812L254.146 159.506L253.358 158.194L252.563 156.876L251.759 155.551L250.948 154.22L250.129 152.883L249.302 151.539L248.467 150.189L247.624 148.833L246.774 147.471L245.916 146.104L245.051 144.73L244.178 143.35L243.298 141.964L242.411 140.573L241.516 139.176L240.614 137.774L239.705 136.365L238.789 134.952L237.865 133.532L236.935 132.108L235.998 130.678L235.054 129.242L234.103 127.802L233.146 126.356L232.182 124.905L231.211 123.45L230.234 121.989L229.25 120.523L228.26 119.052L227.264 117.577L226.261 116.097L225.252 114.612L224.237 113.123L223.216 111.629L221.155 108.627L55.9107 -101.938L53.3644 -104.807L52.0941 -106.234L50.8257 -107.655L49.5593 -109.07L48.295 -110.48L47.0328 -111.883L45.7727 -113.281L44.5147 -114.672L43.259 -116.057L42.0055 -117.437L40.7543 -118.81L39.5054 -120.176L38.2589 -121.537L37.0148 -122.89L35.7731 -124.238L34.5339 -125.579L33.2972 -126.913L32.063 -128.24L30.8315 -129.561L29.6026 -130.874L28.3764 -132.181L27.1529 -133.481L25.9321 -134.774L24.714 -136.06L23.4988 -137.338L22.2864 -138.61L21.0769 -139.874L19.8703 -141.13L18.6667 -142.38L17.466 -143.621L16.2684 -144.855L15.0738 -146.082L13.8823 -147.301L12.6939 -148.512L11.5086 -149.715L10.3265 -150.911L9.14756 -152.098L7.97191 -153.278L6.79953 -154.449L5.63044 -155.612L4.46464 -156.768L3.30217 -157.914L2.14313 -159.053L0.987506 -160.183L-0.164694 -161.305L-1.31341 -162.419L-2.45864 -163.524L-3.60038 -164.62L-4.73854 -165.707L-5.87316 -166.786L-7.00416 -167.857L-8.13152 -168.918L-9.25526 -169.971L-10.3753 -171.014L-11.4917 -172.049L-12.6043 -173.074L-13.7132 -174.091L-14.8183 -175.098L-15.9196 -176.097L-17.0171 -177.086L-18.1107 -178.065L-19.2005 -179.036L-20.2864 -179.996L-21.3684 -180.948L-22.4465 -181.89L-23.5206 -182.822L-24.5908 -183.745L-25.6569 -184.658L-26.7191 -185.562L-27.7772 -186.456L-28.8313 -187.34L-29.8814 -188.214L-30.9273 -189.078L-31.9691 -189.932L-33.0069 -190.777L-34.0404 -191.611L-35.0699 -192.435L-36.0952 -193.249L-37.1162 -194.053L-38.1331 -194.847L-39.1458 -195.631L-40.1542 -196.404L-41.1585 -197.167L-42.1584 -197.919L-43.1541 -198.662L-44.1454 -199.393L-45.1325 -200.114L-46.1153 -200.825L-47.0937 -201.525L-48.0678 -202.215L-49.0375 -202.893L-50.0029 -203.562L-50.964 -204.219L-51.9206 -204.866L-52.8728 -205.501L-53.8206 -206.126L-54.764 -206.741L-55.703 -207.344L-56.6375 -207.936L-57.5676 -208.517L-58.4933 -209.088L-59.4144 -209.647L-60.3311 -210.195L-61.2434 -210.732L-62.1511 -211.258L-63.0543 -211.773L-63.9531 -212.277L-64.8473 -212.769L-65.7371 -213.25L-66.6222 -213.72L-67.503 -214.178L-68.3791 -214.626L-69.2507 -215.061L-70.1178 -215.486L-70.9803 -215.899L-71.8383 -216.3L-72.6918 -216.691L-73.5406 -217.069L-74.385 -217.436L-75.2247 -217.792L-76.0599 -218.136L-76.8906 -218.468L-77.7166 -218.789L-78.5381 -219.098L-79.3551 -219.396L-80.1674 -219.681L-80.9751 -219.956L-81.7784 -220.218L-82.577 -220.469L-83.371 -220.708L-84.1605 -220.935L-84.9454 -221.15L-85.7257 -221.354L-86.5015 -221.546L-87.2727 -221.726L-88.0393 -221.894L-88.8013 -222.05L-89.5588 -222.195L-90.3117 -222.327L-91.0601 -222.448L-91.8039 -222.557L-92.5431 -222.654L-93.2778 -222.739L-94.008 -222.812L-94.7336 -222.873L-95.4547 -222.922L-96.1712 -222.959L-96.8832 -222.985L-97.5906 -222.998L-98.2936 -222.999L-98.9921 -222.989L-99.686 -222.966L-100.375 -222.931L-101.06 -222.885L-101.741 -222.826L-102.417 -222.755L-103.088 -222.673L-103.755 -222.578L-104.418 -222.472L-105.076 -222.353L-105.729 -222.222L-106.379 -222.08L-107.023 -221.925L-107.664 -221.758L-108.3 -221.58L-108.931 -221.389L-109.558 -221.186L-110.181 -220.972L-110.799 -220.745L-111.413 -220.506L-112.023 -220.256L-112.628 -219.993L-113.229 -219.719L-113.825 -219.432L-114.418 -219.134L-115.006 -218.824L-115.589 -218.502L-116.169 -218.167L-116.744 -217.821L-117.314 -217.463L-117.881 -217.094L-118.443 -216.712L-119.001 -216.318L-119.555 -215.913L-120.105 -215.496L-120.65 -215.067L-121.192 -214.626L-121.729 -214.174L-122.262 -213.709L-122.79 -213.233L-123.315 -212.745L-123.835 -212.246L-124.352 -211.735L-124.864 -211.212L-125.372 -210.677L-125.877 -210.131L-126.377 -209.574L-126.873 -209.004L-127.365 -208.423L-127.853 -207.831L-128.337 -207.227L-128.817 -206.612L-129.293 -205.985L-129.765 -205.346L-130.233 -204.697L-130.697 -204.036L-131.158 -203.363L-131.614 -202.679L-132.067 -201.984L-132.515 -201.278L-132.96 -200.56L-133.401 -199.831L-133.839 -199.091L-134.272 -198.34L-134.702 -197.577L-135.127 -196.804L-135.549 -196.019L-135.968 -195.224L-136.382 -194.417L-136.793 -193.6L-137.2 -192.771L-137.604 -191.932L-138.004 -191.082L-138.4 -190.221L-138.793 -189.349L-139.182 -188.467L-139.567 -187.573L-139.949 -186.669L-140.327 -185.755L-140.702 -184.83L-141.073 -183.894L-141.44 -182.948L-141.805 -181.991L-142.165 -181.024L-142.522 -180.047L-142.876 -179.059L-143.227 -178.061L-143.573 -177.052L-143.917 -176.034L-144.257 -175.005L-144.594 -173.966L-144.927 -172.917L-145.257 -171.858L-145.584 -170.789L-145.908 -169.71L-146.228 -168.622L-146.545 -167.523L-146.858 -166.415L-147.169 -165.297L-147.476 -164.169L-147.78 -163.031L-148.081 -161.884L-148.379 -160.728L-148.673 -159.561L-148.965 -158.386L-149.253 -157.201L-149.538 -156.007L-149.82 -154.803L-150.099 -153.59L-150.375 -152.369L-150.648 -151.138L-150.918 -149.897L-151.185 -148.648L-151.449 -147.39L-151.71 -146.123L-151.968 -144.848L-152.223 -143.563L-152.476 -142.27L-152.725 -140.968L-152.971 -139.657L-153.215 -138.338L-153.456 -137.011L-153.694 -135.675L-153.929 -134.331L-154.161 -132.978L-154.391 -131.617L-154.617 -130.248L-154.841 -128.871L-155.063 -127.486L-155.281 -126.093L-155.497 -124.692L-155.71 -123.283L-155.92 -121.866L-156.128 -120.442L-156.333 -119.01L-156.536 -117.57L-156.736 -116.123L-156.933 -114.668L-157.128 -113.206L-157.32 -111.736L-157.509 -110.26L-157.696 -108.776L-157.881 -107.285L-158.063 -105.787L-158.242 -104.282L-158.419 -102.77L-158.594 -101.251L-158.766 -99.725L-158.935 -98.1926L-159.102 -96.6536L-159.267 -95.108L-159.43 -93.556L-159.59 -91.9975L-159.747 -90.4326L-159.902 -88.8614L-160.055 -87.2841L-160.206 -85.7006L-160.354 -84.111L-160.5 -82.5155L-160.643 -80.914L-160.785 -79.3067L-160.924 -77.6936L-161.06 -76.0748L-161.195 -74.4504L-161.327 -72.8204L-161.273 162.485L-161.005 165.735L-160.867 167.351L-160.727 168.962L-160.585 170.567L-160.441 172.166L-160.294 173.759L-160.145 175.346L-159.993 176.927L-159.839 178.502L-159.683 180.071L-159.525 181.633L-159.364 183.189L-159.2 184.738L-159.035 186.281L-158.867 187.817L-158.696 189.347L-158.523 190.87L-158.347 192.386L-158.169 193.895L-157.989 195.397L-157.806 196.893L-157.62 198.381L-157.432 199.862L-157.242 201.336L-157.049 202.802L-156.853 204.261L-156.655 205.713L-156.454 207.157L-156.25 208.594L-156.044 210.023L-155.835 211.444L-155.624 212.857L-155.409 214.263L-155.192 215.661L-154.973 217.051L-154.75 218.433L-154.525 219.807L-154.297 221.172L-154.067 222.53L-153.833 223.879L-153.597 225.22L-153.358 226.552L-153.116 227.876L-152.871 229.192L-152.624 230.499L-152.373 231.797L-152.12 233.087L-151.864 234.368L-151.604 235.64L-151.342 236.904L-151.077 238.158L-150.809 239.403L-150.537 240.64L-150.263 241.867L-149.986 243.085L-149.706 244.294L-149.422 245.494L-149.136 246.685L-148.846 247.866L-148.553 249.037L-148.258 250.199L-147.959 251.352L-147.657 252.495L-147.351 253.629L-147.043 254.753L-146.731 255.867L-146.416 256.971L-146.098 258.066L-145.776 259.151L-145.451 260.226L-145.123 261.291L-144.792 262.346L-144.457 263.39L-144.119 264.425L-143.777 265.45L-143.433 266.464L-143.084 267.468L-142.733 268.462L-142.377 269.446L-142.019 270.419L-141.657 271.382L-141.291 272.334L-140.922 273.276L-140.549 274.208L-140.173 275.128L-139.794 276.039L-139.41 276.938L-139.024 277.827L-138.633 278.705L-138.239 279.573L-137.841 280.429L-137.44 281.275L-137.035 282.11L-136.626 282.934L-136.214 283.747L-135.798 284.549L-135.378 285.34L-134.954 286.12L-134.527 286.889L-134.096 287.647L-133.661 288.394L-133.222 289.129L-132.78 289.853L-132.333 290.567L-131.883 291.268L-131.429 291.959L-130.971 292.638L-130.509 293.306L-130.043 293.963L-129.573 294.608L-129.099 295.241L-128.622 295.864L-128.14 296.474L-127.654 297.073L-127.165 297.661L-126.671 298.237L-126.173 298.802L-125.672 299.355L-125.166 299.896L-124.656 300.426L-124.142 300.944L-123.624 301.451L-123.102 301.945L-122.575 302.428L-122.045 302.9L-121.51 303.359L-120.972 303.807L-120.429 304.243L-119.881 304.667L-119.33 305.079L-118.775 305.48L-118.215 305.869L-117.651 306.246L-117.083 306.61L-116.51 306.964L-115.933 307.305L-115.352 307.634L-114.767 307.951L-114.177 308.257L-113.583 308.55L-112.985 308.832L-112.382 309.101L-111.775 309.359L-111.164 309.605L-110.548 309.839L-109.928 310.06L-109.303 310.27L-108.674 310.468L-108.041 310.654L-107.403 310.827L-106.761 310.989L-106.115 311.139L-105.464 311.277L-104.808 311.402L-104.148 311.516L-103.484 311.618L-102.815 311.708L-102.142 311.785L-101.464 311.851L-100.782 311.905L-100.095 311.947L-99.4038 311.976L-98.7081 311.994L-98.0078 312L-97.303 311.994L-96.5937 311.976L-95.8798 311.946L-95.1615 311.903L-94.4386 311.849L-93.7111 311.783L-92.9791 311.705L-92.2426 311.616L-91.5015 311.514L-90.7558 311.4L-90.0056 311.275L-89.2509 311.137L-88.4915 310.988L-87.7276 310.827L-86.9591 310.654L-86.1861 310.469L-85.4085 310.272L-84.6263 310.064L-83.8395 309.844L-83.0482 309.612L-82.2522 309.368L-81.4517 309.112L-80.6467 308.845L-79.837 308.566L-79.0229 308.275L-78.204 307.973L-77.3807 307.659L-76.5528 307.334L-75.7203 306.997L-74.8832 306.648L-74.0416 306.288L-73.1954 305.916L-72.3447 305.533L-71.4894 305.138L-70.6295 304.732L-69.7652 304.314L-68.8962 303.885L-68.0227 303.445L-67.1447 302.993L-66.2622 302.53L-65.3752 302.055L-64.4836 301.57L-63.5875 301.073L-62.687 300.564L-61.7819 300.045L-60.8723 299.515L-59.9583 298.973L-59.0397 298.42L-58.1167 297.856L-57.1893 297.282L-56.2574 296.696L-55.321 296.099L-54.3803 295.491L-53.435 294.873L-52.4854 294.243L-51.5314 293.603L-50.573 292.952L-49.6102 292.29L-48.6431 291.618L-47.6715 290.935L-46.6956 290.241L-45.7154 289.537L-44.7309 288.822L-43.7421 288.096L-42.749 287.36L-41.7516 286.614L-40.7499 285.857L-39.744 285.09L-38.7338 284.313L-37.7194 283.525L-36.7008 282.727L-35.678 281.919L-34.651 281.1L-33.6199 280.272L-32.5846 279.434L-31.5452 278.585L-30.5017 277.727L-29.4541 276.859L-28.4024 275.98L-27.3467 275.093L-26.2869 274.195L-25.2231 273.287L-24.1553 272.37L-23.0835 271.443L-22.0078 270.507L-20.9281 269.561L-19.8445 268.606L-18.757 267.641L-17.6656 266.667L-16.5704 265.684L-15.4714 264.691L-14.3685 263.689L-13.2619 262.678L-12.1515 261.657L-11.0374 260.628L-9.9195 259.59L-8.79794 258.543L-7.67271 257.486L-6.54389 256.421L-5.4114 255.348L-4.27536 254.265L-3.13571 253.174L-1.99257 252.074L-0.845919 250.966L0.304222 249.849L1.45785 248.724L2.61487 247.59L3.7753 246.448L4.93907 245.298L6.10626 244.139L7.27668 242.973L8.45043 241.798L9.62741 240.615L10.8076 239.424L11.991 238.226L13.1776 237.019L14.3673 235.805L15.56 234.583L16.7559 233.353L17.9547 232.116L19.1567 230.871L20.3615 229.619L21.5692 228.359L22.7799 227.092L23.9935 225.818L25.2098 224.537L26.429 223.248L27.6509 221.952L28.8756 220.649L30.1029 219.34L31.3328 218.023L32.5655 216.7L33.8006 215.37L35.0383 214.033L36.2786 212.689L37.5213 211.339L38.7663 209.983L40.0138 208.62L41.2637 207.251L42.5158 205.875L43.7703 204.494L45.0269 203.106L46.2857 201.712L47.5467 200.312L48.8098 198.906L50.075 197.494L51.3421 196.077L52.6113 194.653L53.8824 193.224L220.54 -18.7349L221.577 -20.2403L222.608 -21.7414L223.632 -23.238L224.651 -24.7301L225.664 -26.2177L226.67 -27.7006L227.67 -29.1788L228.664 -30.6522L229.652 -32.1209L230.633 -33.5846L231.607 -35.0434L232.575 -36.4972L233.537 -37.9459L234.491 -39.3895L235.439 -40.8279L236.381 -42.261L237.315 -43.6889L238.242 -45.1113L239.163 -46.5283L240.076 -47.9398L240.982 -49.3458L241.881 -50.7462L242.773 -52.1409L243.658 -53.5298L244.535 -54.913L245.404 -56.2903L246.267 -57.6618L247.121 -59.0272L247.968 -60.3867L248.808 -61.7401L249.64 -63.0874L250.464 -64.4285L251.28 -65.7633L252.088 -67.0919L252.888 -68.4141L253.68 -69.7299L254.464 -71.0393L255.24 -72.3422L256.008 -73.6385L256.767 -74.9282L257.518 -76.2113L258.261 -77.4876L258.996 -78.7572L259.722 -80.02L260.439 -81.2759L261.148 -82.5249L261.848 -83.7669L262.539 -85.002L263.222 -86.2299L263.895 -87.4508L264.56 -88.6645L265.216 -89.871L265.863 -91.0703L266.501 -92.2623L267.13 -93.4469L267.749 -94.6241L268.36 -95.7939L268.961 -96.9563L269.553 -98.1111L270.135 -99.2583L270.708 -100.398L271.272 -101.53L271.826 -102.654L272.37 -103.771L272.905 -104.88L273.43 -105.98L273.946 -107.074L274.451 -108.159L274.947 -109.236L275.433 -110.305L275.909 -111.367L276.375 -112.42L276.831 -113.465L277.277 -114.502L277.713 -115.531L278.138 -116.551L278.553 -117.563L278.959 -118.567L279.353 -119.563L279.738 -120.551L280.112 -121.53L280.475 -122.5L280.828 -123.462L281.171 -124.416L281.503 -125.361L281.824 -126.298L282.135 -127.225L282.435 -128.145L282.724 -129.055L283.002 -129.958L283.269 -130.851L283.526 -131.735L283.772 -132.611L284.006 -133.478L284.23 -134.336L284.443 -135.186L284.644 -136.026L284.835 -136.858L285.014 -137.68L285.182 -138.494L285.339 -139.299L285.485 -140.094L285.619 -140.881L285.742 -141.659L285.853 -142.427L285.953 -143.186L286.042 -143.937L286.119 -144.678L286.185 -145.41L286.239 -146.133L286.282 -146.846L286.313 -147.55L286.332 -148.246L286.34 -148.931L286.335 -149.608L286.32 -150.275L286.292 -150.933L286.252 -151.582L286.201 -152.221L286.138 -152.851L286.063 -153.471L285.976 -154.082L285.877 -154.684L285.767 -155.276L285.644 -155.859L285.509 -156.432L285.362 -156.996L285.203 -157.55L285.032 -158.095L284.849 -158.63L284.654 -159.156L284.447 -159.672L284.227 -160.179L283.995 -160.676L283.751 -161.164L283.495 -161.642L283.227 -162.11L282.946 -162.569L282.653 -163.019L282.348 -163.458L282.03 -163.888L281.7 -164.309L281.358 -164.72L281.003 -165.121L280.636 -165.513L280.257 -165.895L279.865 -166.267L279.46 -166.63L279.044 -166.983L278.615 -167.327L278.173 -167.661L277.719 -167.985L277.252 -168.3L276.773 -168.605L276.282 -168.9L275.778 -169.186L275.261 -169.462L274.732 -169.728L274.191 -169.985L273.636 -170.232L273.07 -170.47L272.491 -170.698L271.899 -170.916L271.295 -171.125L270.678 -171.324L270.048 -171.514L269.406 -171.694L268.752 -171.864L268.085 -172.025L267.406 -172.176L266.713 -172.318L266.009 -172.45L265.292 -172.573L264.562 -172.686L263.82 -172.79L263.065 -172.884L262.298 -172.968L261.518 -173.043L260.726 -173.109L259.921 -173.165L259.103 -173.211L258.274 -173.249L257.431 -173.276L256.577 -173.295L255.709 -173.304L254.83 -173.303L253.938 -173.294L253.033 -173.275L252.116 -173.246L251.187 -173.208L250.245 -173.161L249.291 -173.105L248.325 -173.039L247.346 -172.964L246.355 -172.88L245.351 -172.787L244.336 -172.684L243.308 -172.573L242.268 -172.452L241.215 -172.322L240.15 -172.183L239.074 -172.035L237.985 -171.877L236.884 -171.711L235.77 -171.536L234.645 -171.351L233.508 -171.158L232.358 -170.956L231.197 -170.745L230.023 -170.525L228.838 -170.296L227.641 -170.058L226.432 -169.811L225.211 -169.556L223.978 -169.292L222.733 -169.019L221.476 -168.737L220.208 -168.447L218.928 -168.148L217.636 -167.84L216.333 -167.524L215.018 -167.199L213.692 -166.866L212.353 -166.524L211.004 -166.174L209.643 -165.815L208.27 -165.448L206.886 -165.073L205.491 -164.689L204.085 -164.296L202.667 -163.896L201.238 -163.487L199.797 -163.07L198.346 -162.645L196.883 -162.211L195.41 -161.77L193.925 -161.32L192.43 -160.863L190.923 -160.397L189.406 -159.924L187.877 -159.442L186.338 -158.952L184.789 -158.455L183.228 -157.95L181.657 -157.437L180.075 -156.916L178.483 -156.388L176.88 -155.852L175.267 -155.308L173.644 -154.756L172.01 -154.197L170.366 -153.631L168.711 -153.057L167.047 -152.476L165.372 -151.887L163.687 -151.291L161.992 -150.687L160.288 -150.076L158.573 -149.458L156.849 -148.833L155.115 -148.2L153.371 -147.561L151.617 -146.914L149.854 -146.261L148.082 -145.6L146.299 -144.933L144.508 -144.258L142.707 -143.577L140.897 -142.889L139.078 -142.194L137.249 -141.492L135.412 -140.784L133.565 -140.069L131.71 -139.347L129.845 -138.619L127.972 -137.885L126.09 -137.143L124.2 -136.396L122.301 -135.642L120.393 -134.882L118.477 -134.116L116.552 -133.343L114.619 -132.564L112.678 -131.779L110.729 -130.989L108.772 -130.192L106.806 -129.389L104.833 -128.58L102.852 -127.765L100.863 -126.944L98.8664 -126.118L96.8621 -125.286L94.8502 -124.448L92.8308 -123.604L90.8041 -122.755L88.77 -121.901L86.7287 -121.041L84.6802 -120.175L82.6246 -119.304L80.562 -118.428L78.4925 -117.546L76.4162 -116.66L74.3331 -115.768L72.2433 -114.87L70.147 -113.968L68.0441 -113.061L65.9348 -112.149L63.8192 -111.232L61.6973 -110.31L59.5693 -109.383L57.4352 -108.451L55.2951 -107.515L53.1491 -106.574L50.9973 -105.628L48.8397 -104.678L-253.277 43.0621L-255.266 44.1398L-257.247 45.2151L-259.219 46.288L-261.182 47.3583L-263.136 48.4261L-265.082 49.4914L-267.018 50.554L-268.945 51.6139L-270.863 52.6712L-272.772 53.7257L-274.671 54.7775L-276.56 55.8264L-278.44 56.8725L-280.31 57.9156L-282.17 58.9559L-284.02 59.9932L-285.861 61.0275L-287.69 62.0587L-289.51 63.0868L-291.32 64.1119L-293.118 65.1337L-294.907 66.1524L-296.684 67.1679L-298.451 68.1801L-300.207 69.189L-301.953 70.1946L-303.687 71.1968L-305.41 72.1956L-307.122 73.1909L-308.822 74.1828L-310.511 75.1712L-312.189 76.1561L-313.855 77.1374L-315.509 78.1151L-317.151 79.0891L-318.782 80.0595L-320.401 81.0262L-322.007 81.9892L-323.602 82.9483L-325.184 83.9038L-326.754 84.8554L-328.312 85.803L-329.857 86.7469L-331.389 87.6868L-332.909 88.6228L-334.416 89.5548L-335.911 90.4828L-337.392 91.4068L-338.861 92.3267L-340.316 93.2425L-341.758 94.1542L-343.187 95.0618L-344.602 95.9652L-346.004 96.8644L-347.393 97.7593L-348.768 98.65L-350.13 99.5365L-351.477 100.419L-352.811 101.296L-354.131 102.17L-355.437 103.039L-356.729 103.904L-358.007 104.764L-359.271 105.62L-360.52 106.471L-361.755 107.318L-362.976 108.16L-364.182 108.998L-365.373 109.831L-366.55 110.66L-367.712 111.484L-368.86 112.303L-369.992 113.118L-371.11 113.928L-372.212 114.733L-373.3 115.534L-374.372 116.33L-375.43 117.121L-376.472 117.907L-377.498 118.689L-378.51 119.466L-379.505 120.238L-380.486 121.005L-381.451 121.767L-382.4 122.524L-383.333 123.277L-384.251 124.024L-385.152 124.767L-386.038 125.504L-386.908 126.237L-387.762 126.965L-388.6 127.688L-389.422 128.405L-390.227 129.118L-391.017 129.826L-391.79 130.528L-392.547 131.226L-393.287 131.918L-394.011 132.605L-394.718 133.288L-395.409 133.965L-396.084 134.637L-396.741 135.304L-397.382 135.965L-398.007 136.622L-398.614 137.273L-399.205 137.919L-399.778 138.56L-400.335 139.196L-400.875 139.826L-401.398 140.452L-401.904 141.072L-402.392 141.687L-402.864 142.296L-403.319 142.901L-403.756 143.5L-404.176 144.093L-404.578 144.682L-404.964 145.265L-405.332 145.843L-405.682 146.415L-406.016 146.983L-406.331 147.545L-406.63 148.101L-406.91 148.653L-407.173 149.199L-407.419 149.739L-407.647 150.274L-407.857 150.804L-408.05 151.329L-408.225 151.848L-408.382 152.362L-408.522 152.871L-408.643 153.374L-408.747 153.872L-408.833 154.364L-408.902 154.851L-408.952 155.333L-408.985 155.809L-408.999 156.28L-408.996 156.746L-408.975 157.206L-408.935 157.661L-408.878 158.11L-408.803 158.554L-408.71 158.993L-408.599 159.426L-408.47 159.854L-408.323 160.277L-408.157 160.694L-407.974 161.106L-407.773 161.512L-407.553 161.914L-407.316 162.309L-407.06 162.7L-406.787 163.085L-406.495 163.465L-406.185 163.839L-405.857 164.208L-405.511 164.572L-405.147 164.93L-404.765 165.283L-404.365 165.631L-403.946 165.974L-403.51 166.311L-403.055 166.643L-402.582 166.969L-402.092 167.291L-401.583 167.607L-401.056 167.917L-400.511 168.223L-399.948 168.523L-399.367 168.818L-398.768 169.108L-398.151 169.392L-397.516 169.671L-396.863 169.945L-396.191 170.214L-395.502 170.478L-394.795 170.736L-394.071 170.989L-393.328 171.237L-392.567 171.48L-391.788 171.718L-390.992 171.951L-390.178 172.178L-389.346 172.4L-388.496 172.618L-387.628 172.83L-386.743 173.037L-385.84 173.239L-384.919 173.436L-383.981 173.628L-383.025 173.815L-382.051 173.996L-381.06 174.173L-380.051 174.345L-379.025 174.512L-377.981 174.674L-376.92 174.831L-375.842 174.983L-374.746 175.13L-373.633 175.272L-372.502 175.409L-371.354 175.541L-370.189 175.669L-369.007 175.791L-367.808 175.909L-366.592 176.022L-365.358 176.13L-364.108 176.233L-362.84 176.332L-361.556 176.426L-360.255 176.515L-358.937 176.599L-357.602 176.679L-356.251 176.754L-354.883 176.824L-353.498 176.889L-352.096 176.95L-350.679 177.006L-349.244 177.058L-347.794 177.105L-346.326 177.148L-344.843 177.186L-343.343 177.219L-341.827 177.248L-340.295 177.272L-338.747 177.292L-337.183 177.308L-335.603 177.318L-334.007 177.325L-332.395 177.327L-330.768 177.325L-329.125 177.318L-327.466 177.307L-325.791 177.292L-324.101 177.272L-322.396 177.248L-320.675 177.22L-318.939 177.188L-317.188 177.151L-315.421 177.11L-313.64 177.065L-311.843 177.016L-310.032 176.963L-308.205 176.905L-306.364 176.843L-304.508 176.778L-302.638 176.708L-300.752 176.634L-298.853 176.556L-296.939 176.474L-295.01 176.389L-293.068 176.299L-291.111 176.205L-289.14 176.107L-287.155 176.006L-285.156 175.901L-283.143 175.791L-281.117 175.678L-279.076 175.561L-277.023 175.441L-274.955 175.316L-272.875 175.188L-270.781 175.056L-268.673 174.921L-266.553 174.782L-264.419 174.639L-262.273 174.492L-260.113 174.342L-257.941 174.189L-255.756 174.031L-253.559 173.871L-251.349 173.706L-249.126 173.539L-246.892 173.368L-244.645 173.193L-242.386 173.015L-240.114 172.833L-237.831 172.649L-235.536 172.46L-233.23 172.269L-230.912 172.074L-228.582 171.876L-226.24 171.675L-223.888 171.47L-221.524 171.263L-219.149 171.052L-216.763 170.838L-214.366 170.621L-211.959 170.4L-209.54 170.177L-207.111 169.951L-204.672 169.721L-202.222 169.489L-199.761 169.253L-197.291 169.015L-194.811 168.773L-192.32 168.529L-189.82 168.282L-187.31 168.032L-184.791 167.779L-182.261 167.523L-179.723 167.265L-177.175 167.003L-174.618 166.739L-172.052 166.472L-169.477 166.203L-166.893 165.931L-164.301 165.656L-161.7 165.379L-159.09 165.099L215.13 112.928L220.264 112.044L222.817 111.602L225.361 111.16L227.895 110.718L230.419 110.276L232.934 109.834L235.438 109.392L237.933 108.95L240.417 108.507L242.891 108.065L245.355 107.622L247.808 107.18L250.25 106.738L252.682 106.295L255.103 105.853L257.513 105.41L259.912 104.968L262.299 104.526L264.675 104.083L267.04 103.641L269.393 103.199L271.735 102.757L274.065 102.315L276.382 101.873L278.688 101.431L280.982 100.989L283.264 100.547L285.533 100.106L287.789 99.6643L290.033 99.2229L292.265 98.7816L294.484 98.3404L296.689 97.8994L298.882 97.4585L301.062 97.0178L303.228 96.5771L305.382 96.1367L307.521 95.6964L309.648 95.2562L311.76 94.8162L313.859 94.3764L315.944 93.9367L318.016 93.4972L320.073 93.0579L322.116 92.6188L324.145 92.1799L326.159 91.7411L328.159 91.3026L330.145 90.8642L332.116 90.4261L334.072 89.9882L336.014 89.5504L337.94 89.1129L339.852 88.6756L341.749 88.2385L343.63 87.8016L345.496 87.3649L347.347 86.9285L349.182 86.4922L351.002 86.0562L352.806 85.6205L354.595 85.1849L356.368 84.7496L358.124 84.3145L359.865 83.8797L361.59 83.4451L363.299 83.0107L364.992 82.5766L366.668 82.1427L368.328 81.709L369.971 81.2756L371.598 80.8424L373.208 80.4095L374.802 79.9767L376.379 79.5443L377.939 79.1121L379.482 78.6801L381.008 78.2484L382.517 77.8169L384.008 77.3856L385.483 76.9546L386.941 76.5238L388.38 76.0933L389.803 75.663L391.208 75.2329L392.596 74.8031L393.965 74.3735L395.318 73.9442L396.652 73.515L397.969 73.0862L399.267 72.6575L400.548 72.2291L401.811 71.8009L403.055 71.3729L404.282 70.9452L405.49 70.5177L406.68 70.0904L407.852 69.6633L409.005 69.2364L410.14 68.8098L411.257 68.3834L412.355 67.9571L413.434 67.5311L414.495 67.1053L415.537 66.6797L416.56 66.2543L417.564 65.8291L418.55 65.4041L419.517 64.9793L420.465 64.5547L421.393 64.1302L422.303 63.706L423.194 63.2819L424.065 62.858L424.918 62.4343L425.751 62.0108L426.565 61.5874L427.36 61.1642L428.135 60.7412L428.891 60.3183L429.628 59.8956L430.345 59.473L431.043 59.0506L431.721 58.6283L432.379 58.2062L433.019 57.7842L433.638 57.3623L434.238 56.9406L434.818 56.519L435.379 56.0975L435.92 55.6761L436.441 55.2549L436.942 54.8337L437.424 54.4127L437.885 53.9917L438.327 53.5709L438.749 53.1502L439.152 52.7295L439.534 52.309L439.896 51.8885L440.239 51.4681L440.561 51.0478L440.864 50.6275L441.146 50.2073L441.409 49.7872L441.651 49.3671L441.874 48.947L442.076 48.5271L442.259 48.1071L442.421 47.6872L442.564 47.2674L442.686 46.8475L442.788 46.4277L442.87 46.0079L442.933 45.5882L442.975 45.1684L442.997 44.7486L442.998 44.3289L442.98 43.9091L442.942 43.4894L442.883 43.0696L442.805 42.6498L442.706 42.23L442.588 41.8102L442.449 41.3903L442.29 40.9704L442.112 40.5505L441.913 40.1305L441.694 39.7105L441.455 39.2904L441.196 38.8703L440.918 38.4501L440.619 38.0299L440.3 37.6095L439.961 37.1891L439.602 36.7687L439.224 36.3481L438.825 35.9275L438.407 35.5068L437.969 35.086L437.511 34.6651L437.033 34.244L436.535 33.8229L436.018 33.4017L435.48 32.9803L434.924 32.5588L434.347 32.1373L433.751 31.7156L433.135 31.2937L432.499 30.8718L431.844 30.4497L431.17 30.0274L430.476 29.605L429.762 29.1825L429.029 28.7598L428.277 28.3369L427.505 27.9139L426.714 27.4907L425.903 27.0674L425.074 26.6439L424.225 26.2202L423.357 25.7964L422.47 25.3723L421.563 24.9481L420.638 24.5237L419.694 24.0991L418.731 23.6744L417.749 23.2494L416.748 22.8242L415.728 22.3989L414.689 21.9733L413.632 21.5475L412.556 21.1216L411.462 20.6954L410.349 20.269L409.217 19.8424L408.067 19.4156L406.899 18.9885L405.712 18.5613L404.507 18.1338L403.284 17.7061L402.043 17.2781L400.783 16.85L399.506 16.4216L398.211 15.993L396.897 15.5642L395.566 15.1351L394.217 14.7058L392.851 14.2763L391.466 13.8465L390.065 13.4165L388.645 12.9862L387.209 12.5557L385.754 12.125L384.283 11.694L382.794 11.2628L381.289 10.8313L379.766 10.3996L378.226 9.96771L376.669 9.53555L375.095 9.10311L373.505 8.67046L371.898 8.23756L370.274 7.80444L368.634 7.37104L366.977 6.93745L365.303 6.50358L363.614 6.06949L361.908 5.63515L360.186 5.20058L358.448 4.76577L356.694 4.33075L354.925 3.89548L353.139 3.46L351.338 3.02426L349.521 2.5883L347.688 2.15214L345.84 1.71572L343.977 1.27911L342.098 0.842241L340.205 0.405162L338.296 -0.0320924L336.372 -0.469599L334.433 -0.9073L332.48 -1.34521L330.511 -1.78332L328.528 -2.22165L326.531 -2.66014L324.519 -3.09884L322.493 -3.53776L320.452 -3.97682L318.398 -4.41608L316.329 -4.85555L314.247 -5.29517L312.15 -5.73497L310.04 -6.17493L307.916 -6.61505L305.779 -7.05534L303.628 -7.49578L301.464 -7.93638L299.287 -8.37709L297.097 -8.81798L294.893 -9.259L292.677 -9.70012L290.448 -10.1414L288.206 -10.5828L285.952 -11.0243L283.685 -11.4659L281.406 -11.9076L279.114 -12.3494L276.811 -12.7912L274.495 -13.2332L272.168 -13.6753L269.828 -14.1174L267.477 -14.5596L265.114 -15.0018L262.74 -15.444L260.355 -15.8864L257.958 -16.3287L255.55 -16.7711L253.132 -17.2135L250.702 -17.6559L248.261 -18.0983L245.81 -18.5407L243.348 -18.9831L240.876 -19.4255L238.394 -19.8678L235.901 -20.3101L233.398 -20.7524L230.886 -21.1945L228.363 -21.6367L225.831 -22.0787L223.289 -22.5207L220.738 -22.9626L218.177 -23.4043L-158.606 -76.0466L-161.217 -76.3271L-163.819 -76.605L-166.414 -76.8803L-168.999 -77.153L-171.576 -77.423L-174.143 -77.6903L-176.702 -77.9548L-179.251 -78.2166L-181.792 -78.4757L-184.323 -78.7319L-186.844 -78.9853L-189.356 -79.2359L-191.858 -79.4837L-194.35 -79.7285L-196.832 -79.9704L-199.304 -80.2094L-201.767 -80.4454L-204.218 -80.6785L-206.66 -80.9085L-209.091 -81.1355L-211.511 -81.3594L-213.921 -81.5803L-216.32 -81.798L-218.708 -82.0127L-221.085 -82.2242L-223.451 -82.4325L-225.805 -82.6376L-228.149 -82.8395L-230.481 -83.0381L-232.801 -83.2335L-235.11 -83.4256L-237.407 -83.6143L-239.692 -83.7997L-241.966 -83.9818L-244.227 -84.1605L-246.476 -84.3357L-248.713 -84.5075L-250.938 -84.6759L-253.15 -84.8408L-255.35 -85.0022L-257.537 -85.16L-259.712 -85.3144L-261.874 -85.4651L-264.022 -85.6123L-266.158 -85.7558L-268.281 -85.8957L-270.391 -86.0319L-272.488 -86.1644L-274.571 -86.2932L-276.641 -86.4183L-278.697 -86.5397L-280.74 -86.6572L-282.769 -86.771L-284.784 -86.8809L-286.785 -86.987L-288.773 -87.0893L-290.747 -87.1876L-292.706 -87.282L-294.651 -87.3726L-296.582 -87.4591L-298.499 -87.5417L-300.401 -87.6203L-302.289 -87.6948L-304.163 -87.7653L-306.021 -87.8318L-307.865 -87.8942L-309.694 -87.9525L-311.509 -88.0066L-313.308 -88.0566L-315.092 -88.1025L-316.862 -88.1441L-318.616 -88.1816L-320.355 -88.2148L-322.078 -88.2438L-323.787 -88.2685L-325.479 -88.2889L-327.157 -88.305L-328.818 -88.3168L-330.465 -88.3242L-332.095 -88.3273L-333.71 -88.326L-335.309 -88.3203L-336.892 -88.3101L-338.459 -88.2955L-340.01 -88.2765L-341.545 -88.253L-343.064 -88.2249L-344.566 -88.1924L-346.053 -88.1553L-347.523 -88.1137L-348.977 -88.0675L-350.414 -88.0167L-351.835 -87.9612L-353.239 -87.9012L-354.627 -87.8365L-355.999 -87.7672L-357.353 -87.6932L-358.691 -87.6144L-360.012 -87.531L-361.316 -87.4429L-362.604 -87.35L-363.874 -87.2523L-365.128 -87.1499L-366.364 -87.0427L-367.584 -86.9306L-368.786 -86.8138L-369.972 -86.6921L-371.14 -86.5655L-372.291 -86.4341L-373.424 -86.2978L-374.541 -86.1566L-375.64 -86.0105L-376.722 -85.8595L-377.786 -85.7035L-378.833 -85.5425L-379.862 -85.3766L-380.874 -85.2057L-381.869 -85.0298L-382.846 -84.8489L-383.805 -84.663L-384.747 -84.4721L-385.671 -84.2761L-386.577 -84.075L-387.466 -83.8689L-388.336 -83.6577L-389.19 -83.4414L-390.025 -83.22L-390.843 -82.9934L-391.642 -82.7618L-392.424 -82.525L-393.188 -82.283L-393.934 -82.0359L-394.662 -81.7837L-395.373 -81.5262L-396.065 -81.2636L-396.74 -80.9957L-397.396 -80.7227L-398.034 -80.4444L-398.655 -80.1609L-399.257 -79.8722L-399.842 -79.5782L-400.408 -79.279L-400.956 -78.9745L-401.487 -78.6648L-401.999 -78.3498L-402.493 -78.0295L-402.969 -77.7039L-403.427 -77.373L-403.867 -77.0368L-404.288 -76.6954L-404.692 -76.3486L-405.078 -75.9965L-405.445 -75.639L-405.795 -75.2763L-406.126 -74.9082L-406.439 -74.5348L-406.734 -74.156L-407.011 -73.7719L-407.27 -73.3824L-407.511 -72.9876L-407.734 -72.5875L-407.938 -72.1819L-408.125 -71.7711L-408.293 -71.3548L-408.444 -70.9332L-408.576 -70.5062L-408.691 -70.0739L-408.787 -69.6361L-408.866 -69.1931L-408.926 -68.7446L-408.969 -68.2908L-408.993 -67.8315L-409 -67.367L-408.989 -66.897L-408.959 -66.4217L-408.912 -65.941L-408.847 -65.4549L-408.765 -64.9635L-408.664 -64.4667L-408.546 -63.9645L-408.409 -63.457L-408.255 -62.9441L-408.084 -62.4259L-407.894 -61.9023L-407.687 -61.3733L-407.463 -60.839L-407.22 -60.2994L-406.96 -59.7544L-406.683 -59.2041L-406.388 -58.6485L-406.075 -58.0875L-405.745 -57.5212L-405.398 -56.9496L-405.033 -56.3727L-404.651 -55.7905L-404.252 -55.203L-403.835 -54.6103L-403.401 -54.0122L-402.95 -53.4089L-402.481 -52.8003L-401.996 -52.1864L-401.493 -51.5674L-400.973 -50.943L-400.437 -50.3134L-399.883 -49.6787L-399.312 -49.0387L-398.725 -48.3935L-398.12 -47.7431L-397.499 -47.0875L-396.861 -46.4268L-396.207 -45.7609L-395.536 -45.0899L-394.848 -44.4137L-394.143 -43.7325L-393.422 -43.0461L-392.685 -42.3546L-391.931 -41.658L-391.161 -40.9564L-390.375 -40.2497L-389.572 -39.5379L-388.754 -38.8212L-387.919 -38.0994L-387.068 -37.3726L-386.201 -36.6408L-385.318 -35.9041L-384.419 -35.1624L-383.504 -34.4158L-382.574 -33.6643L-381.628 -32.9078L-380.666 -32.1465L-379.688 -31.3803L-378.695 -30.6093L-377.687 -29.8334L-376.663 -29.0527L-375.624 -28.2672L-374.57 -27.4769L-373.5 -26.6819L-372.415 -25.8822L-371.315 -25.0777L-370.2 -24.2685L-369.071 -23.4547L-367.926 -22.6362L-366.767 -21.813L-365.592 -20.9853L-364.404 -20.1529L-363.2 -19.316L-361.982 -18.4745L-360.75 -17.6286L-359.503 -16.7781L-358.242 -15.9231L-356.967 -15.0637L-355.678 -14.1998L-354.374 -13.3315L-353.057 -12.4589L-351.726 -11.5819L-350.38 -10.7006L-349.021 -9.81492L-347.649 -8.92499L-346.263 -8.0308L-344.863 -7.13237L-343.45 -6.22977L-342.024 -5.32297L-340.584 -4.41204L-339.131 -3.49696L-337.665 -2.57783L-336.186 -1.65461L-334.694 -0.727335L-333.19 0.203904L-331.672 1.13918L-330.142 2.07837L-328.599 3.0215L-327.044 3.96849L-325.476 4.91934L-323.896 5.87403L-322.304 6.83252L-320.699 7.79479L-319.083 8.76078L-317.454 9.73049L-315.814 10.7039L-314.162 11.6809L-312.498 12.6615L-310.823 13.6457L-309.136 14.6335L-307.438 15.6247L-305.728 16.6195L-304.007 17.6176L-302.275 18.6192L-300.532 19.6242L-298.778 20.6324L-297.013 21.644L-295.237 22.6589L-293.451 23.677L-291.654 24.6983L-289.846 25.7227L-288.028 26.7503L-286.2 27.781L-284.362 28.8147L-282.514 29.8514L-280.655 30.8911L-278.787 31.9337L-276.909 32.9793L-275.022 34.0276L-273.124 35.0789L-271.218 36.1329L-269.301 37.1897L-267.376 38.2491L-265.441 39.3112L-263.498 40.376L-261.545 41.4433L-259.583 42.5132L-257.613 43.5856L-255.634 44.6604L-253.646 45.7377L-251.65 46.8174L48.4393 193.501L50.5979 194.452L52.7507 195.399L54.8979 196.341L57.0391 197.278L59.1743 198.21L61.3035 199.138L63.4265 200.061L65.5433 200.979L67.6537 201.892L69.7578 202.8L71.8554 203.703L73.9463 204.601L76.0307 205.494L78.1083 206.382L80.1791 207.265L82.2429 208.142L84.2998 209.014L86.3496 209.88L88.3923 210.741L90.4277 211.597L92.4558 212.447L94.4766 213.292L96.4898 214.131L98.4955 214.964L100.494 215.791L102.484 216.613L104.467 217.429L106.441 218.239L108.408 219.043L110.367 219.841L112.318 220.633L114.26 221.419L116.195 222.199L118.121 222.973L120.039 223.74L121.948 224.502L123.848 225.257L125.741 226.005L127.624 226.747L129.499 227.483L131.365 228.213L133.222 228.935L135.07 229.651L136.909 230.361L138.74 231.064L140.561 231.76L142.372 232.449L144.175 233.132L145.968 233.808L147.752 234.477L149.526 235.139L151.291 235.793L153.047 236.441L154.792 237.082L156.528 237.716L158.254 238.343L159.971 238.962L161.677 239.574L163.374 240.179L165.06 240.777L166.737 241.367L168.403 241.95L170.06 242.525L171.706 243.093L173.342 243.653L174.967 244.206L176.582 244.751L178.187 245.289L179.781 245.819L181.365 246.341L182.938 246.855L184.5 247.362L186.052 247.861L187.593 248.352L189.123 248.835L190.643 249.31L192.151 249.777L193.649 250.236L195.136 250.687L196.611 251.13L198.076 251.565L199.529 251.992L200.972 252.41L202.403 252.82L203.823 253.222L205.231 253.616L206.629 254.002L208.015 254.379L209.389 254.748L210.753 255.108L212.104 255.46L213.444 255.803L214.773 256.138L216.09 256.464L217.396 256.782L218.69 257.091L219.972 257.392L221.242 257.684L222.501 257.967L223.748 258.242L224.983 258.507L226.206 258.764L227.418 259.013L228.617 259.252L229.805 259.483L230.98 259.704L232.144 259.917L233.296 260.121L234.435 260.316L235.563 260.502L236.678 260.679L237.782 260.847L238.873 261.006L239.952 261.156L241.019 261.296L242.073 261.428L243.116 261.551L244.146 261.664L245.164 261.768L246.17 261.863L247.163 261.949L248.144 262.026L249.113 262.093L250.069 262.151L251.013 262.2L251.945 262.239L252.864 262.27L253.771 262.291L254.665 262.302L255.547 262.304L256.417 262.297L257.274 262.28L258.118 262.254L258.951 262.219L259.77 262.174L260.577 262.12L261.372 262.056L262.154 261.982L262.924 261.9L263.681 261.807L264.425 261.706L265.157 261.594L265.877 261.473L266.584 261.343L267.278 261.203L267.96 261.054L268.629 260.895L269.286 260.726L269.93 260.548L270.562 260.36L271.181 260.163L271.788 259.956L272.382 259.739L272.963 259.513L273.532 259.277L274.089 259.031L274.633 258.776L275.164 258.512L275.683 258.237L276.189 257.953L276.683 257.66L277.165 257.357L277.633 257.044L278.09 256.721L278.534 256.389L278.965 256.047L279.384 255.696L279.791 255.335L280.185 254.964L280.567 254.584L280.936 254.194L281.293 253.795L281.638 253.386L281.97 252.967L282.29 252.539L282.597 252.101L282.893 251.653L283.176 251.196L283.446 250.729L283.705 250.253L283.951 249.767L284.185 249.272L284.407 248.767L284.616 248.252L284.814 247.728L284.999 247.194L285.172 246.651L285.334 246.099L285.483 245.537L285.62 244.965L285.745 244.384L285.858 243.794L285.959 243.194L286.048 242.585L286.125 241.966L286.19 241.338L286.244 240.7L286.285 240.054L286.315 239.397L286.333 238.732L286.34 238.057L286.334 237.373L286.317 236.68L286.288 235.977L286.248 235.265L286.196 234.544L286.132 233.814L286.057 233.074L285.971 232.326L285.873 231.568L285.763 230.801L285.643 230.025L285.51 229.241L285.367 228.447L285.212 227.643L285.046 226.832L284.869 226.011L284.681 225.181L284.481 224.342L284.27 223.494L284.049 222.638L283.816 221.772L283.572 220.898L283.318 220.015L283.052 219.123L282.776 218.223L282.489 217.314L282.191 216.396L281.882 215.47L281.563 214.535L281.233 213.591L280.893 212.639L280.541 211.679L280.18 210.71L279.808 209.732L279.425 208.747L279.032 207.752L278.629 206.75L278.216 205.739L277.792 204.72L277.358 203.693L276.914 202.657L276.46 201.614L275.996 200.562L275.522 199.502L275.038 198.434L274.544 197.359L274.04 196.275L273.527 195.183L273.003 194.084L272.47 192.977L271.928 191.861L271.375 190.739L270.813 189.608L270.242 188.47L269.661 187.324L269.071 186.171L268.472 185.01L267.863 183.841L267.245 182.665L266.618 181.482L265.982 180.291L265.337 179.094L264.682 177.888L264.019 176.676L263.347 175.456L262.666 174.23L261.976 172.996L261.278 171.755L260.571 170.508L259.855 169.253L259.131 167.991L258.398 166.723L257.657 165.448L256.907 164.166L256.149 162.878L255.383 161.583L254.609 160.281L253.826 158.973L253.035 157.658L252.237 156.337L251.43 155.01L250.615 153.676L249.793 152.336L248.963 150.99L248.125 149.638L247.279 148.279L246.426 146.915L245.565 145.545L244.696 144.168L243.821 142.786L242.938 141.398L242.047 140.005L241.149 138.605L240.245 137.201L239.332 135.79L238.413 134.374L237.487 132.953L236.554 131.526L235.614 130.094L234.668 128.656L233.714 127.214L232.754 125.766L231.787 124.313L230.814 122.855L229.834 121.392L228.848 119.924L227.855 118.452L226.856 116.975L225.851 115.493L224.839 114.006L223.822 112.515L221.768 109.519L219.692 106.505L55.3915 -102.524L52.8467 -105.389L51.5771 -106.814L50.3096 -108.232L49.0441 -109.645L47.7806 -111.052L46.5192 -112.453L45.26 -113.848L44.0029 -115.237L42.7481 -116.62L41.4956 -117.997L40.2452 -119.367L38.9973 -120.731L37.7518 -122.089L36.5087 -123.44L35.268 -124.785L34.0298 -126.123L32.7941 -127.454L31.561 -128.779L30.3306 -130.097L29.1028 -131.408L27.8777 -132.712L26.6552 -134.009L25.4356 -135.299L24.2187 -136.581L23.0046 -137.857L21.7934 -139.125L20.5851 -140.386L19.3797 -141.64L18.1773 -142.886L16.9778 -144.125L15.7814 -145.356L14.5881 -146.579L13.3978 -147.795L12.2107 -149.003L11.0266 -150.203L9.84587 -151.395L8.66828 -152.58L7.49396 -153.756L6.32288 -154.924L5.15512 -156.084L3.99069 -157.236L2.82968 -158.379L1.67199 -159.514L0.517735 -160.641L-0.63304 -161.76L-1.78036 -162.87L-2.92416 -163.971L-4.06448 -165.064L-5.20115 -166.148L-6.33431 -167.223L-7.46385 -168.29L-8.58972 -169.348L-9.71195 -170.397L-10.8305 -171.437L-11.9453 -172.468L-13.0564 -173.49L-14.1637 -174.502L-15.2673 -175.506L-16.3671 -176.501L-17.463 -177.486L-18.5551 -178.462L-19.6433 -179.428L-20.7276 -180.385L-21.808 -181.333L-22.8845 -182.271L-23.957 -183.199L-25.0256 -184.118L-26.0901 -185.028L-27.1506 -185.927L-28.2071 -186.817L-29.2595 -187.697L-30.3079 -188.567L-31.3522 -189.427L-32.3924 -190.278L-33.4284 -191.118L-34.4603 -191.948L-35.488 -192.768L-36.5116 -193.578L-37.531 -194.378L-38.5461 -195.168L-39.5571 -195.947L-40.5639 -196.716L-41.5663 -197.475L-42.5645 -198.223L-43.5584 -198.961L-44.548 -199.688L-45.5333 -200.405L-46.5144 -201.112L-47.491 -201.807L-48.4633 -202.492L-49.4313 -203.167L-50.3949 -203.831L-51.3542 -204.484L-52.309 -205.126L-53.2594 -205.757L-54.2054 -206.378L-55.147 -206.988L-56.0842 -207.586L-57.0169 -208.174L-57.9452 -208.751L-58.8691 -209.317L-59.7884 -209.872L-60.7033 -210.415L-61.6136 -210.948L-62.5196 -211.469L-63.421 -211.98L-64.3179 -212.479L-65.2103 -212.966L-66.0982 -213.443L-66.9816 -213.908L-67.8604 -214.362L-68.7347 -214.805L-69.6044 -215.236L-70.4697 -215.655L-71.3304 -216.064L-72.1866 -216.461L-73.0381 -216.846L-73.8851 -217.22L-74.7276 -217.582L-75.5655 -217.933L-76.3988 -218.273L-77.2276 -218.6L-78.0518 -218.916L-78.8715 -219.221L-79.6865 -219.513L-80.497 -219.794L-81.3029 -220.064L-82.1042 -220.322L-82.901 -220.567L-83.6932 -220.802L-84.4808 -221.024L-85.2638 -221.235L-86.0423 -221.434L-86.8162 -221.621L-87.5855 -221.796L-88.3503 -221.959L-89.1104 -222.111L-89.8661 -222.25L-90.6171 -222.378L-91.3636 -222.494L-92.1056 -222.598L-92.843 -222.69L-93.5758 -222.77L-94.3041 -222.838L-95.0279 -222.895L-95.7471 -222.939L-96.4618 -222.971L-97.1719 -222.992L-97.8775 -223L-98.5786 -222.996L-99.2753 -222.981L-99.9673 -222.953L-100.655 -222.914L-101.338 -222.862L-102.017 -222.799L-102.691 -222.723L-103.36 -222.636L-104.026 -222.536L-104.686 -222.425L-105.343 -222.301L-105.994 -222.166L-106.642 -222.018L-107.285 -221.858L-107.923 -221.687L-108.557 -221.503L-109.187 -221.308L-109.812 -221.1L-110.433 -220.881L-111.05 -220.649L-111.662 -220.406L-112.27 -220.15L-112.873 -219.883L-113.472 -219.604L-114.067 -219.312L-114.658 -219.009L-115.244 -218.694L-115.826 -218.367L-116.403 -218.028L-116.977 -217.677L-117.546 -217.314L-118.111 -216.94L-118.671 -216.553L-119.227 -216.155L-119.78 -215.745L-120.328 -215.323L-120.871 -214.889L-121.411 -214.443L-121.946 -213.986L-122.477 -213.517L-123.004 -213.036L-123.527 -212.543L-124.046 -212.039L-124.561 -211.523L-125.072 -210.996L-125.578 -210.456L-126.081 -209.906L-126.579 -209.343L-127.074 -208.769L-127.564 -208.184L-128.05 -207.586L-128.533 -206.978L-129.011 -206.358L-129.486 -205.726L-129.956 -205.083L-130.423 -204.429L-130.885 -203.763L-131.344 -203.086L-131.799 -202.397L-132.25 -201.698L-132.697 -200.987L-133.14 -200.264L-133.58 -199.531L-134.016 -198.786L-134.447 -198.031L-134.875 -197.264L-135.3 -196.486L-135.72 -195.697L-136.137 -194.897L-136.55 -194.086L-136.96 -193.264L-137.365 -192.431L-137.767 -191.587L-138.166 -190.733L-138.56 -189.867L-138.952 -188.991L-139.339 -188.104L-139.723 -187.206L-140.103 -186.298L-140.48 -185.379L-140.853 -184.45L-141.223 -183.51L-141.589 -182.559L-141.952 -181.599L-142.311 -180.627L-142.667 -179.646L-143.019 -178.654L-143.368 -177.651L-143.714 -176.639L-144.056 -175.616L-144.395 -174.583L-144.73 -173.54L-145.062 -172.487L-145.391 -171.424L-145.716 -170.351L-146.038 -169.268L-146.357 -168.175L-146.673 -167.073L-146.985 -165.96L-147.294 -164.838L-147.6 -163.706L-147.903 -162.565L-148.203 -161.414L-148.499 -160.254L-148.792 -159.084L-149.082 -157.904L-149.369 -156.716L-149.653 -155.518L-149.934 -154.31L-150.212 -153.094L-150.487 -151.868L-150.759 -150.633L-151.027 -149.39L-151.293 -148.137L-151.556 -146.875L-151.816 -145.605L-152.073 -144.325L-152.327 -143.037L-152.578 -141.741L-152.826 -140.435L-153.071 -139.121L-153.313 -137.799L-153.553 -136.468L-153.79 -135.128L-154.024 -133.781L-154.255 -132.425L-154.483 -131.061L-154.709 -129.688L-154.932 -128.308L-155.152 -126.919L-155.369 -125.523L-155.584 -124.119L-155.796 -122.707L-156.005 -121.287L-156.212 -119.859L-156.416 -118.424L-156.618 -116.981L-156.816 -115.531L-157.013 -114.073L-157.206 -112.608L-157.397 -111.136L-157.586 -109.656L-157.772 -108.169L-157.955 -106.675L-158.136 -105.174L-158.315 -103.666L-158.491 -102.152L-158.664 -100.63L-158.835 -99.1016L-159.004 -97.5665L-159.17 -96.0248L-159.334 -94.4766L-159.495 -92.9219L-159.654 -91.3608L-159.811 -89.7933L-159.965 -88.2197L-160.117 -86.6398L-160.266 -85.0538L-160.414 -83.4618L-160.558 -81.8638L-160.701 -80.2599L-160.841 -78.6503L-160.98 -77.0348L-161.115 -75.4137L-161.249 -73.7871L-161.509 -70.5172L-161.219 163.148L-161.085 164.774L-160.949 166.394L-160.81 168.008L-160.67 169.616L-160.526 171.219L-160.381 172.816L-160.233 174.406L-160.083 175.991L-159.931 177.569L-159.776 179.142L-159.619 180.708L-159.459 182.267L-159.297 183.821L-159.133 185.367L-158.966 186.908L-158.797 188.441L-158.626 189.968L-158.452 191.488L-158.275 193.002L-158.096 194.508L-157.915 196.007L-157.731 197.5L-157.544 198.985L-157.355 200.463L-157.163 201.934L-156.969 203.397L-156.772 204.853L-156.573 206.302L-156.371 207.743L-156.166 209.177L-155.959 210.603L-155.749 212.021L-155.537 213.431L-155.321 214.834L-155.103 216.228L-154.883 217.615L-154.659 218.993L-154.433 220.364L-154.204 221.726L-153.972 223.08L-153.738 224.426L-153.5 225.764L-153.26 227.093L-153.017 228.413L-152.771 229.725L-152.522 231.029L-152.27 232.324L-152.016 233.61L-151.758 234.887L-151.498 236.156L-151.234 237.416L-150.968 238.666L-150.698 239.908L-150.426 241.141L-150.151 242.364L-149.872 243.579L-149.591 244.784L-149.306 245.98L-149.018 247.167L-148.727 248.344L-148.433 249.512L-148.136 250.67L-147.836 251.819L-147.533 252.958L-147.226 254.088L-146.916 255.208L-146.603 256.318L-146.287 257.419L-145.967 258.509L-145.644 259.59L-145.318 260.661L-144.989 261.722L-144.656 262.772L-144.32 263.813L-143.98 264.844L-143.637 265.864L-143.291 266.874L-142.941 267.874L-142.588 268.864L-142.232 269.844L-141.872 270.813L-141.508 271.771L-141.141 272.719L-140.771 273.657L-140.397 274.584L-140.019 275.501L-139.638 276.406L-139.253 277.302L-138.865 278.186L-138.473 279.06L-138.078 279.923L-137.678 280.775L-137.276 281.616L-136.869 282.447L-136.459 283.266L-136.045 284.075L-135.627 284.873L-135.206 285.659L-134.781 286.435L-134.352 287.199L-133.919 287.952L-133.483 288.695L-133.042 289.425L-132.598 290.145L-132.15 290.854L-131.698 291.551L-131.243 292.237L-130.783 292.912L-130.32 293.575L-129.852 294.227L-129.381 294.867L-128.905 295.496L-128.426 296.114L-127.943 296.72L-127.455 297.314L-126.964 297.897L-126.469 298.469L-125.97 299.029L-125.466 299.577L-124.959 300.114L-124.447 300.639L-123.931 301.152L-123.412 301.654L-122.888 302.144L-122.36 302.622L-121.828 303.088L-121.291 303.543L-120.751 303.986L-120.206 304.417L-119.657 304.836L-119.104 305.244L-118.547 305.64L-117.986 306.024L-117.42 306.396L-116.85 306.756L-116.276 307.104L-115.697 307.44L-115.114 307.765L-114.527 308.077L-113.936 308.378L-113.34 308.666L-112.74 308.943L-112.135 309.208L-111.526 309.461L-110.913 309.701L-110.296 309.93L-109.674 310.147L-109.048 310.352L-108.417 310.545L-107.782 310.726L-107.142 310.895L-106.498 311.052L-105.85 311.196L-105.197 311.329L-104.54 311.45L-103.878 311.559L-103.212 311.656L-102.541 311.741L-101.866 311.814L-101.187 311.874L-100.503 311.923L-99.814 311.96L-99.121 311.985L-98.4234 311.998L-97.7213 311.999L-97.0146 311.988L-96.3035 311.965L-95.5878 311.93L-94.8675 311.883L-94.1428 311.824L-93.4135 311.753L-92.6796 311.67L-91.9413 311.576L-91.1983 311.469L-90.4508 311.35L-89.6987 311.22L-88.9421 311.078L-88.1809 310.924L-87.4151 310.758L-86.6448 310.58L-85.8699 310.39L-85.0903 310.189L-84.3063 309.975L-83.5177 309.75L-82.7245 309.514L-81.9267 309.265L-81.1244 309.005L-80.3174 308.733L-79.5059 308.449L-78.6899 308.154L-77.8692 307.847L-77.044 307.528L-76.2142 307.198L-75.3799 306.856L-74.541 306.503L-73.6975 306.138L-72.8494 305.761L-71.9968 305.373L-71.1397 304.974L-70.278 304.563L-69.4117 304.141L-68.541 303.707L-67.6657 303.262L-66.7858 302.805L-65.9015 302.338L-65.0126 301.859L-64.1192 301.368L-63.2213 300.867L-62.3188 300.354L-61.4119 299.83L-60.5005 299.295L-59.5846 298.749L-58.6643 298.192L-57.7394 297.624L-56.8102 297.044L-55.8765 296.454L-54.9383 295.853L-53.9958 295.241L-53.0487 294.618L-52.0973 293.984L-51.1415 293.339L-50.1814 292.684L-49.2168 292.018L-48.2478 291.341L-47.2745 290.653L-46.2969 289.955L-45.3149 289.247L-44.3287 288.527L-43.3381 287.798L-42.3432 287.057L-41.344 286.307L-40.3407 285.546L-39.333 284.774L-38.3211 283.993L-37.305 283.201L-36.2847 282.399L-35.2602 281.587L-34.2315 280.764L-33.1987 279.932L-32.1617 279.089L-31.1206 278.237L-30.0755 277.374L-29.0262 276.502L-27.9729 275.62L-26.9154 274.728L-25.8541 273.826L-24.7886 272.915L-23.7192 271.994L-22.6458 271.063L-21.5685 270.123L-20.4872 269.173L-19.402 268.214L-18.3129 267.245L-17.22 266.267L-16.1232 265.28L-15.0226 264.284L-13.9182 263.278L-12.8101 262.263L-11.6981 261.239L-10.5825 260.206L-9.46307 259.164L-8.34002 258.113L-7.21333 257.054L-6.08299 255.985L-4.94908 254.908L-3.81158 253.822L-2.6705 252.727L-1.52588 251.624L-0.377826 250.512L0.773709 249.392L1.92873 248.263L3.08717 247.126L4.24897 245.98L5.41414 244.827L6.58262 243.665L7.75444 242.495L8.92945 241.317L10.1078 240.131L11.2893 238.937L12.474 237.735L13.6618 236.526L14.8528 235.308L16.0468 234.083L17.2439 232.85L18.444 231.61L19.6471 230.362L20.8531 229.107L22.0621 227.844L23.2739 226.574L24.4886 225.297L25.7061 224.013L26.9264 222.721L28.1494 221.422L29.3752 220.117L30.6036 218.804L31.8347 217.485L33.0683 216.159L34.3045 214.826L35.5433 213.486L36.7845 212.14L38.0281 210.788L39.2742 209.428L40.5227 208.063L41.7735 206.691L43.0265 205.313L44.2819 203.929L45.5394 202.539L46.7991 201.142L48.061 199.74L49.3249 198.331L50.5908 196.917L51.8589 195.498L53.1288 194.072L54.4007 192.641L220.963 -19.3487L221.998 -20.8523L223.026 -22.3516L224.048 -23.8464L225.064 -25.3366L226.074 -26.8223L227.078 -28.3033L228.076 -29.7796L229.067 -31.2511L230.052 -32.7177L231.031 -34.1795L232.002 -35.6362L232.968 -37.0879L233.926 -38.5346L234.878 -39.9761L235.824 -41.4123L236.762 -42.8433L237.694 -44.2689L238.618 -45.6892L239.536 -47.104L240.446 -48.5132L241.349 -49.9169L242.245 -51.315L243.134 -52.7073L244.016 -54.094L244.89 -55.4747L245.757 -56.8497L246.616 -58.2187L247.467 -59.5817L248.311 -60.9387L249.148 -62.2896L249.976 -63.6344L250.797 -64.9729L251.61 -66.3053L252.415 -67.6312L253.212 -68.9509L254 -70.2641L254.781 -71.5708L255.554 -72.871L256.318 -74.1647L257.074 -75.4517L257.822 -76.732L258.561 -78.0056L259.292 -79.2724L260.015 -80.5324L260.729 -81.7855L261.434 -83.0317L262.13 -84.2709L262.818 -85.503L263.497 -86.7281L264.167 -87.9461L264.829 -89.1569L265.481 -90.3604L266.124 -91.5567L266.758 -92.7457L267.383 -93.9273L267.999 -95.1015L268.606 -96.2683L269.203 -97.4276L269.791 -98.5793L270.37 -99.7235L270.939 -100.86L271.499 -101.989L272.049 -103.11L272.589 -104.223L273.12 -105.329L273.641 -106.427L274.153 -107.517L274.654 -108.599L275.146 -109.673L275.628 -110.739L276.1 -111.797L276.562 -112.846L277.014 -113.888L277.456 -114.922L277.887 -115.947L278.309 -116.964L278.72 -117.973L279.121 -118.974L279.511 -119.966L279.891 -120.95L280.261 -121.926L280.62 -122.893L280.969 -123.852L281.307 -124.802L281.635 -125.743L281.952 -126.677L282.258 -127.601L282.554 -128.517L282.838 -129.424L283.112 -130.322L283.375 -131.212L283.627 -132.093L283.869 -132.965L284.099 -133.829L284.318 -134.683L284.526 -135.529L284.723 -136.366L284.909 -137.194L285.084 -138.013L285.247 -138.823L285.4 -139.624L285.541 -140.416L285.67 -141.199L285.789 -141.973L285.896 -142.737L285.991 -143.493L286.075 -144.24L286.148 -144.977L286.209 -145.705L286.258 -146.424L286.296 -147.134L286.322 -147.835L286.336 -148.526L286.339 -149.208L286.33 -149.881L286.31 -150.544L286.277 -151.198L286.233 -151.843L286.177 -152.478L286.109 -153.104L286.029 -153.721L285.937 -154.328L285.834 -154.926L285.718 -155.514L285.59 -156.093L285.451 -156.663L285.299 -157.223L285.135 -157.773L284.959 -158.314L284.771 -158.845L284.571 -159.367L284.359 -159.88L284.134 -160.383L283.897 -160.876L283.648 -161.36L283.387 -161.834L283.114 -162.298L282.828 -162.753L282.53 -163.199L282.22 -163.635L281.897 -164.061L281.562 -164.478L281.215 -164.885L280.855 -165.282L280.483 -165.67L280.099 -166.048L279.702 -166.416L279.292 -166.775L278.87 -167.124L278.436 -167.464L277.99 -167.794L277.53 -168.114L277.059 -168.425L276.575 -168.726L276.078 -169.018L275.569 -169.299L275.047 -169.572L274.513 -169.834L273.966 -170.087L273.407 -170.33L272.835 -170.564L272.251 -170.788L271.654 -171.003L271.045 -171.208L270.423 -171.403L269.788 -171.588L269.141 -171.765L268.482 -171.931L267.81 -172.088L267.125 -172.235L266.428 -172.373L265.718 -172.501L264.996 -172.62L264.261 -172.729L263.514 -172.829L262.754 -172.919L261.982 -173L261.197 -173.071L260.399 -173.133L259.589 -173.185L258.767 -173.228L257.932 -173.261L257.085 -173.285L256.225 -173.3L255.353 -173.305L254.468 -173.301L253.571 -173.287L252.661 -173.264L251.739 -173.232L250.805 -173.19L249.858 -173.139L248.899 -173.079L247.927 -173.01L246.944 -172.931L245.947 -172.843L244.939 -172.746L243.918 -172.64L242.885 -172.524L241.84 -172.4L240.783 -172.266L239.713 -172.123L238.632 -171.972L237.538 -171.811L236.432 -171.641L235.313 -171.462L234.183 -171.274L233.041 -171.077L231.887 -170.871L230.72 -170.656L229.542 -170.433L228.352 -170.2L227.15 -169.959L225.936 -169.708L224.71 -169.449L223.472 -169.182L222.222 -168.905L220.961 -168.62L219.688 -168.326L218.403 -168.024L217.107 -167.713L215.799 -167.393L214.479 -167.065L213.148 -166.728L211.805 -166.383L210.451 -166.029L209.085 -165.667L207.708 -165.296L206.319 -164.917L204.92 -164.53L203.508 -164.134L202.086 -163.73L200.652 -163.318L199.208 -162.898L197.752 -162.469L196.285 -162.033L194.806 -161.588L193.317 -161.135L191.817 -160.674L190.306 -160.205L188.785 -159.728L187.252 -159.244L185.708 -158.751L184.154 -158.25L182.589 -157.742L181.014 -157.226L179.428 -156.702L177.832 -156.17L176.225 -155.631L174.607 -155.084L172.979 -154.53L171.341 -153.968L169.693 -153.398L168.034 -152.821L166.366 -152.237L164.687 -151.645L162.998 -151.046L161.299 -150.439L159.591 -149.825L157.872 -149.204L156.144 -148.576L154.405 -147.941L152.658 -147.298L150.9 -146.649L149.133 -145.992L147.357 -145.329L145.571 -144.659L143.775 -143.981L141.971 -143.297L140.157 -142.606L138.334 -141.909L136.502 -141.204L134.661 -140.493L132.81 -139.776L130.951 -139.051L129.083 -138.321L127.207 -137.583L125.321 -136.84L123.427 -136.09L121.525 -135.333L119.613 -134.571L117.694 -133.802L115.766 -133.027L113.83 -132.245L111.885 -131.458L109.933 -130.665L107.972 -129.865L106.004 -129.06L104.027 -128.248L102.043 -127.431L100.051 -126.608L98.0508 -125.78L96.0434 -124.945L94.0285 -124.105L92.0061 -123.259L89.9764 -122.408L87.9394 -121.551L85.8951 -120.689L83.8437 -119.821L81.7853 -118.948L79.7199 -118.069L77.6476 -117.186L75.5685 -116.297L73.4827 -115.403L71.3902 -114.504L69.2912 -113.599L67.1857 -112.69L65.0738 -111.776L62.9556 -110.857L60.8313 -109.933L58.7007 -109.004L56.5642 -108.07L54.4216 -107.132L52.2732 -106.189L50.119 -105.242L47.9592 -104.29L-252.094 42.4222L-254.088 43.5014L-256.074 44.5781L-258.051 45.6524L-260.02 46.7243L-261.979 47.7936L-263.93 48.8604L-265.872 49.9246L-267.804 50.9861L-269.728 52.045L-271.642 53.1011L-273.546 54.1545L-275.442 55.2051L-277.327 56.2529L-279.203 57.2977L-281.069 58.3397L-282.925 59.3788L-284.771 60.4148L-286.607 61.4479L-288.433 62.4778L-290.248 63.5048L-292.054 64.5285L-293.848 65.5491L-295.632 66.5665L-297.405 67.5806L-299.168 68.5915L-300.92 69.599L-302.66 70.6032L-304.39 71.604L-306.108 72.6015L-307.816 73.5954L-309.511 74.5859L-311.196 75.5728L-312.869 76.5562L-314.53 77.5361L-316.179 78.5123L-317.817 79.4849L-319.443 80.4537L-321.057 81.4189L-322.658 82.3804L-324.248 83.338L-325.825 84.2918L-327.39 85.2419L-328.943 86.188L-330.483 87.1302L-332.01 88.0686L-333.525 89.0029L-335.027 89.9333L-336.516 90.8597L-337.992 91.782L-339.455 92.7002L-340.905 93.6144L-342.342 94.5244L-343.765 95.4303L-345.175 96.332L-346.572 97.2294L-347.955 98.1227L-349.324 99.0117L-350.68 99.8963L-352.022 100.777L-353.351 101.653L-354.665 102.524L-355.965 103.392L-357.251 104.255L-358.523 105.113L-359.781 105.967L-361.025 106.816L-362.254 107.661L-363.469 108.502L-364.669 109.338L-365.854 110.169L-367.025 110.996L-368.181 111.818L-369.323 112.636L-370.449 113.448L-371.561 114.256L-372.657 115.06L-373.739 115.859L-374.805 116.653L-375.856 117.442L-376.892 118.226L-377.912 119.006L-378.917 119.781L-379.907 120.551L-380.881 121.316L-381.839 122.076L-382.782 122.831L-383.709 123.582L-384.62 124.327L-385.515 125.068L-386.395 125.803L-387.258 126.534L-388.105 127.26L-388.937 127.98L-389.752 128.696L-390.551 129.407L-391.334 130.112L-392.1 130.813L-392.85 131.508L-393.584 132.199L-394.301 132.884L-395.002 133.564L-395.686 134.239L-396.354 134.909L-397.004 135.574L-397.639 136.233L-398.256 136.888L-398.857 137.537L-399.44 138.181L-400.007 138.82L-400.557 139.453L-401.09 140.082L-401.606 140.705L-402.105 141.323L-402.587 141.936L-403.051 142.543L-403.499 143.145L-403.929 143.742L-404.342 144.334L-404.737 144.92L-405.116 145.501L-405.477 146.077L-405.82 146.647L-406.146 147.212L-406.455 147.772L-406.746 148.326L-407.02 148.876L-407.276 149.419L-407.514 149.958L-407.735 150.491L-407.938 151.019L-408.123 151.541L-408.291 152.058L-408.441 152.57L-408.573 153.076L-408.688 153.577L-408.784 154.073L-408.863 154.563L-408.924 155.048L-408.967 155.527L-408.993 156.002L-409 156.47L-408.989 156.934L-408.961 157.392L-408.914 157.844L-408.85 158.292L-408.767 158.734L-408.667 159.17L-408.549 159.601L-408.412 160.027L-408.258 160.447L-408.085 160.862L-407.894 161.272L-407.686 161.676L-407.459 162.075L-407.214 162.469L-406.951 162.857L-406.67 163.24L-406.371 163.618L-406.054 163.99L-405.719 164.357L-405.365 164.719L-404.994 165.075L-404.604 165.426L-404.196 165.771L-403.771 166.112L-403.327 166.447L-402.865 166.776L-402.385 167.101L-401.887 167.42L-401.37 167.734L-400.836 168.042L-400.284 168.346L-399.713 168.644L-399.125 168.936L-398.519 169.224L-397.894 169.506L-397.252 169.783L-396.591 170.055L-395.913 170.322L-395.217 170.584L-394.502 170.84L-393.77 171.091L-393.02 171.337L-392.252 171.578L-391.466 171.813L-390.663 172.044L-389.841 172.269L-389.002 172.49L-388.145 172.705L-387.27 172.915L-386.377 173.12L-385.467 173.32L-384.539 173.515L-383.593 173.704L-382.63 173.889L-381.65 174.069L-380.651 174.244L-379.635 174.414L-378.602 174.578L-377.551 174.738L-376.483 174.893L-375.397 175.043L-374.295 175.188L-373.174 175.328L-372.037 175.463L-370.882 175.594L-369.71 175.719L-368.521 175.84L-367.315 175.956L-366.091 176.067L-364.851 176.173L-363.594 176.274L-362.319 176.371L-361.028 176.463L-359.72 176.55L-358.395 176.632L-357.054 176.71L-355.695 176.783L-354.321 176.851L-352.929 176.915L-351.521 176.974L-350.096 177.028L-348.655 177.078L-347.198 177.123L-345.724 177.164L-344.234 177.2L-342.728 177.231L-341.205 177.258L-339.667 177.281L-338.112 177.299L-336.542 177.313L-334.955 177.322L-333.353 177.326L-331.734 177.327L-330.1 177.323L-328.451 177.314L-326.786 177.302L-325.105 177.284L-323.409 177.263L-321.697 177.237L-319.97 177.208L-318.228 177.173L-316.47 177.135L-314.697 177.092L-312.91 177.046L-311.107 176.995L-309.289 176.94L-307.457 176.88L-305.61 176.817L-303.748 176.75L-301.871 176.678L-299.98 176.603L-298.075 176.523L-296.155 176.44L-294.221 176.353L-292.272 176.261L-290.31 176.166L-288.333 176.067L-286.342 175.964L-284.338 175.857L-282.319 175.746L-280.287 175.631L-278.241 175.513L-276.182 175.391L-274.109 175.265L-272.023 175.135L-269.924 175.002L-267.811 174.865L-265.685 174.724L-263.546 174.58L-261.395 174.432L-259.23 174.28L-257.053 174.125L-254.863 173.966L-252.66 173.804L-250.445 173.639L-248.218 173.469L-245.978 173.297L-243.726 173.121L-241.462 172.941L-239.186 172.759L-236.898 172.572L-234.598 172.383L-232.287 172.19L-229.964 171.994L-227.629 171.795L-225.284 171.592L-222.926 171.386L-220.558 171.177L-218.179 170.965L-215.788 170.75L-213.387 170.531L-210.975 170.31L-208.552 170.085L-206.119 169.857L-203.675 169.627L-201.221 169.393L-198.756 169.156L-196.282 168.917L-193.797 168.674L-191.303 168.429L-188.799 168.18L-186.285 167.929L-183.761 167.675L-181.228 167.418L-178.686 167.158L-176.135 166.896L-173.574 166.631L-171.004 166.363L-168.426 166.092L-165.838 165.819L-163.242 165.543L-160.638 165.265L-158.025 164.984L-155.403 164.7L-152.774 164.414L216.179 112.748L221.305 111.864L223.854 111.422L226.394 110.98L228.924 110.538L231.444 110.096L233.955 109.654L236.455 109.212L238.946 108.769L241.426 108.327L243.896 107.885L246.355 107.442L248.804 107L251.242 106.557L253.669 106.115L256.086 105.673L258.491 105.23L260.886 104.788L263.268 104.346L265.64 103.903L268 103.461L270.349 103.019L272.685 102.577L275.01 102.135L277.323 101.693L279.624 101.251L281.913 100.809L284.189 100.368L286.453 99.926L288.705 99.4845L290.944 99.0431L293.17 98.6019L295.384 98.1608L297.584 97.7198L299.772 97.279L301.946 96.8382L304.107 96.3977L306.255 95.9573L308.389 95.517L310.51 95.0769L312.617 94.637L314.71 94.1973L316.79 93.7577L318.855 93.3183L320.907 92.879L322.944 92.44L324.967 92.0012L326.976 91.5625L328.97 91.124L330.95 90.6858L332.915 90.2477L334.865 89.8098L336.8 89.3721L338.721 88.9347L340.626 88.4975L342.517 88.0605L344.392 87.6237L346.252 87.1871L348.096 86.7507L349.925 86.3146L351.739 85.8787L353.537 85.443L355.319 85.0076L357.085 84.5724L358.836 84.1374L360.57 83.7026L362.288 83.2681L363.99 82.8338L365.676 82.3998L367.346 81.966L368.999 81.5324L370.636 81.0991L372.256 80.666L373.859 80.2332L375.446 79.8006L377.016 79.3682L378.569 78.9361L380.105 78.5042L381.624 78.0725L383.126 77.6412L384.611 77.21L386.079 76.7791L387.529 76.3484L388.962 75.918L390.377 75.4878L391.775 75.0578L393.156 74.6281L394.518 74.1986L395.863 73.7693L397.19 73.3403L398.5 72.9115L399.791 72.483L401.065 72.0546L402.32 71.6265L403.557 71.1987L404.776 70.771L405.977 70.3436L407.16 69.9164L408.324 69.4894L409.47 69.0626L410.597 68.636L411.706 68.2097L412.797 67.7836L413.868 67.3576L414.921 66.9319L415.956 66.5064L416.971 66.0811L417.968 65.6559L418.946 65.231L419.905 64.8063L420.845 64.3818L421.766 63.9574L422.668 63.5332L423.551 63.1092L424.415 62.6854L425.259 62.2618L426.085 61.8383L426.891 61.415L427.678 60.9919L428.445 60.5689L429.193 60.1461L429.922 59.7234L430.631 59.3009L431.321 58.8786L431.991 58.4563L432.642 58.0342L433.273 57.6123L433.885 57.1905L434.477 56.7688L435.049 56.3473L435.601 55.9258L436.134 55.5045L436.647 55.0833L437.141 54.6622L437.614 54.2412L438.068 53.8203L438.502 53.3995L438.916 52.9788L439.31 52.5582L439.684 52.1377L440.038 51.7172L440.372 51.2969L440.687 50.8765L440.981 50.4563L441.256 50.0362L441.51 49.6161L441.744 49.196L441.959 48.776L442.153 48.356L442.327 47.9361L442.482 47.5162L442.616 47.0963L442.73 46.6765L442.824 46.2567L442.898 45.8369L442.952 45.4172L442.986 44.9974L443 44.5776" stroke="#D07F3F" stroke-opacity="0.3" stroke-width="2"/>
</svg>
